<svg width="314" height="214" viewBox="0 0 314 214" fill="none" xmlns="http://www.w3.org/2000/svg">
<path d="M5.24927 155.363L3.03442 130.156C15.1282 103.719 29.1204 76.3672 45.011 48.1016L78.9719 50L78.55 131.422L93.4211 131.738V156.945H78.9719V201.348L53.4485 200.398L53.7649 156.418L5.24927 155.363ZM54.1868 131.738L54.5032 77.3164C46.7688 95.1758 38.5422 113.141 29.8235 131.211L54.1868 131.738ZM149.551 49.1562C177.324 49.1562 191.211 74.4688 191.211 125.094C191.211 175.789 176.34 201.137 146.598 201.137C116.855 201.137 101.984 174.875 101.984 122.352C101.984 73.5547 117.84 49.1562 149.551 49.1562ZM130.566 125.832C130.496 127.73 130.461 129.559 130.461 131.316C130.461 159.09 136.191 172.977 147.652 172.977C159.746 172.977 165.793 157.262 165.793 125.832C165.793 94.4023 160.133 78.6875 148.812 78.6875C137.492 78.6875 131.41 94.4023 130.566 125.832ZM198.719 155.363L196.505 130.156C208.598 103.719 222.591 76.3672 238.481 48.1016L272.442 50L272.02 131.422L286.891 131.738V156.945H272.442V201.348L246.919 200.398L247.235 156.418L198.719 155.363ZM247.657 131.738L247.973 77.3164C240.239 95.1758 232.012 113.141 223.294 131.211L247.657 131.738Z" fill="#003C5E"/>
<path d="M26.2571 161.2L24.0423 135.993C36.136 109.556 50.1282 82.2043 66.0188 53.9387L99.9798 55.8371L99.5579 137.259L114.429 137.575V162.782H99.9798V207.185L74.4563 206.236L74.7727 162.255L26.2571 161.2ZM75.1946 137.575L75.511 83.1535C67.7766 101.013 59.5501 118.978 50.8313 137.048L75.1946 137.575ZM170.559 54.9934C198.332 54.9934 212.219 80.3059 212.219 130.931C212.219 181.626 197.348 206.974 167.605 206.974C137.863 206.974 122.992 180.712 122.992 128.189C122.992 79.3918 138.848 54.9934 170.559 54.9934ZM151.574 131.669C151.504 133.568 151.469 135.396 151.469 137.154C151.469 164.927 157.199 178.814 168.66 178.814C180.754 178.814 186.801 163.099 186.801 131.669C186.801 100.239 181.141 84.5246 169.82 84.5246C158.5 84.5246 152.418 100.239 151.574 131.669ZM219.727 161.2L217.512 135.993C229.606 109.556 243.598 82.2043 259.489 53.9387L293.45 55.8371L293.028 137.259L307.899 137.575V162.782H293.45V207.185L267.926 206.236L268.243 162.255L219.727 161.2ZM268.665 137.575L268.981 83.1535C261.247 101.013 253.02 118.978 244.301 137.048L268.665 137.575Z" fill="#29B3FF"/>
</svg>
