<?xml version="1.0" encoding="UTF-8"?><svg xmlns="http://www.w3.org/2000/svg" viewBox="0 0 225.457 538.533" x="0px" y="0px" width="226px" height="539px" version="1.1" xmlns:xlink="http://www.w3.org/1999/xlink"><title>calm_peaceful_tree</title><g id="Layer_2" data-name="Layer 2"><g id="calm_peaceful_tree"><path d="M179.04,363.333a1.23,1.23,0,0,0-.8-1.6,1.442,1.442,0,0,0-1.3.3l-.1.1c-.8.8-1.6,1.7-2.5,2.5s-1.6,1.7-2.5,2.4c-.9.8-1.6,1.5-2.4,2.3-.3-1-.6-2-.8-3a32,32,0,0,1-.7-3.3,18.588,18.588,0,0,1-.4-3.3v-.1a1.09,1.09,0,0,0-1.1-1,1.068,1.068,0,0,0-.9.7,12.3,12.3,0,0,0-.8,3.9,18.1,18.1,0,0,0,0,3.8c.1,1.3.3,2.5.5,3.7a24.906,24.906,0,0,0,.9,3.7,2.01,2.01,0,0,0,.4.8,2.373,2.373,0,0,0,3.3.4l.1-.1a34.471,34.471,0,0,0,5.4-5.4,36.173,36.173,0,0,0,2.2-3.2A29.967,29.967,0,0,0,179.04,363.333Z" fill="#10294c"/><path d="M138.94,524.133l-3.9-62.8c-10.6-10-20.5-19.7-29.8-29.2a3.663,3.663,0,0,0-4.8-.4,176.854,176.854,0,0,1-22.3,12.9l-5,79.5a11.95,11.95,0,0,0,9.5,12.5,120.643,120.643,0,0,0,23.4,1.9c10.9,0,18.3-.8,23.4-1.9A11.95,11.95,0,0,0,138.94,524.133Z" fill="#ffb400"/><path d="M225.34,429.133c-10.3-76.8-26.7-125-36.6-149a3.749,3.749,0,0,1,2-4.9,3.973,3.973,0,0,1,2.4-.2c2.6.7,4.9,1.3,6.8,1.7a3.7,3.7,0,0,0,4.5-2.7,5.437,5.437,0,0,0,0-1.8c-21.4-80.4-39.3-129.5-48.8-153.3a3.651,3.651,0,0,1,2.1-4.8,3.417,3.417,0,0,1,2.8,0l.2.1a3.736,3.736,0,0,0,4.9-4.6c-17.4-56.1-45.8-96-55.3-108.2a3.775,3.775,0,0,0-5.2-.7,3.044,3.044,0,0,0-.8.8c-4.2,6.1-12.5,18.7-22.8,37h0l-.3.5c-.6,1-1.1,2-1.7,3.1h0c-.6,1.2-1.4,2.5-2.2,4h0l-2.1,3.9c-1.1,2-2.2,4.1-3.1,5.8h0a670.539,670.539,0,0,0-41.2,97.8,3.7,3.7,0,0,0,2.4,4.7,3.9,3.9,0,0,0,2.6-.1c1.6-.6,3.3-1.4,5.2-2.2a3.791,3.791,0,0,1,4.9,1.9,3.61,3.61,0,0,1,.1,2.7c-11.1,31.9-27,85-40.8,159.5a3.6,3.6,0,0,0,3,4.3,4.084,4.084,0,0,0,1.9-.1c1.9-.6,4.2-1.4,6.7-2.3a3.7,3.7,0,0,1,4.8,2.2,3.944,3.944,0,0,1,.1,2.4c-7.9,25.9-16,59.9-21.8,102.6a3.712,3.712,0,0,0,3.2,4.2,4.052,4.052,0,0,0,1.1,0c7.7-1.3,23.1-4.3,35.8-10a3.783,3.783,0,0,1,4.9,1.8,2.663,2.663,0,0,1,.3,1.2c.8,8.5,1.8,17.2,2.8,26.1a3.635,3.635,0,0,0,4.1,3.2,2.92,2.92,0,0,0,.9-.2,264.3,264.3,0,0,0,25.1-10.9,189.949,189.949,0,0,0,22.3-12.9,3.915,3.915,0,0,1,4.8.4c9.3,9.4,19.3,19.1,29.8,29.2,1.7,1.7,3.5,3.3,5.3,5a3.774,3.774,0,0,0,5.3-.1,1.756,1.756,0,0,0,.4-.5,204.673,204.673,0,0,0,17.9-34.1,3.642,3.642,0,0,1,4.4-2.2c18.8,5.3,43.9,4.6,53.6,4.1a3.765,3.765,0,0,0,3.4-4A1.577,1.577,0,0,1,225.34,429.133Z" fill="#f04e23"/><path d="M59.84,255.333a9.439,9.439,0,0,1,.9.3l.8.3c.5.2,1.1.3,1.6.5,1.1.3,2.2.5,3.3.7a34.93,34.93,0,0,0,6.5.6c1.1,0,2.2,0,3.3-.1s2.1-.1,3.3-.3c1.1-.2,2.1-.3,3.2-.5,1-.2,2.1-.5,3.1-.8a1.012,1.012,0,0,0,.8-1.2.991.991,0,0,0-1.1-.8h0l-3.1.1h-3a58.484,58.484,0,0,1-6-.4c-2-.2-3.9-.6-5.9-1a25.044,25.044,0,0,1-2.6-.7l.2-.4a21.1,21.1,0,0,0,1.6-3.4,39.409,39.409,0,0,0,2.1-6.9c.3-1.2.5-2.3.7-3.5s.4-2.3.5-3.5a55.294,55.294,0,0,0,.4-7.1,1.324,1.324,0,0,0-1.3-1.3,1.381,1.381,0,0,0-1.3,1h0c-.5,2.2-1,4.4-1.6,6.6l-.9,3.3-.9,3.3c-.3,1.1-.7,2.1-1,3.2-.4,1-.8,2.1-1.2,3a18.386,18.386,0,0,1-3.1,5.2l-.1.1a2.092,2.092,0,0,0-.4.6A2.348,2.348,0,0,0,59.84,255.333Z" fill="#10294c"/><path d="M117.04,255.333a9.439,9.439,0,0,1,.9.3l.8.3c.5.2,1.1.3,1.6.5,1.1.3,2.2.5,3.3.7a34.93,34.93,0,0,0,6.5.6c1.1,0,2.2,0,3.3-.1s2.1-.1,3.3-.3c1.1-.2,2.1-.3,3.2-.5,1-.2,2.1-.5,3.1-.8a.98.98,0,0,0,.7-1.3,1.077,1.077,0,0,0-1-.8h-.1l-3.2.1h-3a58.484,58.484,0,0,1-6-.4c-2-.2-3.9-.6-5.9-1a25.044,25.044,0,0,1-2.6-.7l.2-.4a21.1,21.1,0,0,0,1.6-3.4,42.186,42.186,0,0,0,2.1-6.9c.3-1.2.5-2.3.7-3.5s.4-2.3.5-3.5a55.294,55.294,0,0,0,.4-7.1,1.324,1.324,0,0,0-1.3-1.3,1.381,1.381,0,0,0-1.3,1h0c-.5,2.2-1,4.4-1.6,6.6l-.9,3.3-.9,3.3c-.3,1.1-.7,2.1-1,3.2a26.792,26.792,0,0,1-1.2,3,20.715,20.715,0,0,1-3,5.2l-.1.1a2.092,2.092,0,0,0-.4.6A2.563,2.563,0,0,0,117.04,255.333Z" fill="#10294c"/><path d="M93.14,278.333a42.59,42.59,0,0,1-6.9-1.5,29.664,29.664,0,0,1-12.1-6.8h0a1.272,1.272,0,0,0-1.8.1,1.215,1.215,0,0,0-.1,1.6,23.31,23.31,0,0,0,5.6,5.7,31.285,31.285,0,0,0,7,3.7,50.354,50.354,0,0,0,7.6,2.1,68.474,68.474,0,0,0,7.8.7,42.532,42.532,0,0,0,15.4-2.9,36,36,0,0,0,7-3.7,20.932,20.932,0,0,0,5.5-5.6,1.07,1.07,0,0,0-1.7-1.3h0a29.078,29.078,0,0,1-12.3,6.7,51.283,51.283,0,0,1-21,1.2Z" fill="#10294c"/><path d="M68.64,143.933a2.92,2.92,0,0,0,.2.9,2.367,2.367,0,0,0,3.2,1.1,77.617,77.617,0,0,0,11.7-7.1l2.7-2.1c.9-.7,1.7-1.5,2.6-2.3a23.66,23.66,0,0,0,4.4-5.5.975.975,0,0,0-.5-1.4,1.063,1.063,0,0,0-1.2.2h0a55.15,55.15,0,0,1-10.2,7.8c-1.9,1.1-3.8,2.2-5.7,3.2-.8.4-1.7.9-2.5,1.3v-3c0-2.2.1-4.4.2-6.6,0-1.1.1-2.2.2-3.3l.3-3.3c.2-2.2.5-4.4.8-6.6v-.2a1.244,1.244,0,0,0-1.1-1.4,1.209,1.209,0,0,0-1.3.7,40,40,0,0,0-2.1,6.7c-.5,2.3-1,4.5-1.3,6.8a73.891,73.891,0,0,0-.4,14.1Z" fill="#10294c"/><path d="M81.64,397.933c.9-.7,1.7-1.5,2.6-2.3a25.946,25.946,0,0,0,4.4-5.5,1.05,1.05,0,0,0-.5-1.4.913.913,0,0,0-1.1.2h0a55.15,55.15,0,0,1-10.2,7.8l-5.7,3.3c-.8.4-1.7.9-2.5,1.3v-3c0-2.2.1-4.4.2-6.6,0-1.1.1-2.2.2-3.3l.3-3.3c.2-2.2.5-4.4.8-6.6v-.1a1.322,1.322,0,0,0-1.2-1.4,1.213,1.213,0,0,0-1.2.7,40,40,0,0,0-2.1,6.7c-.5,2.3-1,4.5-1.3,6.8a64.636,64.636,0,0,0-.3,13.9v.1a1.884,1.884,0,0,0,.2.8,2.367,2.367,0,0,0,3.2,1.1,57.589,57.589,0,0,0,6-3.3,56.453,56.453,0,0,0,5.7-3.8A27.613,27.613,0,0,1,81.64,397.933Z" fill="#10294c"/><path d="M70.54,368.233c1.1-1,2.1-1.9,3.1-3a34.7,34.7,0,0,0,5.2-6.9,1.012,1.012,0,0,0-.4-1.4,1.227,1.227,0,0,0-1.3.2h0a50.247,50.247,0,0,1-5.7,5.6c-2.1,1.7-4.3,3.3-6.5,4.8s-4.6,2.9-6.9,4.4c-1.2.7-2.4,1.4-3.6,2l-.3.2c-.1-1.5-.2-3.1-.2-4.6-.1-2.8-.1-5.5,0-8.3v-2.1l.1-2.1c.1-1.4.1-2.8.3-4.1.2-2.8.5-5.5.8-8.2v-.1a1.194,1.194,0,0,0-1.1-1.4,1.3,1.3,0,0,0-1.4.9,49.471,49.471,0,0,0-2.2,8.4,80.815,80.815,0,0,0-1.1,8.6c-.2,2.9-.3,5.8-.3,8.6a80.951,80.951,0,0,0,.6,8.6v.1a1.135,1.135,0,0,0,.3.8,2.356,2.356,0,0,0,3.2,1c2.6-1.4,4.9-2.8,7.3-4.4s4.7-3.2,6.9-4.9C68.34,370.033,69.44,369.133,70.54,368.233Z" fill="#10294c"/><path d="M127.44,172.033a51.36,51.36,0,0,0,4.2,3.8c1.5,1.2,3,2.2,4.6,3.3,1.6,1,3.3,1.9,5,2.8h.1a2.92,2.92,0,0,0,.9.2,2.506,2.506,0,0,0,2.6-2.2h0a62.852,62.852,0,0,0-.1-11.2,26.956,26.956,0,0,0-.4-2.8c-.1-.7-.3-1.3-.4-2,.5.2.9.4,1.4.6a28.277,28.277,0,0,0,4.1,1.4h.1a2.293,2.293,0,0,0,2.9-1.6,2.769,2.769,0,0,0,.1-.9c-.2-1.5-.4-2.8-.7-4.2a27.457,27.457,0,0,0-1.1-4.1,11.764,11.764,0,0,0-.7-2,17.6,17.6,0,0,0-.9-2,18.051,18.051,0,0,0-2.4-3.7,1.128,1.128,0,0,0-1.1-.3,1.114,1.114,0,0,0-.6,1.4h0a32.794,32.794,0,0,1,1.8,7.5c.2,1.3.3,2.6.5,3.9v.2c-1.3-.5-2.7-1-4-1.6-.6-.2-1.2-.5-1.7-.7v-.1a1.083,1.083,0,0,0-1.2-.5h0l-.7-.3-3.7-1.6h-.1a1.248,1.248,0,0,0-1.7.7,1.4,1.4,0,0,0,.2,1.4,18.068,18.068,0,0,0,3.3,2.9,23.263,23.263,0,0,0,2.6,1.7,53.223,53.223,0,0,1,.4,6.9c0,1.7-.1,3.5-.2,5.3,0,.5-.1,1-.1,1.5-2-1.2-4-2.4-6-3.7-.7-.5-1.5-1-2.2-1.5s-1.5-1-2.2-1.5c-1.5-1-2.9-2.1-4.3-3.2h-.1a1.28,1.28,0,0,0-1.8.3,1.36,1.36,0,0,0,0,1.5A18.779,18.779,0,0,0,127.44,172.033Z" fill="#10294c"/><path d="M177.34,374.233c-.4-3.8-1.1-7.5-1.8-11.3-.8-3.7-1.6-7.4-2.7-11.1q-.75-2.7-1.8-5.4a48.671,48.671,0,0,0-2.1-5.3,46.712,46.712,0,0,0-5.8-9.9,1.091,1.091,0,0,0-1.3-.3,1.012,1.012,0,0,0-.4,1.4h0a59.928,59.928,0,0,1,4.5,10,98.238,98.238,0,0,1,3,10.6c.8,3.6,1.5,7.2,2.2,10.8.3,1.8.6,3.6.8,5.5.1.7.2,1.3.3,2l-2.1-.5-2.7-.8-1.3-.4-1.3-.4c-3.6-1.1-7.1-2.4-10.6-3.8a93.309,93.309,0,0,1-10.1-4.8c-1.6-.9-3.3-1.8-4.9-2.8a52.7,52.7,0,0,1-4.6-3.1h-.1a1.214,1.214,0,0,0-1.6.1,1.268,1.268,0,0,0,0,1.8h0a50.241,50.241,0,0,0,9.3,7.2,78.819,78.819,0,0,0,10.3,5.6c1.8.8,3.6,1.6,5.4,2.3.9.3,1.8.7,2.7,1.1l2.8.9,1.4.5,1.4.4,2.8.8c1.9.5,3.8.9,5.7,1.4a2.2,2.2,0,0,0,.8.1,2.433,2.433,0,0,0,1.8-2.6Z" fill="#10294c"/><path d="M89.44,472.333a1.419,1.419,0,0,0-.8-.9,1.356,1.356,0,0,0-1.8.7h0a18.774,18.774,0,0,0-1.2,4.5,34.077,34.077,0,0,0-.5,4.6,35.3,35.3,0,0,0,0,4.6,23.3,23.3,0,0,0,.8,4.6,1.226,1.226,0,0,0,1.4.8,1.057,1.057,0,0,0,.7-.6,25.424,25.424,0,0,0,1.3-4.5,33.991,33.991,0,0,0,.6-4.6,35.329,35.329,0,0,0,.1-4.6A18.158,18.158,0,0,0,89.44,472.333Z" fill="#f04e23"/><path d="M122.54,519.533a9.333,9.333,0,0,0,1.2,3.3,1.205,1.205,0,0,0,.5.5,1.068,1.068,0,0,0,1.5-.6,13.307,13.307,0,0,0,1-3.4,12.716,12.716,0,0,0,.2-3.4,19.529,19.529,0,0,0-.3-3.4,11.543,11.543,0,0,0-1-3.3,2.336,2.336,0,0,0-.7-.7,1.506,1.506,0,0,0-1.9.7,18.873,18.873,0,0,0-.9,3.4,19.329,19.329,0,0,0-.1,3.4A32.711,32.711,0,0,0,122.54,519.533Z" fill="#f04e23"/><path d="M96.54,501.433a1.871,1.871,0,0,0-2.6-.1,3.316,3.316,0,0,0-1,1.4,3.9,3.9,0,0,0,0,3,3.956,3.956,0,0,0,1,1.5,1.547,1.547,0,0,0,2.1.1,3.6,3.6,0,0,0,1.1-1.4,3.708,3.708,0,0,0,.4-1.4,3.812,3.812,0,0,0-.1-1.5A5.071,5.071,0,0,0,96.54,501.433Z" fill="#f04e23"/><path d="M110.94,455.233a6.885,6.885,0,0,0,1.1,1.3,1.662,1.662,0,0,0,2.1-.1,3.587,3.587,0,0,0,1-1.4,3.079,3.079,0,0,0,.3-1.3,3.317,3.317,0,0,0-1.3-2.6,2.107,2.107,0,0,0-2.6.1,3.39,3.39,0,0,0-.9,1.4,2.879,2.879,0,0,0-.1,1.3A2.836,2.836,0,0,0,110.94,455.233Z" fill="#f04e23"/><path d="M171.74,419.233a.764.764,0,0,0-.2-.5,1.58,1.58,0,0,0-2.1-.6h0a9.5,9.5,0,0,0-1.9,1.6,8.175,8.175,0,0,0-1.2,2,8.78,8.78,0,0,0-.7,2.3,7.017,7.017,0,0,0-.1,2.5c0,.1.1.3.1.4a1.282,1.282,0,0,0,1.7.5h0a10.04,10.04,0,0,0,2-1.6,12.735,12.735,0,0,0,1.3-1.9,9.037,9.037,0,0,0,.8-2.1,5.82,5.82,0,0,0,.3-2.6Z" fill="#10294c"/><path d="M52.24,415.133a6.529,6.529,0,0,0-2.4.6,6.251,6.251,0,0,0-2,1.3,12.878,12.878,0,0,0-1.6,1.7,9.409,9.409,0,0,0-1.2,2.2c0,.1-.1.3-.1.4a1.24,1.24,0,0,0,1.3,1.2h0a6.436,6.436,0,0,0,2.4-.5,12.81,12.81,0,0,0,2-1.1,12.165,12.165,0,0,0,1.7-1.5,7.994,7.994,0,0,0,1.3-2.2v-.1a1.268,1.268,0,0,0,.1-.6A1.7,1.7,0,0,0,52.24,415.133Z" fill="#10294c"/><path d="M183.64,269.433a25.5,25.5,0,0,0-2.9-1.3,15.545,15.545,0,0,0-3.1-.7,12.173,12.173,0,0,0-3.3-.1,1.2,1.2,0,0,0-1,1.3.713.713,0,0,0,.3.6,17.086,17.086,0,0,0,2.6,2.1,25.909,25.909,0,0,0,2.9,1.4,15.831,15.831,0,0,0,3.1.9,12.223,12.223,0,0,0,3.3.2,1.234,1.234,0,0,0,.8-.4,1.335,1.335,0,0,0,0-2h0A10.518,10.518,0,0,0,183.64,269.433Z" fill="#10294c"/><path d="M38.74,313.533h0a11.476,11.476,0,0,0-3.7.6,19.571,19.571,0,0,0-3.4,1.2c-1.1.5-2.2,1-3.3,1.6a16.554,16.554,0,0,0-3,2.2h0a1.612,1.612,0,0,0-.4.7,1.055,1.055,0,0,0,1,1.2h0a12.862,12.862,0,0,0,3.9-.3,24.181,24.181,0,0,0,3.6-1,16.822,16.822,0,0,0,3.3-1.6,13.307,13.307,0,0,0,3-2.3,1.777,1.777,0,0,0,.4-1A1.347,1.347,0,0,0,38.74,313.533Z" fill="#10294c"/><path d="M142.44,110.433a25.909,25.909,0,0,0,2.9,1.4,17.1,17.1,0,0,0,3,.9,12.223,12.223,0,0,0,3.3.2,1.367,1.367,0,0,0,1.3-1.5,1.268,1.268,0,0,0-.4-.9,13.5,13.5,0,0,0-2.7-2,25.5,25.5,0,0,0-2.9-1.3,15.545,15.545,0,0,0-3.1-.7,12.173,12.173,0,0,0-3.3-.1.713.713,0,0,0-.6.3,1.041,1.041,0,0,0,0,1.6A6.41,6.41,0,0,0,142.44,110.433Z" fill="#10294c"/></g></g></svg>