<?xml version="1.0" encoding="UTF-8"?><svg version="1.1" id="Layer_1" xmlns="http://www.w3.org/2000/svg" xmlns:xlink="http://www.w3.org/1999/xlink" x="0px" y="0px" viewBox="0 0 888 352.6" style="enable-background:new 0 0 888 352.6;" xml:space="preserve" width="888px" height="353px">

<title>Cloud_5</title>
<path d="M152.3,185.4c-17.4-0.5-33.6-1.6-49.7-1.2c-16,0.4-30.5,6.6-43.6,15.8c-18.5,13-33.4,30.4-43.3,50.7
	C8,266.3,4,283.1,1.9,300.3c-0.7,5.8-1.6,11.5-1.8,17.3c-0.3,4.2,0.1,8.4,1.2,12.5c2.8,10.7,9.3,16.8,21.1,16.9
	c16.2,0.1,32.5,0.7,48.7,1.1c36.6,0.9,73.2,2.3,109.8,2.6c38.9,0.3,77.8-0.4,116.7-0.7c31.9-0.2,63.9-0.5,95.8-0.9
	c28.5-0.3,56.9-1,85.4-1c22.6,0.1,45.3,1.3,67.9,1.7c21.1,0.4,42.2,0.2,63.3,0.6c39.7,0.6,79.4,1.7,119.1,2.1
	c25.7,0.3,51.5-0.3,77.2-0.6c14.1-0.2,28.4,0.6,42.3-1c10.7-1.4,21.2-4.5,30.9-9.3c7.9-3.9,9.1-13.6,8.3-21.6
	c-2.9-29-11.9-55.9-31.2-78.6c-11.4-13.4-24.1-25.1-40.4-32.4c-17.1-7.6-34.9-12.3-53.6-10.5c-14.1,1.4-28.1,4.9-42.1,7.7
	c-2.9,0.6-5.7,2.3-8.8,3.7c-5.2-9.2-10.3-18.5-15.6-27.7c-11.4-19.7-27.5-34.8-46.8-46.7c-14.8-9-30.9-15.4-47.8-19
	c-34.7-7.7-64.4,1.1-89,26.5l-3.3,3.3c-0.6,0.5-1.3,0.8-2.9,1.8c-1.6-6.4-3.4-12.3-4.4-18.3c-6.2-35.3-23.7-64.4-49-89.2
	c-10.7-10.5-23.7-17.3-37.4-23.1c-23.4-10-48.3-15.8-73.7-17.1c-30.5-1.6-60.5,0.7-88.1,15.4c-26.3,14-48.6,32.5-62.8,59.3
	c-7.2,13.7-15.4,27.1-20.4,41.6c-7.1,20.4-11.6,41.7-17.2,62.6C152.8,181.7,152.6,184.2,152.3,185.4z" style="fill:#D3E9EF;"/>
</svg>