<?xml version="1.0" encoding="UTF-8"?><svg version="1.1" id="Layer_1" xmlns="http://www.w3.org/2000/svg" xmlns:xlink="http://www.w3.org/1999/xlink" x="0px" y="0px" viewBox="0 0 1047.6 416" style="enable-background:new 0 0 1047.6 416;" xml:space="preserve" width="1048px" height="416px">

<title>Cloud_1</title>
<path d="M868,218.6c20.5-0.6,39.6-1.9,58.7-1.4c18.9,0.5,36,7.7,51.4,18.6c21.8,15.3,39.4,35.9,51.1,59.8
	c9.1,18.4,13.8,38.2,16.2,58.5c0.8,6.8,1.9,13.6,2.2,20.4c0.2,5-0.2,10-1.4,14.8c-3.3,12.6-11,19.9-24.9,19.9
	c-19.2,0.1-38.3,0.9-57.5,1.3c-43.2,1.1-86.3,2.7-129.5,3.1c-45.9,0.4-91.8-0.4-137.7-0.8c-37.7-0.3-75.3-0.6-113-1
	c-33.6-0.4-67.2-1.2-100.8-1.1c-26.7,0.1-53.4,1.5-80.1,2c-24.9,0.4-49.8,0.3-74.7,0.7c-46.8,0.7-93.6,2-140.5,2.5
	c-30.4,0.3-60.7-0.4-91.1-0.7C79.7,415,62.9,416,46.5,414c-12.7-1.6-25-5.3-36.4-11c-9.4-4.6-10.8-16-9.8-25.5
	c3.4-34.3,14-65.9,36.8-92.7c13.4-15.8,28.4-29.6,47.7-38.2c20.1-9,41.2-14.6,63.2-12.4c16.7,1.7,33.1,5.7,49.6,9.1
	c3.5,0.7,6.7,2.8,10.3,4.3c6.1-10.9,12.1-21.9,18.4-32.7c13.4-23.3,32.5-41.1,55.2-55.1c17.5-10.8,36.3-17.9,56.4-22.4
	c40.9-9,75.8,1.4,105,31.3c1.3,1.3,2.6,2.6,3.9,3.8c1.1,0.8,2.3,1.5,3.5,2.1c1.9-7.6,4-14.5,5.2-21.5c7.3-41.7,28-76,57.8-105.2
	c12.6-12.4,28-20.4,44.1-27.2c27.6-11.8,57-18.7,87-20.2c36-1.9,71.4,0.8,103.9,18.1c31,16.5,57.3,38.3,74.1,69.9
	c8.5,16.1,18.2,32,24.1,49.1c8.3,24.1,13.7,49.1,20.3,73.8C867.4,214.3,867.7,217.2,868,218.6z" style="fill:#D3E9EF;"/>
</svg>