<svg width="1440" height="861" viewBox="0 0 1440 861" fill="none" preserveAspectRatio="none" xmlns="http://www.w3.org/2000/svg">
    <g filter="url(#filter0_d)">
        <path d="M-132.386 105.041L-36.8862 61.1661L97.1139 168.111L0.11389 216.374L-132.386 105.041Z" fill="#242424" />
        <path d="M-17.0095 115.649L78.7277 72.4247L189.114 162.627L111.114 199.921L-17.0095 115.649Z" fill="#242424" />
        <path d="M115.99 111.219L232.614 56.2303L295.614 111.219L187.614 162.627L115.99 111.219Z" fill="#242424" />
        <path d="M184.806 107.721L303.114 54.5849L356.614 113.267L256.43 159.129L184.806 107.721Z" fill="#242424" />
        <path d="M303.114 54.5851L328.614 46.3585L364.114 78.717L337.114 92.9762L303.114 54.5851Z" fill="#242424" />
        <path d="M40.6139 196.082L79.6139 176.659L112.114 198.824L69.6138 220.213L40.6139 196.082Z" fill="#242424" />
    </g>
    <path d="M-195.364 163.175L-96.4416 119.3L42.3609 226.246L-58.1155 274.508L-195.364 163.175Z" fill="#242424" />
    <path d="M-75.8526 173.784L23.3158 130.559L137.658 220.761L56.8626 258.055L-75.8526 173.784Z" fill="#242424" />
    <path d="M61.9136 169.353L182.717 114.365L247.975 169.353L136.104 220.761L61.9136 169.353Z" fill="#242424" />
    <path d="M133.196 165.855L255.744 112.719L311.161 171.401L207.387 217.263L133.196 165.855Z" fill="#242424" />
    <path d="M255.744 112.719L282.158 104.493L318.93 136.851L290.962 151.11L255.744 112.719Z" fill="#242424" />
    <path d="M-16.164 254.216L24.2337 234.793L57.8984 256.958L13.8753 278.347L-16.164 254.216Z" fill="#242424" />
    <path d="M-195.364 215.825L-96.4416 171.95L42.3609 278.896L-58.1155 327.158L-195.364 215.825Z" fill="#242424" />
    <path d="M-75.8526 226.434L23.3158 183.209L137.658 273.411L56.8626 310.705L-75.8526 226.434Z" fill="#242424" />
    <path d="M61.9136 222.003L182.717 167.014L247.975 222.003L136.104 273.411L61.9136 222.003Z" fill="#242424" />
    <path d="M133.196 218.505L255.744 165.369L311.161 224.051L207.387 269.913L133.196 218.505Z" fill="#242424" />
    <path d="M255.744 165.369L282.158 157.143L318.93 189.501L290.962 203.76L255.744 165.369Z" fill="#242424" />
    <path d="M-16.164 306.866L24.2337 287.443L57.8984 309.608L13.8753 330.997L-16.164 306.866Z" fill="#242424" />
    <path d="M-195.364 328.803L-96.4416 284.928L42.3609 391.873L-58.1155 440.136L-195.364 328.803Z" fill="#242424" />
    <path d="M-75.8526 339.411L23.3158 296.187L137.658 386.389L56.8626 423.683L-75.8526 339.411Z" fill="#242424" />
    <path d="M61.9136 334.981L182.717 279.992L247.975 334.981L136.104 386.389L61.9136 334.981Z" fill="#242424" />
    <path d="M133.196 331.483L255.744 278.347L311.161 337.029L207.387 382.891L133.196 331.483Z" fill="#242424" />
    <path d="M255.744 278.347L282.158 270.12L318.93 302.479L290.962 316.738L255.744 278.347Z" fill="#242424" />
    <path d="M-16.164 419.844L24.2337 400.421L57.8984 422.586L13.8753 443.975L-16.164 419.844Z" fill="#242424" />
    <path d="M-195.364 448.362L-96.4416 404.487L42.3609 511.433L-58.1155 559.695L-195.364 448.362Z" fill="#242424" />
    <path d="M-75.8526 458.97L23.3158 415.746L137.658 505.948L56.8626 543.242L-75.8526 458.97Z" fill="#242424" />
    <path d="M61.9136 454.54L182.717 399.552L247.975 454.54L136.104 505.948L61.9136 454.54Z" fill="#242424" />
    <path d="M133.196 451.042L255.744 397.906L311.161 456.588L207.387 502.45L133.196 451.042Z" fill="#242424" />
    <path d="M255.744 397.906L282.158 389.68L318.93 422.038L290.962 436.297L255.744 397.906Z" fill="#242424" />
    <path d="M-16.164 539.403L24.2337 519.98L57.8984 542.145L13.8753 563.534L-16.164 539.403Z" fill="#242424" />
    <path d="M-195.364 595.343L-96.4416 551.468L42.3609 658.414L-58.1155 706.676L-195.364 595.343Z" fill="#242424" />
    <path d="M-75.8526 605.952L23.3158 562.727L137.658 652.929L56.8626 690.223L-75.8526 605.952Z" fill="#242424" />
    <path d="M61.9136 601.521L182.717 546.533L247.975 601.521L136.104 652.929L61.9136 601.521Z" fill="#242424" />
    <path d="M133.196 598.023L255.744 544.887L311.161 603.569L207.387 649.431L133.196 598.023Z" fill="#242424" />
    <path d="M255.744 544.887L282.158 536.661L318.93 569.019L290.962 583.278L255.744 544.887Z" fill="#242424" />
    <path d="M-16.164 686.384L24.2337 666.961L57.8984 689.126L13.8753 710.515L-16.164 686.384Z" fill="#242424" />
    <path d="M-195.364 269.572L-96.4416 225.697L42.3609 332.642L-58.1155 380.905L-195.364 269.572Z" fill="#242424" />
    <path d="M-75.8526 280.18L23.3158 236.955L137.658 327.158L56.8626 364.452L-75.8526 280.18Z" fill="#242424" />
    <path d="M61.9136 275.75L182.717 220.761L247.975 275.75L136.104 327.158L61.9136 275.75Z" fill="#242424" />
    <path d="M133.196 272.252L255.744 219.116L311.161 277.798L207.387 323.66L133.196 272.252Z" fill="#242424" />
    <path d="M255.744 219.116L282.158 210.889L318.93 243.248L290.962 257.507L255.744 219.116Z" fill="#242424" />
    <path d="M-16.164 360.613L24.2337 341.19L57.8984 363.355L13.8753 384.744L-16.164 360.613Z" fill="#242424" />
    <path d="M-195.364 382.55L-96.4416 338.675L42.3609 445.62L-58.1155 493.883L-195.364 382.55Z" fill="#242424" />
    <path d="M-75.8526 393.158L23.3158 349.933L137.658 440.136L56.8626 477.43L-75.8526 393.158Z" fill="#242424" />
    <path d="M61.9136 388.728L182.717 333.739L247.975 388.728L136.104 440.136L61.9136 388.728Z" fill="#242424" />
    <path d="M133.196 385.23L255.744 332.094L311.161 390.776L207.387 436.638L133.196 385.23Z" fill="#242424" />
    <path d="M255.744 332.094L282.158 323.867L318.93 356.226L290.962 370.485L255.744 332.094Z" fill="#242424" />
    <path d="M-16.164 473.591L24.2337 454.168L57.8984 476.333L13.8753 497.722L-16.164 473.591Z" fill="#242424" />
    <path d="M-195.364 529.531L-96.4416 485.656L42.3609 592.601L-58.1155 640.864L-195.364 529.531Z" fill="#242424" />
    <path d="M-75.8526 540.139L23.3158 496.914L137.658 587.117L56.8626 624.411L-75.8526 540.139Z" fill="#242424" />
    <path d="M61.9136 535.709L182.717 480.72L247.975 535.709L136.104 587.117L61.9136 535.709Z" fill="#242424" />
    <path d="M133.196 532.211L255.744 479.075L311.161 537.757L207.387 583.619L133.196 532.211Z" fill="#242424" />
    <path d="M255.744 479.075L282.158 470.848L318.93 503.207L290.962 517.466L255.744 479.075Z" fill="#242424" />
    <path d="M-16.164 620.572L24.2337 601.149L57.8984 623.314L13.8753 644.703L-16.164 620.572Z" fill="#242424" />
    <path d="M-195.364 502.109L-96.4416 458.234L42.3609 565.179L-58.1155 613.442L-195.364 502.109Z" fill="#242424" />
    <path d="M-75.8526 512.717L23.3158 469.493L137.658 559.695L56.8626 596.989L-75.8526 512.717Z" fill="#242424" />
    <path d="M61.9136 508.287L182.717 453.298L247.975 508.287L136.104 559.695L61.9136 508.287Z" fill="#242424" />
    <path d="M133.196 504.789L255.744 451.653L311.161 510.335L207.387 556.197L133.196 504.789Z" fill="#242424" />
    <path d="M255.744 451.653L282.158 443.426L318.93 475.785L290.962 490.044L255.744 451.653Z" fill="#242424" />
    <path d="M-16.164 593.15L24.2337 573.727L57.8984 595.892L13.8753 617.281L-16.164 593.15Z" fill="#242424" />
    <path d="M-195.364 649.09L-96.4416 605.215L42.3609 712.16L-58.1155 760.423L-195.364 649.09Z" fill="#242424" />
    <path d="M-75.8526 659.698L23.3158 616.474L137.658 706.676L56.8626 743.97L-75.8526 659.698Z" fill="#242424" />
    <path d="M61.9136 655.268L182.717 600.279L247.975 655.268L136.104 706.676L61.9136 655.268Z" fill="#242424" />
    <path d="M133.196 651.77L255.744 598.634L311.161 657.316L207.387 703.178L133.196 651.77Z" fill="#242424" />
    <path d="M255.744 598.634L282.158 590.407L318.93 622.766L290.962 637.025L255.744 598.634Z" fill="#242424" />
    <path d="M-16.164 740.131L24.2337 720.708L57.8984 742.873L13.8753 764.262L-16.164 740.131Z" fill="#242424" />
    <path d="M-182.364 714.902L-83.4416 671.027L55.3609 777.973L-45.1155 826.235L-182.364 714.902Z" fill="#242424" />
    <path d="M-62.8526 725.511L36.3158 682.286L150.658 772.488L69.8626 809.782L-62.8526 725.511Z" fill="#242424" />
    <path d="M74.9136 721.08L195.717 666.092L260.975 721.08L149.104 772.488L74.9136 721.08Z" fill="#242424" />
    <path d="M146.196 717.582L268.744 664.446L324.161 723.128L220.387 768.99L146.196 717.582Z" fill="#242424" />
    <path d="M268.744 664.446L295.158 656.22L331.93 688.578L303.962 702.837L268.744 664.446Z" fill="#242424" />
    <path d="M-3.16403 805.943L37.2337 786.521L70.8984 808.685L26.8753 830.074L-3.16403 805.943Z" fill="#242424" />
    <g filter="url(#filter1_d)">
        <path d="M303.614 90.7818L399.114 46.9067L533.114 153.852L436.114 202.114L303.614 90.7818Z" fill="#242424" />
        <path d="M418.991 101.39L514.728 58.1652L625.114 148.368L547.114 185.661L418.991 101.39Z" fill="#242424" />
        <path d="M551.99 96.9595L668.614 41.9709L731.614 96.9595L623.614 148.368L551.99 96.9595Z" fill="#242424" />
        <path d="M620.806 93.4614L739.114 40.3256L792.614 99.0075L692.43 144.869L620.806 93.4614Z" fill="#242424" />
        <path d="M739.114 40.3257L764.614 32.0991L800.114 64.4576L773.114 78.7168L739.114 40.3257Z" fill="#242424" />
        <path d="M476.614 181.822L515.614 162.4L548.114 184.564L505.614 205.953L476.614 181.822Z" fill="#242424" />
    </g>
    <path d="M256.262 148.916L355.184 105.041L493.987 211.986L393.51 260.249L256.262 148.916Z" fill="#242424" />
    <path d="M375.773 159.524L474.942 116.299L589.284 206.502L508.488 243.796L375.773 159.524Z" fill="#242424" />
    <path d="M513.539 155.094L634.343 100.105L699.601 155.094L587.73 206.502L513.539 155.094Z" fill="#242424" />
    <path d="M584.822 151.596L707.369 98.4599L762.787 157.142L659.013 203.004L584.822 151.596Z" fill="#242424" />
    <path d="M707.369 98.4598L733.783 90.2333L770.555 122.592L742.588 136.851L707.369 98.4598Z" fill="#242424" />
    <path d="M435.462 239.957L475.859 220.534L509.524 242.699L465.501 264.088L435.462 239.957Z" fill="#242424" />
    <path d="M256.262 201.566L355.184 157.691L493.987 264.636L393.51 312.898L256.262 201.566Z" fill="#242424" />
    <path d="M375.773 212.174L474.942 168.949L589.284 259.152L508.488 296.445L375.773 212.174Z" fill="#242424" />
    <path d="M513.539 207.744L634.343 152.755L699.601 207.744L587.73 259.152L513.539 207.744Z" fill="#242424" />
    <path d="M584.822 204.246L707.369 151.11L762.787 209.792L659.013 255.654L584.822 204.246Z" fill="#242424" />
    <path d="M707.369 151.11L733.783 142.883L770.555 175.242L742.588 189.501L707.369 151.11Z" fill="#242424" />
    <path d="M435.462 292.606L475.859 273.184L509.524 295.348L465.501 316.737L435.462 292.606Z" fill="#242424" />
    <path d="M256.262 314.544L355.184 270.669L493.987 377.614L393.51 425.876L256.262 314.544Z" fill="#242424" />
    <path d="M375.773 325.152L474.942 281.927L589.284 372.13L508.488 409.423L375.773 325.152Z" fill="#242424" />
    <path d="M513.539 320.722L634.343 265.733L699.601 320.722L587.73 372.13L513.539 320.722Z" fill="#242424" />
    <path d="M584.822 317.224L707.369 264.088L762.787 322.77L659.013 368.632L584.822 317.224Z" fill="#242424" />
    <path d="M707.369 264.088L733.783 255.861L770.555 288.22L742.588 302.479L707.369 264.088Z" fill="#242424" />
    <path d="M435.462 405.585L475.859 386.162L509.524 408.326L465.501 429.715L435.462 405.585Z" fill="#242424" />
    <path d="M256.262 434.103L355.184 390.228L493.987 497.173L393.51 545.436L256.262 434.103Z" fill="#242424" />
    <path d="M375.773 444.711L474.942 401.486L589.284 491.689L508.488 528.983L375.773 444.711Z" fill="#242424" />
    <path d="M513.539 440.281L634.343 385.292L699.601 440.281L587.73 491.689L513.539 440.281Z" fill="#242424" />
    <path d="M584.822 436.783L707.369 383.647L762.787 442.329L659.013 488.191L584.822 436.783Z" fill="#242424" />
    <path d="M707.369 383.647L733.783 375.42L770.555 407.779L742.588 422.038L707.369 383.647Z" fill="#242424" />
    <path d="M435.462 525.144L475.859 505.721L509.524 527.886L465.501 549.275L435.462 525.144Z" fill="#242424" />
    <path d="M256.262 581.084L355.184 537.209L493.987 644.154L393.51 692.417L256.262 581.084Z" fill="#242424" />
    <path d="M375.773 591.692L474.942 548.467L589.284 638.67L508.488 675.963L375.773 591.692Z" fill="#242424" />
    <path d="M513.539 587.262L634.343 532.273L699.601 587.262L587.73 638.67L513.539 587.262Z" fill="#242424" />
    <path d="M584.822 583.764L707.369 530.628L762.787 589.31L659.013 635.172L584.822 583.764Z" fill="#242424" />
    <path d="M707.369 530.628L733.783 522.401L770.555 554.76L742.588 569.019L707.369 530.628Z" fill="#242424" />
    <path d="M435.462 672.125L475.859 652.702L509.524 674.867L465.501 696.256L435.462 672.125Z" fill="#242424" />
    <path d="M256.262 255.313L355.184 211.438L493.987 318.383L393.51 366.645L256.262 255.313Z" fill="#242424" />
    <path d="M375.773 265.921L474.942 222.696L589.284 312.899L508.488 350.192L375.773 265.921Z" fill="#242424" />
    <path d="M513.539 261.49L634.343 206.502L699.601 261.49L587.73 312.899L513.539 261.49Z" fill="#242424" />
    <path d="M584.822 257.992L707.369 204.857L762.787 263.539L659.013 309.4L584.822 257.992Z" fill="#242424" />
    <path d="M707.369 204.856L733.783 196.63L770.555 228.988L742.588 243.248L707.369 204.856Z" fill="#242424" />
    <path d="M435.462 346.353L475.859 326.931L509.524 349.095L465.501 370.484L435.462 346.353Z" fill="#242424" />
    <path d="M253.262 368.291L352.184 324.416L490.987 431.361L390.51 479.623L253.262 368.291Z" fill="#242424" />
    <path d="M372.773 378.899L471.942 335.674L586.284 425.877L505.488 463.17L372.773 378.899Z" fill="#242424" />
    <path d="M510.539 374.468L631.343 319.48L696.601 374.468L584.73 425.877L510.539 374.468Z" fill="#242424" />
    <path d="M581.822 370.97L704.369 317.835L759.787 376.517L656.013 422.379L581.822 370.97Z" fill="#242424" />
    <path d="M704.369 317.834L730.783 309.608L767.555 341.966L739.588 356.226L704.369 317.834Z" fill="#242424" />
    <path d="M432.462 459.331L472.859 439.909L506.524 462.073L462.501 483.462L432.462 459.331Z" fill="#242424" />
    <path d="M253.262 515.272L352.184 471.397L490.987 578.342L390.51 626.604L253.262 515.272Z" fill="#242424" />
    <path d="M372.773 525.88L471.942 482.655L586.284 572.858L505.488 610.151L372.773 525.88Z" fill="#242424" />
    <path d="M510.539 521.449L631.343 466.461L696.601 521.449L584.73 572.858L510.539 521.449Z" fill="#242424" />
    <path d="M581.822 517.951L704.369 464.816L759.787 523.498L656.013 569.359L581.822 517.951Z" fill="#242424" />
    <path d="M704.369 464.815L730.783 456.589L767.555 488.947L739.588 503.207L704.369 464.815Z" fill="#242424" />
    <path d="M432.462 606.312L472.859 586.89L506.524 609.054L462.501 630.443L432.462 606.312Z" fill="#242424" />
    <path d="M256.262 487.85L355.184 443.975L493.987 550.92L393.51 599.182L256.262 487.85Z" fill="#242424" />
    <path d="M375.773 498.458L474.942 455.233L589.284 545.436L508.488 582.729L375.773 498.458Z" fill="#242424" />
    <path d="M513.539 494.028L634.343 439.039L699.601 494.028L587.73 545.436L513.539 494.028Z" fill="#242424" />
    <path d="M584.822 490.529L707.369 437.394L762.787 496.076L659.013 541.938L584.822 490.529Z" fill="#242424" />
    <path d="M707.369 437.394L733.783 429.167L770.555 461.526L742.588 475.785L707.369 437.394Z" fill="#242424" />
    <path d="M435.462 578.89L475.859 559.468L509.524 581.632L465.501 603.021L435.462 578.89Z" fill="#242424" />
    <path d="M256.262 634.831L355.184 590.956L493.987 697.901L393.51 746.164L256.262 634.831Z" fill="#242424" />
    <path d="M375.773 645.439L474.942 602.214L589.284 692.417L508.488 729.711L375.773 645.439Z" fill="#242424" />
    <path d="M513.539 641.009L634.343 586.02L699.601 641.009L587.73 692.417L513.539 641.009Z" fill="#242424" />
    <path d="M584.822 637.511L707.369 584.375L762.787 643.057L659.013 688.919L584.822 637.511Z" fill="#242424" />
    <path d="M707.369 584.375L733.783 576.148L770.555 608.507L742.588 622.766L707.369 584.375Z" fill="#242424" />
    <path d="M435.462 725.872L475.859 706.449L509.524 728.614L465.501 750.003L435.462 725.872Z" fill="#242424" />
    <path d="M269.262 700.643L368.184 656.768L506.987 763.713L406.51 811.976L269.262 700.643Z" fill="#242424" />
    <path d="M388.773 711.251L487.942 668.027L602.284 758.229L521.488 795.523L388.773 711.251Z" fill="#242424" />
    <path d="M526.539 706.821L647.343 651.832L712.601 706.821L600.73 758.229L526.539 706.821Z" fill="#242424" />
    <path d="M597.822 703.323L720.369 650.187L775.787 708.869L672.013 754.731L597.822 703.323Z" fill="#242424" />
    <path d="M720.369 650.187L746.783 641.96L783.555 674.319L755.588 688.578L720.369 650.187Z" fill="#242424" />
    <path d="M448.462 791.684L488.859 772.261L522.524 794.426L478.501 815.815L448.462 791.684Z" fill="#242424" />
    <g filter="url(#filter2_d)">
        <path d="M713.614 90.7818L809.114 46.9067L943.114 153.852L846.114 202.114L713.614 90.7818Z" fill="#242424" />
        <path d="M828.991 101.39L924.728 58.1652L1035.11 148.368L957.114 185.661L828.991 101.39Z" fill="#242424" />
        <path d="M961.99 96.9595L1078.61 41.9709L1141.61 96.9595L1033.61 148.368L961.99 96.9595Z" fill="#242424" />
        <path d="M1030.81 93.4614L1149.11 40.3256L1202.61 99.0075L1102.43 144.869L1030.81 93.4614Z" fill="#242424" />
        <path d="M1149.11 40.3257L1174.61 32.0991L1210.11 64.4576L1183.11 78.7168L1149.11 40.3257Z" fill="#242424" />
        <path d="M886.614 181.822L925.614 162.4L958.114 184.564L915.614 205.953L886.614 181.822Z" fill="#242424" />
    </g>
    <path d="M680.956 148.916L779.878 105.041L918.681 211.986L818.204 260.249L680.956 148.916Z" fill="#242424" />
    <path d="M800.467 159.524L899.635 116.299L1013.98 206.502L933.182 243.796L800.467 159.524Z" fill="#242424" />
    <path d="M938.233 155.094L1059.04 100.105L1124.29 155.094L1012.42 206.502L938.233 155.094Z" fill="#242424" />
    <path d="M1009.52 151.596L1132.06 98.4599L1187.48 157.142L1083.71 203.004L1009.52 151.596Z" fill="#242424" />
    <path d="M1132.06 98.4598L1158.48 90.2333L1195.25 122.592L1167.28 136.851L1132.06 98.4598Z" fill="#242424" />
    <path d="M860.156 239.957L900.553 220.534L934.218 242.699L890.195 264.088L860.156 239.957Z" fill="#242424" />
    <path d="M680.956 201.566L779.878 157.691L918.681 264.636L818.204 312.898L680.956 201.566Z" fill="#242424" />
    <path d="M800.467 212.174L899.635 168.949L1013.98 259.152L933.182 296.445L800.467 212.174Z" fill="#242424" />
    <path d="M938.233 207.744L1059.04 152.755L1124.29 207.744L1012.42 259.152L938.233 207.744Z" fill="#242424" />
    <path d="M1009.52 204.246L1132.06 151.11L1187.48 209.792L1083.71 255.654L1009.52 204.246Z" fill="#242424" />
    <path d="M1132.06 151.11L1158.48 142.883L1195.25 175.242L1167.28 189.501L1132.06 151.11Z" fill="#242424" />
    <path d="M860.156 292.606L900.553 273.184L934.218 295.348L890.195 316.737L860.156 292.606Z" fill="#242424" />
    <path d="M680.956 314.544L779.878 270.669L918.681 377.614L818.204 425.876L680.956 314.544Z" fill="#242424" />
    <path d="M800.467 325.152L899.635 281.927L1013.98 372.13L933.182 409.423L800.467 325.152Z" fill="#242424" />
    <path d="M938.233 320.722L1059.04 265.733L1124.29 320.722L1012.42 372.13L938.233 320.722Z" fill="#242424" />
    <path d="M1009.52 317.224L1132.06 264.088L1187.48 322.77L1083.71 368.632L1009.52 317.224Z" fill="#242424" />
    <path d="M1132.06 264.088L1158.48 255.861L1195.25 288.22L1167.28 302.479L1132.06 264.088Z" fill="#242424" />
    <path d="M860.156 405.585L900.553 386.162L934.218 408.326L890.195 429.715L860.156 405.585Z" fill="#242424" />
    <path d="M680.956 434.103L779.878 390.228L918.681 497.173L818.204 545.436L680.956 434.103Z" fill="#242424" />
    <path d="M800.467 444.711L899.635 401.486L1013.98 491.689L933.182 528.983L800.467 444.711Z" fill="#242424" />
    <path d="M938.233 440.281L1059.04 385.292L1124.29 440.281L1012.42 491.689L938.233 440.281Z" fill="#242424" />
    <path d="M1009.52 436.783L1132.06 383.647L1187.48 442.329L1083.71 488.191L1009.52 436.783Z" fill="#242424" />
    <path d="M1132.06 383.647L1158.48 375.42L1195.25 407.779L1167.28 422.038L1132.06 383.647Z" fill="#242424" />
    <path d="M860.156 525.144L900.553 505.721L934.218 527.886L890.195 549.275L860.156 525.144Z" fill="#242424" />
    <path d="M680.956 581.084L779.878 537.209L918.681 644.154L818.204 692.417L680.956 581.084Z" fill="#242424" />
    <path d="M800.467 591.692L899.635 548.467L1013.98 638.67L933.182 675.963L800.467 591.692Z" fill="#242424" />
    <path d="M938.233 587.262L1059.04 532.273L1124.29 587.262L1012.42 638.67L938.233 587.262Z" fill="#242424" />
    <path d="M1009.52 583.764L1132.06 530.628L1187.48 589.31L1083.71 635.172L1009.52 583.764Z" fill="#242424" />
    <path d="M1132.06 530.628L1158.48 522.401L1195.25 554.76L1167.28 569.019L1132.06 530.628Z" fill="#242424" />
    <path d="M860.156 672.125L900.553 652.702L934.218 674.867L890.195 696.256L860.156 672.125Z" fill="#242424" />
    <path d="M680.956 255.313L779.878 211.438L918.681 318.383L818.204 366.645L680.956 255.313Z" fill="#242424" />
    <path d="M800.467 265.921L899.635 222.696L1013.98 312.899L933.182 350.192L800.467 265.921Z" fill="#242424" />
    <path d="M938.233 261.49L1059.04 206.502L1124.29 261.49L1012.42 312.899L938.233 261.49Z" fill="#242424" />
    <path d="M1009.52 257.992L1132.06 204.857L1187.48 263.539L1083.71 309.4L1009.52 257.992Z" fill="#242424" />
    <path d="M1132.06 204.856L1158.48 196.63L1195.25 228.988L1167.28 243.248L1132.06 204.856Z" fill="#242424" />
    <path d="M860.156 346.353L900.553 326.931L934.218 349.095L890.195 370.484L860.156 346.353Z" fill="#242424" />
    <path d="M680.956 368.291L779.878 324.416L918.681 431.361L818.204 479.623L680.956 368.291Z" fill="#242424" />
    <path d="M800.467 378.899L899.635 335.674L1013.98 425.877L933.182 463.17L800.467 378.899Z" fill="#242424" />
    <path d="M938.233 374.468L1059.04 319.48L1124.29 374.468L1012.42 425.877L938.233 374.468Z" fill="#242424" />
    <path d="M1009.52 370.97L1132.06 317.835L1187.48 376.517L1083.71 422.379L1009.52 370.97Z" fill="#242424" />
    <path d="M1132.06 317.834L1158.48 309.608L1195.25 341.966L1167.28 356.226L1132.06 317.834Z" fill="#242424" />
    <path d="M860.156 459.331L900.553 439.909L934.218 462.073L890.195 483.462L860.156 459.331Z" fill="#242424" />
    <path d="M680.956 515.272L779.878 471.397L918.681 578.342L818.204 626.604L680.956 515.272Z" fill="#242424" />
    <path d="M800.467 525.88L899.635 482.655L1013.98 572.858L933.182 610.151L800.467 525.88Z" fill="#242424" />
    <path d="M938.233 521.449L1059.04 466.461L1124.29 521.449L1012.42 572.858L938.233 521.449Z" fill="#242424" />
    <path d="M1009.52 517.951L1132.06 464.816L1187.48 523.498L1083.71 569.359L1009.52 517.951Z" fill="#242424" />
    <path d="M1132.06 464.815L1158.48 456.589L1195.25 488.947L1167.28 503.207L1132.06 464.815Z" fill="#242424" />
    <path d="M860.156 606.312L900.553 586.89L934.218 609.054L890.195 630.443L860.156 606.312Z" fill="#242424" />
    <path d="M680.956 487.85L779.878 443.975L918.681 550.92L818.204 599.182L680.956 487.85Z" fill="#242424" />
    <path d="M800.467 498.458L899.635 455.233L1013.98 545.436L933.182 582.729L800.467 498.458Z" fill="#242424" />
    <path d="M938.233 494.028L1059.04 439.039L1124.29 494.028L1012.42 545.436L938.233 494.028Z" fill="#242424" />
    <path d="M1009.52 490.529L1132.06 437.394L1187.48 496.076L1083.71 541.938L1009.52 490.529Z" fill="#242424" />
    <path d="M1132.06 437.394L1158.48 429.167L1195.25 461.526L1167.28 475.785L1132.06 437.394Z" fill="#242424" />
    <path d="M860.156 578.89L900.553 559.468L934.218 581.632L890.195 603.021L860.156 578.89Z" fill="#242424" />
    <path d="M680.956 634.831L779.878 590.956L918.681 697.901L818.204 746.164L680.956 634.831Z" fill="#242424" />
    <path d="M800.467 645.439L899.635 602.214L1013.98 692.417L933.182 729.711L800.467 645.439Z" fill="#242424" />
    <path d="M938.233 641.009L1059.04 586.02L1124.29 641.009L1012.42 692.417L938.233 641.009Z" fill="#242424" />
    <path d="M1009.52 637.511L1132.06 584.375L1187.48 643.057L1083.71 688.919L1009.52 637.511Z" fill="#242424" />
    <path d="M1132.06 584.375L1158.48 576.148L1195.25 608.507L1167.28 622.766L1132.06 584.375Z" fill="#242424" />
    <path d="M860.156 725.872L900.553 706.449L934.218 728.614L890.195 750.003L860.156 725.872Z" fill="#242424" />
    <path d="M693.956 700.643L792.878 656.768L931.681 763.713L831.204 811.976L693.956 700.643Z" fill="#242424" />
    <path d="M813.467 711.251L912.635 668.027L1026.98 758.229L946.182 795.523L813.467 711.251Z" fill="#242424" />
    <path d="M951.233 706.821L1072.04 651.832L1137.29 706.821L1025.42 758.229L951.233 706.821Z" fill="#242424" />
    <path d="M1022.52 703.323L1145.06 650.187L1200.48 708.869L1096.71 754.731L1022.52 703.323Z" fill="#242424" />
    <path d="M1145.06 650.187L1171.48 641.96L1208.25 674.319L1180.28 688.578L1145.06 650.187Z" fill="#242424" />
    <path d="M873.156 791.684L913.553 772.261L947.218 794.426L903.195 815.815L873.156 791.684Z" fill="#242424" />
    <g filter="url(#filter3_d)">
        <path d="M1127.61 79.813L1223.11 35.938L1357.11 142.883L1260.11 191.146L1127.61 79.813Z" fill="#242424" />
        <path d="M1242.99 90.4213L1338.73 47.1965L1449.11 137.399L1371.11 174.693L1242.99 90.4213Z" fill="#242424" />
        <path d="M1375.99 85.9908L1492.61 31.0022L1555.61 85.9908L1447.61 137.399L1375.99 85.9908Z" fill="#242424" />
        <path d="M1300.61 170.854L1339.61 151.431L1372.11 173.596L1329.61 194.985L1300.61 170.854Z" fill="#242424" />
    </g>
    <path d="M1109.79 137.947L1208.72 94.0724L1347.52 201.018L1247.04 249.28L1109.79 137.947Z" fill="#242424" />
    <path d="M1229.3 148.555L1328.47 105.331L1442.81 195.533L1362.02 232.827L1229.3 148.555Z" fill="#242424" />
    <path d="M1367.07 144.125L1487.87 89.1363L1553.13 144.125L1441.26 195.533L1367.07 144.125Z" fill="#242424" />
    <path d="M1438.35 140.627L1560.9 87.4911L1616.32 146.173L1512.54 192.035L1438.35 140.627Z" fill="#242424" />
    <path d="M1288.99 228.988L1329.39 209.565L1363.06 231.73L1319.03 253.119L1288.99 228.988Z" fill="#242424" />
    <path d="M1109.79 190.597L1208.72 146.722L1347.52 253.668L1247.04 301.93L1109.79 190.597Z" fill="#242424" />
    <path d="M1229.3 201.205L1328.47 157.981L1442.81 248.183L1362.02 285.477L1229.3 201.205Z" fill="#242424" />
    <path d="M1367.07 196.775L1487.87 141.786L1553.13 196.775L1441.26 248.183L1367.07 196.775Z" fill="#242424" />
    <path d="M1438.35 193.277L1560.9 140.141L1616.32 198.823L1512.54 244.685L1438.35 193.277Z" fill="#242424" />
    <path d="M1288.99 281.638L1329.39 262.215L1363.06 284.38L1319.03 305.769L1288.99 281.638Z" fill="#242424" />
    <path d="M1109.79 303.575L1208.72 259.7L1347.52 366.645L1247.04 414.908L1109.79 303.575Z" fill="#242424" />
    <path d="M1229.3 314.183L1328.47 270.959L1442.81 361.161L1362.02 398.455L1229.3 314.183Z" fill="#242424" />
    <path d="M1367.07 309.753L1487.87 254.764L1553.13 309.753L1441.26 361.161L1367.07 309.753Z" fill="#242424" />
    <path d="M1438.35 306.255L1560.9 253.119L1616.32 311.801L1512.54 357.663L1438.35 306.255Z" fill="#242424" />
    <path d="M1288.99 394.616L1329.39 375.193L1363.06 397.358L1319.03 418.747L1288.99 394.616Z" fill="#242424" />
    <path d="M1109.79 423.134L1208.72 379.259L1347.52 486.204L1247.04 534.467L1109.79 423.134Z" fill="#242424" />
    <path d="M1229.3 433.742L1328.47 390.518L1442.81 480.72L1362.02 518.014L1229.3 433.742Z" fill="#242424" />
    <path d="M1367.07 429.312L1487.87 374.323L1553.13 429.312L1441.26 480.72L1367.07 429.312Z" fill="#242424" />
    <path d="M1438.35 425.814L1560.9 372.678L1616.32 431.36L1512.54 477.222L1438.35 425.814Z" fill="#242424" />
    <path d="M1288.99 514.175L1329.39 494.752L1363.06 516.917L1319.03 538.306L1288.99 514.175Z" fill="#242424" />
    <path d="M1109.79 570.115L1208.72 526.24L1347.52 633.186L1247.04 681.448L1109.79 570.115Z" fill="#242424" />
    <path d="M1229.3 580.723L1328.47 537.499L1442.81 627.701L1362.02 664.995L1229.3 580.723Z" fill="#242424" />
    <path d="M1367.07 576.293L1487.87 521.304L1553.13 576.293L1441.26 627.701L1367.07 576.293Z" fill="#242424" />
    <path d="M1438.35 572.795L1560.9 519.659L1616.32 578.341L1512.54 624.203L1438.35 572.795Z" fill="#242424" />
    <path d="M1288.99 661.156L1329.39 641.733L1363.06 663.898L1319.03 685.287L1288.99 661.156Z" fill="#242424" />
    <path d="M1109.79 244.344L1208.72 200.469L1347.52 307.414L1247.04 355.677L1109.79 244.344Z" fill="#242424" />
    <path d="M1229.3 254.952L1328.47 211.727L1442.81 301.93L1362.02 339.223L1229.3 254.952Z" fill="#242424" />
    <path d="M1367.07 250.522L1487.87 195.533L1553.13 250.522L1441.26 301.93L1367.07 250.522Z" fill="#242424" />
    <path d="M1438.35 247.024L1560.9 193.888L1616.32 252.57L1512.54 298.432L1438.35 247.024Z" fill="#242424" />
    <path d="M1288.99 335.385L1329.39 315.962L1363.06 338.127L1319.03 359.516L1288.99 335.385Z" fill="#242424" />
    <path d="M1109.79 357.322L1208.72 313.447L1347.52 420.392L1247.04 468.655L1109.79 357.322Z" fill="#242424" />
    <path d="M1229.3 367.93L1328.47 324.705L1442.81 414.908L1362.02 452.202L1229.3 367.93Z" fill="#242424" />
    <path d="M1367.07 363.5L1487.87 308.511L1553.13 363.5L1441.26 414.908L1367.07 363.5Z" fill="#242424" />
    <path d="M1438.35 360.002L1560.9 306.866L1616.32 365.548L1512.54 411.41L1438.35 360.002Z" fill="#242424" />
    <path d="M1288.99 448.363L1329.39 428.94L1363.06 451.105L1319.03 472.494L1288.99 448.363Z" fill="#242424" />
    <path d="M1109.79 504.303L1208.72 460.428L1347.52 567.373L1247.04 615.635L1109.79 504.303Z" fill="#242424" />
    <path d="M1229.3 514.911L1328.47 471.686L1442.81 561.889L1362.02 599.182L1229.3 514.911Z" fill="#242424" />
    <path d="M1367.07 510.481L1487.87 455.492L1553.13 510.481L1441.26 561.889L1367.07 510.481Z" fill="#242424" />
    <path d="M1438.35 506.983L1560.9 453.847L1616.32 512.529L1512.54 558.391L1438.35 506.983Z" fill="#242424" />
    <path d="M1288.99 595.344L1329.39 575.921L1363.06 598.086L1319.03 619.475L1288.99 595.344Z" fill="#242424" />
    <path d="M1109.79 476.881L1208.72 433.006L1347.52 539.951L1247.04 588.214L1109.79 476.881Z" fill="#242424" />
    <path d="M1229.3 487.489L1328.47 444.265L1442.81 534.467L1362.02 571.761L1229.3 487.489Z" fill="#242424" />
    <path d="M1367.07 483.059L1487.87 428.07L1553.13 483.059L1441.26 534.467L1367.07 483.059Z" fill="#242424" />
    <path d="M1438.35 479.561L1560.9 426.425L1616.32 485.107L1512.54 530.969L1438.35 479.561Z" fill="#242424" />
    <path d="M1288.99 567.922L1329.39 548.499L1363.06 570.664L1319.03 592.053L1288.99 567.922Z" fill="#242424" />
    <path d="M1109.79 623.862L1208.72 579.987L1347.52 686.932L1247.04 735.195L1109.79 623.862Z" fill="#242424" />
    <path d="M1229.3 634.47L1328.47 591.246L1442.81 681.448L1362.02 718.742L1229.3 634.47Z" fill="#242424" />
    <path d="M1367.07 630.04L1487.87 575.051L1553.13 630.04L1441.26 681.448L1367.07 630.04Z" fill="#242424" />
    <path d="M1438.35 626.542L1560.9 573.406L1616.32 632.088L1512.54 677.95L1438.35 626.542Z" fill="#242424" />
    <path d="M1288.99 714.903L1329.39 695.48L1363.06 717.645L1319.03 739.034L1288.99 714.903Z" fill="#242424" />
    <path d="M1122.79 689.674L1221.72 645.799L1360.52 752.745L1260.04 801.007L1122.79 689.674Z" fill="#242424" />
    <path d="M1242.3 700.283L1341.47 657.058L1455.81 747.26L1375.02 784.554L1242.3 700.283Z" fill="#242424" />
    <path d="M1380.07 695.852L1500.87 640.864L1566.13 695.852L1454.26 747.26L1380.07 695.852Z" fill="#242424" />
    <path d="M1301.99 780.715L1342.39 761.293L1376.06 783.457L1332.03 804.846L1301.99 780.715Z" fill="#242424" />
    <defs>
        <filter id="filter0_d" x="-132.386" y="46.3585" width="524.5" height="227.854" filterUnits="userSpaceOnUse" color-interpolation-filters="sRGB">
            <feFlood flood-opacity="0" result="BackgroundImageFix" />
            <feColorMatrix in="SourceAlpha" type="matrix" values="0 0 0 0 0 0 0 0 0 0 0 0 0 0 0 0 0 0 127 0" />
            <feOffset dx="22" dy="48" />
            <feGaussianBlur stdDeviation="3" />
            <feColorMatrix type="matrix" values="0 0 0 0 0 0 0 0 0 0 0 0 0 0 0 0 0 0 0.25 0" />
            <feBlend mode="normal" in2="BackgroundImageFix" result="effect1_dropShadow" />
            <feBlend mode="normal" in="SourceGraphic" in2="effect1_dropShadow" result="shape" />
        </filter>
        <filter id="filter1_d" x="303.614" y="32.0991" width="524.5" height="227.854" filterUnits="userSpaceOnUse" color-interpolation-filters="sRGB">
            <feFlood flood-opacity="0" result="BackgroundImageFix" />
            <feColorMatrix in="SourceAlpha" type="matrix" values="0 0 0 0 0 0 0 0 0 0 0 0 0 0 0 0 0 0 127 0" />
            <feOffset dx="22" dy="48" />
            <feGaussianBlur stdDeviation="3" />
            <feColorMatrix type="matrix" values="0 0 0 0 0 0 0 0 0 0 0 0 0 0 0 0 0 0 0.25 0" />
            <feBlend mode="normal" in2="BackgroundImageFix" result="effect1_dropShadow" />
            <feBlend mode="normal" in="SourceGraphic" in2="effect1_dropShadow" result="shape" />
        </filter>
        <filter id="filter2_d" x="713.614" y="32.0991" width="524.5" height="227.854" filterUnits="userSpaceOnUse" color-interpolation-filters="sRGB">
            <feFlood flood-opacity="0" result="BackgroundImageFix" />
            <feColorMatrix in="SourceAlpha" type="matrix" values="0 0 0 0 0 0 0 0 0 0 0 0 0 0 0 0 0 0 127 0" />
            <feOffset dx="22" dy="48" />
            <feGaussianBlur stdDeviation="3" />
            <feColorMatrix type="matrix" values="0 0 0 0 0 0 0 0 0 0 0 0 0 0 0 0 0 0 0.25 0" />
            <feBlend mode="normal" in2="BackgroundImageFix" result="effect1_dropShadow" />
            <feBlend mode="normal" in="SourceGraphic" in2="effect1_dropShadow" result="shape" />
        </filter>
        <filter id="filter3_d" x="1127.61" y="21.1305" width="524.5" height="227.854" filterUnits="userSpaceOnUse" color-interpolation-filters="sRGB">
            <feFlood flood-opacity="0" result="BackgroundImageFix" />
            <feColorMatrix in="SourceAlpha" type="matrix" values="0 0 0 0 0 0 0 0 0 0 0 0 0 0 0 0 0 0 127 0" />
            <feOffset dx="22" dy="48" />
            <feGaussianBlur stdDeviation="3" />
            <feColorMatrix type="matrix" values="0 0 0 0 0 0 0 0 0 0 0 0 0 0 0 0 0 0 0.25 0" />
            <feBlend mode="normal" in2="BackgroundImageFix" result="effect1_dropShadow" />
            <feBlend mode="normal" in="SourceGraphic" in2="effect1_dropShadow" result="shape" />
        </filter>
    </defs>
</svg>
