<svg width="50" height="50" viewBox="0 0 50 50" fill="none" xmlns="http://www.w3.org/2000/svg">
<path d="M25 0C11.1925 0 0 11.1925 0 25C0 38.8075 11.1925 50 25 50C38.8075 50 50 38.8075 50 25C50 11.1925 38.8075 0 25 0Z" fill="url(#paint0_linear)"/>
<path d="M28.3838 31.6259H34.8538L35.87 25.0534H28.3838V21.4609C28.3838 18.7309 29.2763 16.3096 31.83 16.3096H35.9338V10.5746C35.2125 10.4771 33.6875 10.2646 30.8063 10.2646C24.7888 10.2646 21.2613 13.4421 21.2613 20.6821V25.0546H15.075V31.6271H21.26V49.6922C22.485 49.8746 23.7263 49.9996 25 49.9996C26.1513 49.9996 27.275 49.8946 28.3838 49.7447V31.6259Z" fill="white"/>
<defs>
<linearGradient id="paint0_linear" x1="7.49125" y1="7.49125" x2="45.7687" y2="45.7687" gradientUnits="userSpaceOnUse">
<stop stop-color="#2AA4F4"/>
<stop offset="1" stop-color="#007AD9"/>
</linearGradient>
</defs>
</svg>
