<?xml version="1.0" encoding="UTF-8"?><svg xmlns="http://www.w3.org/2000/svg" viewBox="0 0 216.982 474.561" x="0px" y="0px" width="217px" height="475px" xmlns:xlink="http://www.w3.org/1999/xlink" version="1.1"><title>happy_tree</title><g id="Layer_2" data-name="Layer 2"><g id="happy_tree"><path d="M216.882,373.65c-5.7-36.1-12.6-63.7-19.3-84.5a3.146,3.146,0,0,1,2-3.9,3.083,3.083,0,0,1,1.9,0c2.3.8,4.4,1.4,6.1,1.9a3.121,3.121,0,0,0,3.9-2.1,3.812,3.812,0,0,0,.1-1.5c-11.4-56.3-24.3-98.9-34.6-127.6a3.158,3.158,0,0,1,1.9-4,3.75,3.75,0,0,1,2.1,0l6.3,2.1a3.146,3.146,0,0,0,3.9-2,3.083,3.083,0,0,0,0-1.9c-12.6-38.3-23.4-69.9-36.1-94.1a3.131,3.131,0,0,1,1.3-4.2,2.492,2.492,0,0,1,1.7-.3h.2a3.2,3.2,0,0,0,3.4-2.8,2.635,2.635,0,0,0-.6-2.1c-20.9-28.3-35.6-41.7-40.7-45.9a3.041,3.041,0,0,0-4,0c-8.1,6.8-39.1,36-65,102.5a3.129,3.129,0,0,0,4.3,3.9l3.5-1.7a3.112,3.112,0,0,1,4.1,1.4,3.417,3.417,0,0,1,0,2.8c-12.6,24.4-33.9,72.6-51,145.8a3.025,3.025,0,0,0,2.3,3.7,3.3,3.3,0,0,0,1.4,0c1.3-.3,2.8-.6,4.5-1a3.1,3.1,0,0,1,3.7,2.3,3.219,3.219,0,0,1-.1,1.7,605.069,605.069,0,0,0-24,85.4,3.088,3.088,0,0,0,2.4,3.7,2.854,2.854,0,0,0,1.3,0c3-.7,7.3-1.7,12.3-3a3.111,3.111,0,0,1,3.8,2.2,3.4,3.4,0,0,1,.1,1c-1,10.4-1.8,21.4-2.5,33.1a3.123,3.123,0,0,0,2.9,3.3h.4a164.844,164.844,0,0,0,25.2-3.8,3.126,3.126,0,0,1,3.8,2.3v.2a167.224,167.224,0,0,0,4.3,18.6,3.158,3.158,0,0,0,3.9,2.1.758.758,0,0,0,.4-.2c9.9-4.6,19.3-9.2,28.4-13.7a3.178,3.178,0,0,1,1.4-.2s.1-.6,1.5.3h-.3c.2.1.3.2.5.3l1.3,1,.1.1h0a248.22,248.22,0,0,0,29.8,18.7,3.131,3.131,0,0,0,4.2-1.3c.1-.1.1-.3.2-.4,2.4-6.6,4.8-13,6.9-19.4a3.05,3.05,0,0,1,3.9-1.9h.1c.7.3,1.4.5,2.1.8,17.1,6.3,35.3,9.9,43.2,11.3a3.081,3.081,0,0,0,3.6-2.5c0-.3.1-.6,0-.8-.7-7.2-1.4-14.3-2.2-21.2a3.05,3.05,0,0,1,2.7-3.4h.9a155.067,155.067,0,0,0,27.2,2.1,3.116,3.116,0,0,0,3.1-3.1C216.982,373.95,216.882,373.85,216.882,373.65Z" fill="#ffb400"/><path d="M132.382,392.75c-2.2,6.3-4.5,12.8-6.9,19.4a3.107,3.107,0,0,1-4,1.8.758.758,0,0,1-.4-.2,232.545,232.545,0,0,1-31.1-19.6,2.186,2.186,0,0,0-.5-.3,12.213,12.213,0,0,0,2.6-.6,15.059,15.059,0,0,0,5-3.1,13.655,13.655,0,0,0,1.9-2.3h0a1.884,1.884,0,0,0,.2-.8,1.316,1.316,0,0,0-1.5-1.3h0a10.239,10.239,0,0,0-3,.8,12.75,12.75,0,0,0-2.5,1.5c-.8.6-1.5,1.2-2.2,1.8a13.655,13.655,0,0,0-1.9,2.3h0a1.421,1.421,0,0,0-.2.6,1.216,1.216,0,0,0,1.2,1.2h.4l-4.3,68.8a9.608,9.608,0,0,0,7.6,9.9,117.164,117.164,0,0,0,21.3,1.9,101.109,101.109,0,0,0,21.3-1.9,9.466,9.466,0,0,0,7.6-9.9l-4.4-71c-.7-.3-1.4-.5-2.1-.8a3.107,3.107,0,0,0-4,1.8Z" fill="#f04e23"/><path d="M131.882,178.05c.7.7,1.5,1.4,2.3,2.1s1.6,1.3,2.4,1.9c1.6,1.2,3.3,2.3,5,3.4a54.49,54.49,0,0,0,5.3,2.9,2.353,2.353,0,0,0,.8.2,2.506,2.506,0,0,0,2.6-2.2h0a63.244,63.244,0,0,0-.3-12.3c-.3-2-.7-4-1.1-6a31.558,31.558,0,0,0-2-5.9,1.32,1.32,0,0,0-1.7-.6,1.213,1.213,0,0,0-.7,1.2v.1c.2,1.9.5,3.9.6,5.8a28.252,28.252,0,0,1,.2,2.9c.1,1,.1,1.9.2,2.9.1,1.9.1,3.9.2,5.8v2.1l-1.8-.9c-1.7-.9-3.4-1.8-5-2.8a42.151,42.151,0,0,1-9-6.7h0a1.087,1.087,0,0,0-1.5,0,1.063,1.063,0,0,0-.2,1.2A21.782,21.782,0,0,0,131.882,178.05Z" fill="#f04e23"/><path d="M170.182,310.15q-.6-3.75-1.5-7.5a61.816,61.816,0,0,0-2.3-7.3,62.862,62.862,0,0,0-3.2-7,1.26,1.26,0,0,0-2.3,1v.1c.7,2.3,1.3,4.7,1.9,7,.3,1.2.5,2.4.8,3.6s.5,2.4.7,3.6c.5,2.4.8,4.8,1.2,7.2.2,1.2.3,2.4.4,3.6l-3.3-1.2c-2-.8-3.9-1.6-5.8-2.4l-.6-.3-.2-.1c-4.3-2-8.6-4.1-12.2-7.1h0a1.093,1.093,0,0,0-1.5.1,1.051,1.051,0,0,0,0,1.3,27,27,0,0,0,5.5,5.2,28.24,28.24,0,0,0,3.1,2.1c1,.6,2.1,1.3,3.3,1.9l.4.2c0,1.1-.1,2.2-.1,3.3a28.252,28.252,0,0,1-.2,2.9c-.1,1-.1,1.9-.2,2.9-.2,1.9-.4,3.8-.7,5.8l-.3,2.1-1.6-1.2c-1.5-1.1-3.1-2.3-4.6-3.5a46.033,46.033,0,0,1-8-7.9h0a1.084,1.084,0,0,0-1.5-.2.954.954,0,0,0-.3,1.2,24.335,24.335,0,0,0,3.1,5.4c.6.8,1.3,1.6,1.9,2.4.7.7,1.4,1.5,2.1,2.2a59.248,59.248,0,0,0,4.5,4.1c1.6,1.3,3.2,2.5,4.9,3.7a1.135,1.135,0,0,0,.8.3,2.311,2.311,0,0,0,2.8-1.8v-.1a62.619,62.619,0,0,0,1.5-12.2,60.779,60.779,0,0,0-.3-6.1,5.9,5.9,0,0,0-.2-1.4c.9.4,1.8.9,2.8,1.3,2.3,1,4.6,1.9,7,2.7a2.769,2.769,0,0,0,.9.1,2.351,2.351,0,0,0,2.2-2.5h0v-.1C170.782,315.15,170.582,312.65,170.182,310.15Z" fill="#f04e23"/><path d="M93.482,341.15a30.9,30.9,0,0,0,1.8-5.1,1.411,1.411,0,0,0-.8-1.5,1.329,1.329,0,0,0-1.7.7v.1a19.987,19.987,0,0,1-1,2.1l-1.2,2.1c-.8,1.4-1.8,2.8-2.7,4.1a56.5,56.5,0,0,1-6.5,7.3c-1.2,1.1-2.4,2.2-3.7,3.3-1.2,1-2.6,2-3.9,3-1.9,1.3-3.8,2.5-5.8,3.7-.1-.6-.3-1.2-.4-1.7-.4-1.6-.8-3.2-1.1-4.7q-1.05-4.8-1.8-9.6a78.127,78.127,0,0,1-1-9.6,51.387,51.387,0,0,1,.3-9.6h0a1.033,1.033,0,0,0-.9-1.2.921.921,0,0,0-1.1.7,42.586,42.586,0,0,0-1.6,10.1,43.388,43.388,0,0,0,0,5.1c.1,1.7.1,3.4.3,5,.3,3.3.8,6.7,1.3,10,.6,3.3,1.3,6.5,2.2,9.8a.52.52,0,0,0,.2.4,2.455,2.455,0,0,0,3.2,1.1h.1a63.709,63.709,0,0,0,9-5.5,59.217,59.217,0,0,0,8-6.9c1.2-1.3,2.4-2.6,3.5-4a42.7,42.7,0,0,0,3-4.4C91.982,344.35,92.782,342.75,93.482,341.15Z" fill="#f04e23"/><path d="M87.082,92.15h.1a32.934,32.934,0,0,0,4.4-1.6,5.019,5.019,0,0,0-.2,1.2,20.024,20.024,0,0,0-.4,2.4,40.279,40.279,0,0,0-.3,4.9c0,1.7,0,3.3.1,5a2.92,2.92,0,0,0,.2.9,2.455,2.455,0,0,0,3.2,1.1h.1a37.512,37.512,0,0,0,4.4-2.4c1.4-.9,2.8-1.9,4.1-2.9a39.2,39.2,0,0,0,3.7-3.4,30.918,30.918,0,0,0,3.3-3.9,1.378,1.378,0,0,0-.3-1.8,1.362,1.362,0,0,0-1.5,0h-.1c-1.2.9-2.5,1.8-3.8,2.7s-2.6,1.8-3.9,2.6c-1.6,1-3.2,2-4.9,3a2.769,2.769,0,0,0-.1-.9c-.1-1.5-.1-3.1-.2-4.6a58.154,58.154,0,0,1,.2-5.9c.8-.5,1.5-1,2.3-1.5a35.836,35.836,0,0,0,2.9-2.6,1.248,1.248,0,0,0-1.4-2h-.1c-1.1.4-2.2.9-3.3,1.4l-.9.4a.713.713,0,0,0-.6.3c-.6.2-1.2.5-1.8.7-1,.4-2.1.8-3.1,1.2.1-1,.2-2.1.4-3.1s.3-2.3.6-3.4a20.246,20.246,0,0,1,.9-3.3v-.1a.948.948,0,0,0-.7-1.3,1.128,1.128,0,0,0-1.1.3,14.61,14.61,0,0,0-2.2,3.3,14.167,14.167,0,0,0-.8,1.8,13.355,13.355,0,0,0-.7,1.8c-.4,1.2-.7,2.4-1,3.6a21.587,21.587,0,0,0-.6,3.8,2.365,2.365,0,0,0,2.1,2.6,2.935,2.935,0,0,1,1-.3Z" fill="#f04e23"/><path d="M62.082,233.55a1.248,1.248,0,0,0-1.4-2h-.1c-1.1.4-2.2.9-3.3,1.4-1.1.4-2.2.9-3.3,1.3s-2.1.8-3.1,1.2c.1-1,.2-2.1.4-3.1s.3-2.3.6-3.4a20.246,20.246,0,0,1,.9-3.3v-.1a.948.948,0,0,0-.7-1.3,1.128,1.128,0,0,0-1.1.3,14.61,14.61,0,0,0-2.2,3.3,14.167,14.167,0,0,0-.8,1.8c-.2.6-.5,1.2-.7,1.8-.4,1.2-.7,2.4-1,3.6a21.587,21.587,0,0,0-.6,3.8,2.365,2.365,0,0,0,2.1,2.6,2.769,2.769,0,0,0,.9-.1h.1a34.126,34.126,0,0,0,7.1-2.9,30.244,30.244,0,0,0,3.3-2.1C60.182,235.35,61.182,234.45,62.082,233.55Z" fill="#f04e23"/><path d="M125.982,269.55c11.7,0,21.1-10.4,21.1-21.1h-42.3C104.882,259.25,114.382,269.55,125.982,269.55Z" fill="#10294c"/><path d="M143.282,51.75a11.947,11.947,0,0,0,2.6,1.1,12.816,12.816,0,0,0,2.7.5,7.774,7.774,0,0,0,3-.4,2.092,2.092,0,0,0,.6-.4,1.418,1.418,0,0,0-.1-2l-.2-.2a7.9,7.9,0,0,0-2.3-1.4,18.285,18.285,0,0,0-2.5-.8,23.356,23.356,0,0,0-2.6-.4,9.467,9.467,0,0,0-2.9.2h0a.55.55,0,0,0-.5.3,1.238,1.238,0,0,0-.1,1.7h0A13.015,13.015,0,0,0,143.282,51.75Z" fill="#f04e23"/><path d="M31.482,343.95h0a11.451,11.451,0,0,0-3.2.1,24.6,24.6,0,0,0-2.9.7,13.9,13.9,0,0,0-2.8,1.2,10.267,10.267,0,0,0-2.6,1.9.864.864,0,0,0-.3.6,1.3,1.3,0,0,0,.9,1.4h0a12.173,12.173,0,0,0,3.3.1,16.96,16.96,0,0,0,3.1-.6,14.763,14.763,0,0,0,2.9-1.2,10.267,10.267,0,0,0,2.6-1.9,2.01,2.01,0,0,0,.4-.8,1.6,1.6,0,0,0-1.4-1.5Z" fill="#f04e23"/><path d="M191.882,279.65a24.062,24.062,0,0,0-6.8-2.9,15.684,15.684,0,0,0-3.7-.5h0a1.284,1.284,0,0,0-1,.4,1.519,1.519,0,0,0,0,2,11.911,11.911,0,0,0,3.1,2.3c1.1.6,2.2,1.1,3.3,1.6a35.8,35.8,0,0,0,3.5,1.1,15.684,15.684,0,0,0,3.7.5h0a1.278,1.278,0,0,0,1.2-1.1.908.908,0,0,0-.3-.7A12.67,12.67,0,0,0,191.882,279.65Z" fill="#f04e23"/><path d="M97.482,216.25c-6.1,0-6.7,5.7-6.7,12.8s.1,12.8,6.7,12.8,6.7-5.7,6.7-12.8S103.582,216.25,97.482,216.25Zm3.1,18a4.532,4.532,0,0,1-1.1,1.9,1.4,1.4,0,0,1-1.9.2l-.2-.2a7.24,7.24,0,0,1-1.1-1.9,6.279,6.279,0,0,1-.3-1.9,6.154,6.154,0,0,1,.2-1.9,4.351,4.351,0,0,1,1-1.9,1.716,1.716,0,0,1,2.3-.3h0l.2.2a4.981,4.981,0,0,1,1,1.9,6.154,6.154,0,0,1,.2,1.9A6.929,6.929,0,0,1,100.582,234.25Z" fill="#10294c"/><path d="M99.782,228.45c-.1-.1-.1-.2-.2-.2a1.607,1.607,0,0,0-2.3.2h0a4.981,4.981,0,0,0-1,1.9,6.154,6.154,0,0,0-.2,1.9,5.822,5.822,0,0,0,.3,1.9,4.532,4.532,0,0,0,1.1,1.9c0,.1.1.1.2.2a1.309,1.309,0,0,0,1.9-.2,7.24,7.24,0,0,0,1.1-1.9,6.279,6.279,0,0,0,.3-1.9,6.154,6.154,0,0,0-.2-1.9A6.916,6.916,0,0,0,99.782,228.45Z" fill="#fff"/><path d="M146.982,229.05c0,7.1.1,12.8,6.7,12.8s6.7-5.7,6.7-12.8-.6-12.8-6.7-12.8S146.982,221.95,146.982,229.05Zm5.5,1.3a4.351,4.351,0,0,1,1-1.9,1.716,1.716,0,0,1,2.3-.3h0l.2.2a4.981,4.981,0,0,1,1,1.9,6.154,6.154,0,0,1,.2,1.9,5.822,5.822,0,0,1-.3,1.9,4.532,4.532,0,0,1-1.1,1.9,1.4,1.4,0,0,1-1.9.2c-.1,0-.1-.1-.2-.2a7.24,7.24,0,0,1-1.1-1.9,6.279,6.279,0,0,1-.3-1.9A3.851,3.851,0,0,1,152.482,230.35Z" fill="#10294c"/><path d="M153.682,236.15c0,.1.1.1.2.2a1.309,1.309,0,0,0,1.9-.2,7.24,7.24,0,0,0,1.1-1.9,6.279,6.279,0,0,0,.3-1.9,6.154,6.154,0,0,0-.2-1.9,4.351,4.351,0,0,0-1-1.9l-.2-.2a1.607,1.607,0,0,0-2.3.2h0a6.916,6.916,0,0,0-1,1.9,6.154,6.154,0,0,0-.2,1.9,5.822,5.822,0,0,0,.3,1.9A5.243,5.243,0,0,0,153.682,236.15Z" fill="#fff"/><path d="M110.382,441.95a1.085,1.085,0,0,0-.8-.8,1.262,1.262,0,0,0-1.7.8,21.624,21.624,0,0,0-1,4.4,31.678,31.678,0,0,0-.2,4.4,32.529,32.529,0,0,0,.3,4.4,23.61,23.61,0,0,0,1.1,4.4,1.081,1.081,0,0,0,1.4.7,1.575,1.575,0,0,0,.7-.7,21.806,21.806,0,0,0,1.1-4.4,31.453,31.453,0,0,0,.3-4.4,32.4,32.4,0,0,0-.2-4.4A28.382,28.382,0,0,0,110.382,441.95Z" fill="#10294c"/><path d="M102.682,413.95a1.552,1.552,0,0,0-2.1-.5,1.205,1.205,0,0,0-.5.5,7.2,7.2,0,0,0-1,2.4,10.567,10.567,0,0,0,0,5,7.714,7.714,0,0,0,1,2.5,1.188,1.188,0,0,0,1.7.4c.1-.1.3-.2.4-.4a7.956,7.956,0,0,0,1.1-2.5,21.656,21.656,0,0,0,.4-2.5,10.554,10.554,0,0,0-.2-2.5A7.543,7.543,0,0,0,102.682,413.95Z" fill="#10294c"/><path d="M132.682,435.25a2.107,2.107,0,0,0-2.6.1,3.045,3.045,0,0,0-.9,1.3,2.462,2.462,0,0,0-.1,1.2,5.638,5.638,0,0,0,.4,1.2,4.263,4.263,0,0,0,1.1,1.2,1.807,1.807,0,0,0,2.1-.1,3.249,3.249,0,0,0,1-1.3,2.55,2.55,0,0,0,0-2.4A2.94,2.94,0,0,0,132.682,435.25Z" fill="#10294c"/><path d="M97.682,446.95a1.982,1.982,0,0,0-2.5-.3,5.731,5.731,0,0,0-1.1,1.1,2.663,2.663,0,0,0-.3,1.2,5.019,5.019,0,0,0,.2,1.2,3.045,3.045,0,0,0,.9,1.3,1.808,1.808,0,0,0,2.1.2,4.263,4.263,0,0,0,1.2-1.1,6.117,6.117,0,0,0,.5-1.2,2.462,2.462,0,0,0-.1-1.2A9.382,9.382,0,0,0,97.682,446.95Z" fill="#10294c"/></g></g></svg>