<?xml version="1.0" encoding="UTF-8"?><svg xmlns="http://www.w3.org/2000/svg" viewBox="0 0 136.3 199.755" x="0px" y="0px" width="137px" height="200px" version="1.1" xmlns:xlink="http://www.w3.org/1999/xlink"><title>happy_little_tree</title><g id="Layer_2" data-name="Layer 2"><g id="happy_little_tree"><path d="M80,181.08c-15.4-3.5-27-12-32.2-15.4a1.655,1.655,0,0,0-2,.1l-1,.7c-.1,1.4-.1,2.8-.2,4.1-.1,3.8-.3,7.2-.4,10.3s-.1,5.7-.2,7.9v.1a9.987,9.987,0,0,0,8.2,9.9,95.339,95.339,0,0,0,27.2,0,9.987,9.987,0,0,0,8.2-9.9v-.2c0-2.2-.1-4.9-.2-7.9q-.15-3.3-.3-7.2a54.36,54.36,0,0,1-5.6,6.9A1.361,1.361,0,0,1,80,181.08Z" fill="#ffb400"/><path d="M136.3,109.98c-6.7-25.7-15.6-45.9-24.7-61.6a1.726,1.726,0,0,1,.7-2.4,1.445,1.445,0,0,1,.7-.2h.1a1.67,1.67,0,0,0,1.5-2,.908.908,0,0,0-.3-.7C94.8,12.68,76.9,3.18,69.7.48a7.019,7.019,0,0,0-6.3.6c-9.7,5.6-41.1,27.2-59.8,78.2a1.857,1.857,0,0,0,1,2.3,2.769,2.769,0,0,0,.9.1c1.9-.3,4.6-.8,7.5-1.5h0a11.518,11.518,0,0,0,2.1-.6,4.349,4.349,0,0,1-.6.7h0a1.051,1.051,0,0,1-1.3,0c0,.1,0,.1-.1.2h0S.3,108.28,0,155.28a1.774,1.774,0,0,0,1.7,1.8h.2q6.45-.6,12.9-1.8a1.764,1.764,0,0,1,2,1.1c2.4,6.5,5.1,13.3,8.2,20.3a1.721,1.721,0,0,0,2.3.9.1.1,0,0,0,.1-.1,175.528,175.528,0,0,0,17.4-11l1-.7a1.822,1.822,0,0,1,2-.1c5.2,3.3,16.8,11.9,32.2,15.4a1.845,1.845,0,0,0,1.6-.5,60.367,60.367,0,0,0,5.6-6.9,102.045,102.045,0,0,0,6.3-10.6,1.709,1.709,0,0,1,2.3-.8c11.2,5.6,29.1,7.4,34.9,7.9a1.781,1.781,0,0,0,1.9-1.6v-.1a254.492,254.492,0,0,0-6-53.6h0c-.8-3.3.8-4.1,3-3.6h0q2.7.6,4.5.9a1.743,1.743,0,0,0,2.1-1.4A2.485,2.485,0,0,0,136.3,109.98Z" fill="#00acdc"/><path d="M100.3,105.18H45.7a4.268,4.268,0,0,0-4.3,4.3v.6c2.4,15,15.6,23.9,31.5,23.9s29.2-8.9,31.5-23.9a4.273,4.273,0,0,0-3.6-4.8A.749.749,0,0,0,100.3,105.18Z" fill="#10294c"/><path d="M53.3,110.08a1.831,1.831,0,0,0,1.8,1.6h4.5a1.831,1.831,0,0,0,1.8-1.6,9.7,9.7,0,0,0,.1-1.7,7.6,7.6,0,0,0-.5-3.3H53.7a8.815,8.815,0,0,0-.4,3.3A4.854,4.854,0,0,0,53.3,110.08Z" fill="#fff"/><path d="M43.8,52.58c-.1.4-.1.8-.2,1.1a31.083,31.083,0,0,0,0,6.1v.1a.764.764,0,0,0,.2.5,1.443,1.443,0,0,0,2.1.6h0a22.606,22.606,0,0,0,2.6-1.6c.8-.6,1.7-1.2,2.4-1.8a21.835,21.835,0,0,0,2.2-2.1,12.029,12.029,0,0,0,1.8-2.6.8.8,0,0,0-.2-1,.744.744,0,0,0-.9.1h0c-.7.6-1.4,1.2-2.1,1.7a18.186,18.186,0,0,1-2.3,1.5c-.8.5-1.6,1-2.4,1.4l-.3.1v-.4a26.152,26.152,0,0,1,0-2.8v-2.9l.1-2.9v-.1a.9.9,0,0,0-.9-.9,1.02,1.02,0,0,0-.8.5c-.4.9-.7,1.9-1,2.8a33.851,33.851,0,0,1-7.6,1.9c-1.4.2-2.8.4-4.2.5l-1.7.2a12.2,12.2,0,0,1,.7-1.7c.6-1.3,1.1-2.6,1.8-3.9.6-1.3,1.3-2.5,1.9-3.8.7-1.3,1.4-2.5,2.1-3.7h0a.954.954,0,0,0-.3-1.2.92.92,0,0,0-1,.1,22.754,22.754,0,0,0-2.9,3.4,30.3,30.3,0,0,0-2.4,3.8,50.242,50.242,0,0,0-3.7,8.2h0a1.268,1.268,0,0,0-.1.6,1.649,1.649,0,0,0,1.7,1.5,31.159,31.159,0,0,0,4.4-.5c1.5-.2,2.9-.5,4.3-.8a29.245,29.245,0,0,0,4.2-1.3A3.334,3.334,0,0,0,43.8,52.58Z" fill="#10294c"/><path d="M114.3,138.78a29.915,29.915,0,0,0-1-4.3,15.047,15.047,0,0,0-1.8-4.1.67.67,0,0,0-.8-.3.608.608,0,0,0-.4.9h0a28.665,28.665,0,0,1,1.3,8.2c.1,1.4.1,2.8.1,4.2v1.7c-.6-.3-1.1-.5-1.6-.8-1.3-.7-2.5-1.4-3.7-2.1s-2.4-1.5-3.6-2.3-2.4-1.6-3.5-2.4h0a.83.83,0,0,0-1.2.2,1.083,1.083,0,0,0,0,1.1,24.958,24.958,0,0,0,3.2,3.3c1.1,1,2.3,1.9,3.5,2.8a30.3,30.3,0,0,0,3.8,2.4c1.3.7,2.7,1.4,4.1,2h0a1.268,1.268,0,0,0,.6.1,1.561,1.561,0,0,0,1.6-1.5h0c0-1.5,0-3-.1-4.4A21.852,21.852,0,0,0,114.3,138.78Z" fill="#10294c"/><path d="M78.4,37.38c.9.4,1.9.8,2.9,1.2,1,.3,2,.6,3,.8s2,.4,3,.5h.1a1.268,1.268,0,0,0,.6-.1,1.6,1.6,0,0,0,1.1-1.9h0c-.3-1-.6-1.9-1-2.9a22.447,22.447,0,0,0-1.3-2.7,22.606,22.606,0,0,0-1.6-2.6,11.5,11.5,0,0,0-2.1-2.3.608.608,0,0,0-.8,0,.751.751,0,0,0-.2,1h0c.5.8.9,1.6,1.3,2.4a20.035,20.035,0,0,1,1,2.6l.9,2.7c0,.1.1.2.1.3l-.4-.1a27.971,27.971,0,0,1-2.8-.6c-.9-.2-1.9-.4-2.8-.6l-2.8-.7h-.1a.832.832,0,0,0-1,.6.806.806,0,0,0,.3.9A9.34,9.34,0,0,0,78.4,37.38Z" fill="#10294c"/><path d="M26.4,136.88h0a17.969,17.969,0,0,1-2,1.9c-.7.6-1.5,1.1-2.2,1.7a18.824,18.824,0,0,1-2.3,1.6l-.3.2v-.4a26.352,26.352,0,0,1-.2-2.8c-.1-.9-.1-1.9-.2-2.9l-.1-2.9v-.1a.76.76,0,0,0-.6-.8.891.891,0,0,0-1.1.5h0c-.3,1-.6,2-.8,3a25.873,25.873,0,0,0,.2,9.2v.1a.764.764,0,0,0,.2.5,1.6,1.6,0,0,0,2.2.5h0a14.371,14.371,0,0,0,2.5-1.8,21.9,21.9,0,0,0,4.3-4.3,13.989,13.989,0,0,0,1.6-2.6.751.751,0,0,0-.4-.9,1.135,1.135,0,0,0-.8.3Z" fill="#10294c"/><path d="M45.7,164.38a8.467,8.467,0,0,0-1.4-1.9,11.37,11.37,0,0,0-1.6-1.5,20.278,20.278,0,0,0-1.8-1.3,12.81,12.81,0,0,0-2-1.1h0a.731.731,0,0,0-1,.4.454.454,0,0,0,0,.5,9.061,9.061,0,0,0,1.1,2.2c.5.6,1,1.2,1.6,1.8a13.3,13.3,0,0,0,1.9,1.4,9.172,9.172,0,0,0,2.3.9.921.921,0,0,0,1.1-.7,6.373,6.373,0,0,1-.2-.7Z" fill="#10294c"/><path d="M14.4,80.28h0a10.991,10.991,0,0,0,1.4-1.8,11.4,11.4,0,0,0,1-1.9,11.919,11.919,0,0,0,.8-2,14.191,14.191,0,0,0,.5-2.2h0a.773.773,0,0,0-.7-.8.9.9,0,0,0-.5.1,5.48,5.48,0,0,0-1.8,1.6,12.735,12.735,0,0,0-1.3,1.9,18.028,18.028,0,0,0-.8,2.1,6.522,6.522,0,0,0-.2,2.4c0,.1.1.3.1.4s.1.1.1.2h0A1.2,1.2,0,0,0,14.4,80.28Z" fill="#10294c"/><path d="M46.2,95.08c7.9,0,8.7-6,8.7-13.4s-1.8-13.4-8.7-13.4-8.7,6-8.7,13.4S38.3,95.08,46.2,95.08Zm.3-21.2a5.381,5.381,0,0,1,1-2,1.7,1.7,0,0,1,2.3-.3l.3.3a5.381,5.381,0,0,1,1,2,6.8,6.8,0,0,1,.2,2,6.448,6.448,0,0,1-.3,2,5.64,5.64,0,0,1-1.1,2,1.309,1.309,0,0,1-1.9.2l-.2-.2a7.814,7.814,0,0,1-1.1-2,6.929,6.929,0,0,1-.3-2,4.441,4.441,0,0,1,.1-2Zm0,10.1a2,2,0,0,1,1-.8,2.967,2.967,0,0,1,2.6,0,3.915,3.915,0,0,1,1,.8,1.077,1.077,0,0,1,.2.8,1.135,1.135,0,0,1-.3.8,3.134,3.134,0,0,1-1.1.8,2.56,2.56,0,0,1-2.1,0,4.44,4.44,0,0,1-1.1-.8,1.135,1.135,0,0,1-.3-.8.8.8,0,0,1,.1-.8Z" fill="#10294c"/><path d="M47.7,79.98l.2.2a1.309,1.309,0,0,0,1.9-.2,7.814,7.814,0,0,0,1.1-2,6.929,6.929,0,0,0,.3-2,6.478,6.478,0,0,0-.2-2,5.381,5.381,0,0,0-1-2l-.3-.3a1.716,1.716,0,0,0-2.3.3,5.381,5.381,0,0,0-1,2,6.8,6.8,0,0,0-.2,2,6.448,6.448,0,0,0,.3,2A13.241,13.241,0,0,0,47.7,79.98Z" fill="#fff"/><path d="M47.7,86.48a2.56,2.56,0,0,0,2.1,0,4.44,4.44,0,0,0,1.1-.8,1.135,1.135,0,0,0,.3-.8,1.077,1.077,0,0,0-.2-.8,2,2,0,0,0-1-.8,2.967,2.967,0,0,0-2.6,0,3.915,3.915,0,0,0-1,.8,1.077,1.077,0,0,0-.2.8,1.909,1.909,0,0,0,.3.8A8.342,8.342,0,0,0,47.7,86.48Z" fill="#fff"/><path d="M99.9,95.08c7.9,0,8.7-6,8.7-13.4s-1.8-13.4-8.7-13.4-8.7,6-8.7,13.4S91.9,95.08,99.9,95.08Zm.2-21.2a5.381,5.381,0,0,1,1-2,1.7,1.7,0,0,1,2.3-.3l.3.3a5.381,5.381,0,0,1,1,2,6.8,6.8,0,0,1,.2,2,6.448,6.448,0,0,1-.3,2,5.64,5.64,0,0,1-1.1,2,1.309,1.309,0,0,1-1.9.2l-.2-.2a7.814,7.814,0,0,1-1.1-2,6.929,6.929,0,0,1-.3-2,6.56,6.56,0,0,1,.1-2Zm0,10.1a2,2,0,0,1,1-.8,2.967,2.967,0,0,1,2.6,0,3.915,3.915,0,0,1,1,.8,1.077,1.077,0,0,1,.2.8,1.135,1.135,0,0,1-.3.8,3.134,3.134,0,0,1-1.1.8,2.56,2.56,0,0,1-2.1,0,4.44,4.44,0,0,1-1.1-.8,1.135,1.135,0,0,1-.3-.8,1.185,1.185,0,0,1,.1-.8Z" fill="#10294c"/><path d="M101.3,79.98l.2.2a1.309,1.309,0,0,0,1.9-.2,7.814,7.814,0,0,0,1.1-2,6.929,6.929,0,0,0,.3-2,6.478,6.478,0,0,0-.2-2,5.381,5.381,0,0,0-1-2l-.3-.3a1.716,1.716,0,0,0-2.3.3,5.381,5.381,0,0,0-1,2,6.8,6.8,0,0,0-.2,2,6.448,6.448,0,0,0,.3,2C100.5,78.68,100.9,79.38,101.3,79.98Z" fill="#fff"/><path d="M101.3,86.48a2.56,2.56,0,0,0,2.1,0,4.44,4.44,0,0,0,1.1-.8,1.135,1.135,0,0,0,.3-.8,1.077,1.077,0,0,0-.2-.8,2,2,0,0,0-1-.8,2.967,2.967,0,0,0-2.6,0,3.915,3.915,0,0,0-1,.8,1.077,1.077,0,0,0-.2.8,1.909,1.909,0,0,0,.3.8C100.6,85.98,100.9,86.28,101.3,86.48Z" fill="#fff"/><path d="M54.5,176.18a1.387,1.387,0,0,0-1.9-.7,1.344,1.344,0,0,0-.7.6,14.763,14.763,0,0,0-1.2,2.9,15.438,15.438,0,0,0-.4,3c0,1,0,2,.1,3a8.507,8.507,0,0,0,.9,3.1,1,1,0,0,0,.4.5,1.156,1.156,0,0,0,1.6-.4h0a10.758,10.758,0,0,0,1.3-2.9,10.474,10.474,0,0,0,.5-3,15.038,15.038,0,0,0,0-3A7.79,7.79,0,0,0,54.5,176.18Z" fill="#f04e23"/><path d="M74.2,187.98a1.749,1.749,0,0,0-2.5.2h0a3.465,3.465,0,0,0-.8,1.6,4.193,4.193,0,0,0-.1,1.6,4.987,4.987,0,0,0,1.7,3,1.559,1.559,0,0,0,2.1-.2,5.071,5.071,0,0,0,.9-1.6,4.145,4.145,0,0,0,.2-1.6,4.013,4.013,0,0,0-.3-1.5C75,188.98,74.6,188.38,74.2,187.98Z" fill="#f04e23"/></g></g></svg>