<svg width="50" height="50" viewBox="0 0 50 50" fill="none" xmlns="http://www.w3.org/2000/svg">
<path d="M25 50C11.195 50 0 38.805 0 25C0 11.195 11.195 0 25 0C38.805 0 50 11.195 50 25C50 38.805 38.805 50 25 50Z" fill="url(#paint0_linear)"/>
<path d="M25 11.0096C29.555 11.0096 30.095 11.0246 31.895 11.1096C33.56 11.1846 34.465 11.4646 35.065 11.6996C35.86 12.0096 36.43 12.3796 37.025 12.9746C37.62 13.5696 37.99 14.1396 38.3 14.9346C38.535 15.5346 38.81 16.4396 38.89 18.1046C38.97 19.9046 38.99 20.4446 38.99 24.9996C38.99 29.5546 38.975 30.0946 38.89 31.8946C38.815 33.5596 38.535 34.4646 38.3 35.0646C37.99 35.8596 37.62 36.4296 37.025 37.0246C36.43 37.6196 35.86 37.9896 35.065 38.2996C34.465 38.5346 33.56 38.8096 31.895 38.8896C30.095 38.9696 29.555 38.9896 25 38.9896C20.445 38.9896 19.905 38.9746 18.105 38.8896C16.44 38.8146 15.535 38.5346 14.935 38.2996C14.14 37.9896 13.57 37.6196 12.975 37.0246C12.38 36.4296 12.01 35.8596 11.7 35.0646C11.465 34.4646 11.19 33.5596 11.11 31.8946C11.03 30.0946 11.01 29.5546 11.01 24.9996C11.01 20.4446 11.025 19.9046 11.11 18.1046C11.185 16.4396 11.465 15.5346 11.7 14.9346C12.01 14.1396 12.38 13.5696 12.975 12.9746C13.57 12.3796 14.14 12.0096 14.935 11.6996C15.535 11.4646 16.44 11.1896 18.105 11.1096C19.905 11.0246 20.445 11.0096 25 11.0096ZM25 7.93457C20.365 7.93457 19.785 7.95457 17.965 8.03957C16.15 8.12457 14.91 8.40957 13.82 8.83457C12.7 9.26457 11.745 9.84957 10.8 10.7996C9.84999 11.7496 9.26999 12.6996 8.82999 13.8246C8.40999 14.9096 8.11999 16.1496 8.03499 17.9696C7.94999 19.7896 7.92999 20.3696 7.92999 25.0046C7.92999 29.6396 7.94999 30.2196 8.03499 32.0396C8.11999 33.8546 8.40499 35.0946 8.82999 36.1846C9.26499 37.2996 9.84999 38.2546 10.8 39.1996C11.75 40.1496 12.7 40.7296 13.825 41.1696C14.91 41.5896 16.15 41.8796 17.97 41.9646C19.79 42.0496 20.37 42.0696 25.005 42.0696C29.64 42.0696 30.22 42.0496 32.04 41.9646C33.855 41.8796 35.095 41.5946 36.185 41.1696C37.3 40.7346 38.255 40.1496 39.2 39.1996C40.15 38.2496 40.73 37.2996 41.17 36.1746C41.59 35.0896 41.88 33.8496 41.965 32.0296C42.05 30.2096 42.07 29.6296 42.07 24.9946C42.07 20.3596 42.05 19.7796 41.965 17.9596C41.88 16.1446 41.595 14.9046 41.17 13.8146C40.735 12.6996 40.15 11.7446 39.2 10.7996C38.25 9.84957 37.3 9.26957 36.175 8.82957C35.09 8.40957 33.85 8.11957 32.03 8.03457C30.215 7.95457 29.635 7.93457 25 7.93457Z" fill="white"/>
<path d="M25 16.2349C20.16 16.2349 16.235 20.1599 16.235 24.9999C16.235 29.8399 20.16 33.7649 25 33.7649C29.84 33.7649 33.765 29.8399 33.765 24.9999C33.765 20.1599 29.84 16.2349 25 16.2349ZM25 30.6899C21.86 30.6899 19.31 28.1449 19.31 24.9999C19.31 21.8549 21.86 19.3099 25 19.3099C28.14 19.3099 30.69 21.8549 30.69 24.9999C30.69 28.1449 28.14 30.6899 25 30.6899Z" fill="white"/>
<path d="M34.11 17.9396C35.2422 17.9396 36.16 17.0218 36.16 15.8896C36.16 14.7574 35.2422 13.8396 34.11 13.8396C32.9778 13.8396 32.06 14.7574 32.06 15.8896C32.06 17.0218 32.9778 17.9396 34.11 17.9396Z" fill="white"/>
<defs>
<linearGradient id="paint0_linear" x1="7.32232" y1="42.6777" x2="42.6777" y2="7.32232" gradientUnits="userSpaceOnUse">
<stop stop-color="#FFD521"/>
<stop offset="0.0551048" stop-color="#FFD020"/>
<stop offset="0.1241" stop-color="#FEC01E"/>
<stop offset="0.2004" stop-color="#FCA71B"/>
<stop offset="0.2821" stop-color="#FA8316"/>
<stop offset="0.3681" stop-color="#F85510"/>
<stop offset="0.4563" stop-color="#F51E09"/>
<stop offset="0.5" stop-color="#F30005"/>
<stop offset="0.5035" stop-color="#F20007"/>
<stop offset="0.5966" stop-color="#E1003B"/>
<stop offset="0.6879" stop-color="#D30067"/>
<stop offset="0.7757" stop-color="#C70088"/>
<stop offset="0.8589" stop-color="#BF00A0"/>
<stop offset="0.9357" stop-color="#BB00AF"/>
<stop offset="1" stop-color="#B900B4"/>
</linearGradient>
</defs>
</svg>
