<svg width="474" height="718" viewBox="0 0 474 718" fill="none" xmlns="http://www.w3.org/2000/svg">
<path d="M304.504 205.419L372.748 137.174L304.504 68.9301L236.259 137.174L304.504 205.419Z" fill="#F8BB07"/>
<path d="M372.83 273.736L441.074 205.492L372.83 137.247L304.586 205.492L372.83 273.736Z" fill="#FFE42F"/>
<path d="M236.17 137.242L167.926 68.9977L99.6817 137.242L167.926 205.486L236.17 137.242Z" fill="#F8BB07"/>
<path d="M167.824 205.493L99.5797 137.249L31.3354 205.493L99.5797 273.738L167.824 205.493Z" fill="#FFE42F"/>
<path d="M304.877 228.756L236.633 160.511L168.389 228.756L236.633 297L304.877 228.756Z" fill="#9BC5FF"/>
<path d="M236.549 297.004L168.305 228.76L100.06 297.004L168.304 365.249L236.549 297.004Z" fill="#60ACFF"/>
<path d="M373.128 297.091L304.884 228.847L236.64 297.092L304.884 365.336L373.128 297.091Z" fill="#60ACFF"/>
<path d="M304.934 365.194L236.689 296.95L168.445 365.194L236.689 433.438L304.934 365.194Z" fill="#3399F1"/>
<path d="M193.832 43.0458L167.928 68.9497L236.239 137.261L304.341 68.9497L279.064 43.6725L236.866 86.0797L193.832 43.0458Z" fill="#FF8A19"/>
<path d="M236.079 0.815008L193.832 43.0615L236.817 86.0466L279.064 43.8001L236.079 0.815008Z" fill="#FF8A19"/>
<path d="M101.736 495.281L51.3901 601.195H50.1366L0 495.281H22.3526L50.9722 556.698L79.5919 495.281H101.736Z" fill="black"/>
<path d="M134.324 513.037V539.568H185.506V557.951H134.324V582.811H192.19V600.985H114.061V495.072H192.19V513.037H134.324Z" fill="black"/>
<path d="M254.652 600.985H212.872V495.072H254.652C269.693 495.072 282.227 499.458 292.046 508.441C297.268 513.246 301.238 518.886 303.744 525.571C306.46 532.256 307.714 539.777 307.714 548.133C307.714 556.489 306.46 564.009 303.744 570.694C301.029 577.379 297.268 583.228 292.046 587.824C287.241 592.211 281.81 595.554 275.543 597.643C269.067 599.941 262.173 600.985 254.652 600.985ZM233.135 583.02H254.652C258.413 583.02 262.173 582.602 266.142 581.766C269.902 580.931 273.454 579.259 276.587 576.544C279.721 574.037 282.227 570.485 284.316 565.89C286.406 561.294 287.45 555.444 287.45 548.133C287.45 540.821 286.406 534.763 284.316 530.167C282.227 525.571 279.721 522.02 276.587 519.513C273.454 517.006 269.902 515.335 265.933 514.499C262.173 513.664 258.204 513.246 254.652 513.246H233.135V583.02Z" fill="black"/>
<path d="M348.45 600.985H328.186V495.072H348.45V600.985Z" fill="black"/>
<path d="M97.5576 665.536C97.5576 667.207 97.3487 668.879 97.3487 670.341C97.3487 671.594 97.1397 673.057 97.1397 674.31C97.1397 675.564 97.1397 676.608 96.9308 677.235C96.513 683.084 94.8418 688.307 92.1261 693.32C89.4104 698.334 86.0679 702.512 81.8899 706.063C77.7118 709.615 72.907 712.33 67.6845 714.419C62.253 716.508 56.6126 717.344 50.7633 717.344C44.2873 717.344 38.0203 716.091 32.3799 713.584C26.5306 711.077 21.517 707.735 17.3389 703.348C12.952 698.961 9.60952 693.947 7.10269 688.307C4.59586 682.457 3.34247 676.399 3.34247 669.923C3.34247 663.447 4.59586 657.18 7.10269 651.331C9.60952 645.482 12.952 640.468 17.3389 636.081C21.7259 631.694 26.7396 628.352 32.3799 625.845C38.2292 623.338 44.2873 622.084 50.7633 622.084C59.1194 622.084 66.64 623.965 73.5338 627.934C80.4276 631.694 86.0679 636.917 90.246 643.393L75.205 652.584C72.4892 648.615 68.9379 645.273 64.7598 642.766C60.3729 640.05 55.777 638.797 50.7633 638.797C46.5853 638.797 42.6162 639.632 39.0648 641.304C35.5135 642.975 32.171 645.273 29.4553 648.197C26.7396 651.122 24.6505 654.464 22.9793 658.225C21.3081 661.985 20.6814 665.954 20.6814 670.132C20.6814 674.31 21.517 678.279 22.9793 682.04C24.6505 685.8 26.7396 689.142 29.4553 691.858C32.171 694.783 35.3046 697.081 39.0648 698.752C42.6162 700.423 46.5853 701.259 50.7633 701.259C53.8969 701.259 57.0305 700.841 59.9551 699.796C62.8797 698.752 65.5954 697.498 67.8934 695.827C70.4002 694.156 72.4892 692.067 74.1605 689.56C76.0406 687.053 77.294 684.546 78.1296 681.622H44.2874V665.745H97.5576V665.536Z" fill="black"/>
<path d="M297.686 623.965V715.673H280.138V669.296L251.519 703.765L222.899 669.296V715.673H205.351V623.965H206.396L251.31 676.817L296.433 623.965H297.686Z" fill="black"/>
<path d="M335.498 639.423V662.403H379.785V678.279H335.498V699.796H385.425V715.673H317.95V623.965H385.425V639.423H335.498Z" fill="black"/>
<path d="M399.84 703.556L409.449 689.56C414.045 692.693 418.85 695.409 423.655 697.707C428.459 700.005 433.682 701.258 439.113 701.258C442.038 701.258 444.545 700.841 446.634 700.214C448.723 699.587 450.603 698.543 452.065 697.498C453.528 696.454 454.781 694.991 455.408 693.529C456.243 692.067 456.452 690.604 456.452 689.142C456.452 687.262 455.826 685.8 454.781 684.337C453.737 683.084 452.065 682.039 450.185 681.204C448.305 680.368 446.007 679.741 443.5 679.115C440.993 678.488 438.278 678.07 435.562 677.443C433.682 677.026 431.593 676.817 429.086 676.19C426.579 675.772 424.072 675.146 421.565 674.31C419.059 673.474 416.343 672.43 413.836 671.176C411.329 669.923 409.031 668.252 407.151 666.372C405.062 664.492 403.6 661.985 402.346 659.269C401.093 656.553 400.466 653.42 400.466 649.659C400.466 644.228 401.511 639.841 403.809 636.29C405.898 632.738 408.822 630.023 412.165 627.934C415.507 625.845 419.268 624.382 423.446 623.547C427.624 622.711 431.593 622.293 435.353 622.293C439.113 622.293 442.665 622.502 445.589 623.129C448.514 623.547 451.439 624.382 453.945 625.427C456.452 626.471 459.168 627.516 461.466 628.978C463.973 630.44 466.689 632.112 469.404 634.201L459.586 647.988C455.199 645.064 451.021 642.766 447.052 641.094C443.082 639.423 438.904 638.797 434.309 638.797C432.846 638.797 431.175 639.005 429.086 639.423C427.206 639.841 425.326 640.468 423.655 641.303C421.983 642.139 420.521 643.183 419.476 644.437C418.432 645.69 417.805 647.362 417.805 649.242C417.805 651.122 418.432 652.584 419.894 653.838C421.148 655.091 423.028 656.135 425.117 656.971C427.206 657.807 429.504 658.433 432.011 659.06C434.517 659.687 437.024 660.313 439.322 660.731C440.993 661.149 443.082 661.567 445.589 661.985C447.887 662.403 450.394 663.029 452.901 663.656C455.408 664.492 457.915 665.327 460.421 666.581C462.928 667.834 465.226 669.505 467.106 671.385C468.986 673.265 470.658 675.772 471.911 678.697C473.164 681.622 473.791 685.173 473.791 689.142C473.791 693.947 472.956 698.125 471.284 701.467C469.613 705.019 467.315 707.943 464.182 710.241C461.048 712.539 457.497 714.21 453.11 715.464C448.932 716.717 444.127 717.135 438.904 717.135C434.1 717.135 429.922 716.717 426.37 716.09C422.819 715.464 419.476 714.419 416.343 713.166C413.418 711.912 410.494 710.45 407.778 708.779C405.48 707.525 402.764 705.645 399.84 703.556Z" fill="black"/>
<path d="M147.694 623.964H145.814L99.0199 715.673H118.03L146.65 658.224L175.478 715.673H194.488L147.694 623.964Z" fill="black"/>
<path d="M419.894 495.281H417.805L363.699 600.985H385.843L418.85 534.763L452.065 600.985H474L419.894 495.281Z" fill="black"/>
</svg>
