<svg width="80" height="55" viewBox="0 0 80 55" fill="none" xmlns="http://www.w3.org/2000/svg">
<path d="M19.8253 20.9564C18.9223 15.9679 17.8528 10.7537 16.6168 5.31373L19.8586 4.98068L21.757 17.1484C22.7266 12.8927 23.5185 9.0403 24.1328 5.59128L27.2081 5.96875C25.6538 12.6817 24.4955 17.6369 23.7332 20.8343L19.8253 20.9564ZM32.3216 10.0432C34.8898 10.0432 36.1739 11.7492 36.1739 15.1612C36.1739 15.5757 36.1554 16.0197 36.1184 16.4934H31.1558C31.1558 18.3956 31.5222 19.3466 32.2549 19.3466H32.3327C32.9766 19.2948 33.2985 18.8026 33.2985 17.8701C33.2985 17.6702 33.2837 17.4482 33.2541 17.2039L35.8964 17.1484C35.8964 19.9683 34.6641 21.3968 32.1994 21.4338C32.1698 21.4412 32.1439 21.4449 32.1217 21.4449C29.7755 21.4449 28.6024 19.6649 28.6024 16.1049V15.7718C28.6764 11.9527 29.9161 10.0432 32.3216 10.0432ZM30.8894 14.4507H33.3984V14.1842C33.3984 12.8372 33.0173 12.1637 32.2549 12.1637C31.4334 12.1637 30.9782 12.926 30.8894 14.4507ZM46.6386 5.73561C46.5942 8.23725 46.572 10.861 46.572 13.6069C46.572 16.1086 46.5905 18.7138 46.6275 21.4227L43.9963 21.4338L43.9075 19.7352C43.3598 20.5567 42.6308 20.9675 41.7204 20.9675C39.4482 20.9675 38.3121 19.2282 38.3121 15.7496C38.3121 15.6756 38.3158 15.6016 38.3232 15.5275C38.3676 12.0415 39.4926 10.2985 41.6982 10.2985C41.787 10.2985 41.8795 10.3022 41.9757 10.3096C42.7307 10.354 43.3413 10.7648 43.8076 11.5419C43.8076 9.89885 43.7669 7.96341 43.6854 5.73561H46.6386ZM43.8631 17.4593L43.8076 13.618C43.3783 13.0333 42.9379 12.741 42.4864 12.741C42.3014 12.741 42.1164 12.7891 41.9313 12.8853C41.3466 13.1887 41.0543 14.0399 41.0543 15.4387C41.0543 15.6016 41.058 15.7681 41.0654 15.9383C41.1394 17.6332 41.5169 18.5288 42.1978 18.625C42.2644 18.6324 42.331 18.6361 42.3976 18.6361C42.9897 18.6361 43.4782 18.2438 43.8631 17.4593ZM51.8631 7.48972C51.8631 7.9412 51.7039 8.32607 51.3857 8.64433C51.0674 8.96258 50.6826 9.12171 50.2311 9.12171C49.787 9.12171 49.4058 8.96258 49.0876 8.64433C48.7693 8.32607 48.6102 7.9412 48.6102 7.48972C48.6102 7.04564 48.7693 6.66447 49.0876 6.34622C49.4058 6.02796 49.787 5.86883 50.2311 5.86883C50.6826 5.86883 51.0674 6.02796 51.3857 6.34622C51.7039 6.66447 51.8631 7.04564 51.8631 7.48972ZM48.8877 21.5004C48.8359 17.1706 48.81 13.4293 48.81 10.2763L51.6077 10.1098C51.5189 13.1295 51.4745 16.1308 51.4745 19.1135C51.4745 19.9128 51.4782 20.7085 51.4856 21.5004H48.8877ZM58.009 9.72122C60.4441 9.85444 61.6616 11.0794 61.6616 13.396V21.2784L59.0748 21.3228L58.986 20.2681C58.4531 20.875 57.7463 21.1785 56.8655 21.1785C56.4881 21.1785 56.081 21.1192 55.6443 21.0008C54.3343 20.6752 53.6793 19.6612 53.6793 17.9589C53.6793 17.7516 53.6904 17.5296 53.7126 17.2928C53.8606 15.5387 55.1077 14.6616 57.4539 14.6616C57.9054 14.6616 58.4013 14.6949 58.9416 14.7615V13.4737C58.9416 12.4301 58.6122 11.9083 57.9535 11.9083H57.9091C57.8573 11.9009 57.8092 11.8972 57.7648 11.8972C57.0469 11.8972 56.6879 12.4819 56.6879 13.6513V13.8178L54.0456 13.5958C54.0456 11.0127 55.289 9.72122 57.7759 9.72122H58.009ZM58.9416 18.4918V16.5378C58.6233 16.4712 58.3347 16.4379 58.0756 16.4379C57.4021 16.4379 56.9432 16.6637 56.699 17.1151C56.551 17.389 56.477 17.6443 56.477 17.8812C56.477 18.1772 56.5954 18.44 56.8322 18.6694C57.0173 18.847 57.2578 18.9359 57.5539 18.9359C57.9313 18.9359 58.3939 18.7878 58.9416 18.4918Z" fill="white"/>
<path d="M14.4588 34.0618L11.3684 34.3482C11.1297 32.045 10.4468 30.8811 9.31971 30.8567L9.07448 30.8772C8.07538 30.9609 7.32219 31.6872 6.81492 33.0559C6.30765 34.4247 6.15523 36.3171 6.35768 38.7331L6.40791 39.3325C6.6892 42.0346 7.75175 43.3084 9.59555 43.1539C10.8671 43.0474 11.4162 41.9587 11.2426 39.8878C11.2251 39.6789 11.2027 39.4658 11.1754 39.2486L8.46758 39.5167L8.34696 36.4398L15.318 35.9654L15.5977 39.3034L14.2103 39.4471C14.6076 44.1883 12.917 46.7172 9.13862 47.0338C5.64176 47.3268 3.65968 44.6849 3.19239 39.1081C3.15357 38.6448 3.12648 38.1578 3.11111 37.6469C2.88027 31.0716 4.67898 27.4863 8.50724 26.8911C8.69721 26.8661 8.87849 26.8463 9.05106 26.8318C12.2573 26.5632 14.0415 28.5906 14.4038 32.9139C14.4342 33.2773 14.4526 33.6599 14.4588 34.0618Z" fill="white"/>
<path d="M15.8517 49.5174C18.5489 42.0174 20.7688 35.6505 22.5114 30.4166L27.6066 30.9925C28.132 36.7401 28.7376 43.2884 29.4236 50.6375L25.8613 50.8939L25.4273 45.6131L21.2104 45.068L19.3546 50.4664L15.8517 49.5174ZM25.8113 41.7889C25.5936 39.7757 25.1273 37.3397 24.4124 34.4809C23.2942 36.6616 22.292 38.9399 21.4059 41.316L25.8113 41.7889Z" fill="white"/>
<path d="M37.5621 28.0139L42.1488 41.7882L43.1618 28.4952L49.3717 27.9395C49.5593 30.8978 49.804 33.8778 50.1058 36.8796C50.4423 40.226 50.8509 43.6064 51.3316 47.0207L47.4004 47.6909C47.0375 44.0815 46.5531 39.6736 45.9471 34.4672L44.9321 46.6474L40.7438 47.3571L36.7264 34.7348L37.9851 47.7994L34.6892 48.3644C34.4527 45.3744 34.1867 42.4102 33.8912 39.4719C33.5228 35.8081 33.1091 32.1946 32.6501 28.6315L37.5621 28.0139Z" fill="white"/>
<path d="M64.0118 29.9488L63.8918 33.8024L58.5008 33.4157L58.3613 37.8979L63.2167 37.9123L63.2244 41.6194L58.8925 41.4846L58.7844 44.9555L64.4555 45.1321L64.3346 49.0131L54.8825 48.5819C55.0624 46.0251 55.1928 43.4485 55.2737 40.8521C55.3857 37.2536 55.4031 33.6202 55.3259 29.9519C57.3873 29.9341 60.2826 29.933 64.0118 29.9488Z" fill="white"/>
<path d="M67.9902 40.6738L72.0508 40.4004C71.9961 40.9655 71.9688 41.4759 71.9688 41.9316C71.9688 44.0007 72.4837 45.0352 73.5137 45.0352H73.5684C74.8171 44.9987 75.4414 44.3333 75.4414 43.0391V42.916C75.3958 41.5397 74.2155 40.1908 71.9004 38.8691C69.6491 37.5931 68.5234 35.4876 68.5234 32.5527C68.5234 32.4616 68.528 32.3704 68.5371 32.2793C68.6009 29.2077 70.3236 27.6445 73.7051 27.5898H73.8145C76.8678 27.5898 78.3945 29.5358 78.3945 33.4277C78.3945 33.7376 78.3854 34.0658 78.3672 34.4121L74.7988 34.6172C74.8353 34.207 74.8535 33.8288 74.8535 33.4824C74.8535 31.8509 74.457 31.0352 73.6641 31.0352C72.707 31.0352 72.1829 31.5228 72.0918 32.498C72.0827 32.6348 72.0781 32.7715 72.0781 32.9082C72.0781 33.7194 72.3197 34.4759 72.8027 35.1777C73.3587 35.9889 74.3112 36.7318 75.6602 37.4062C77.0182 38.0807 77.9661 39.0059 78.5039 40.1816C78.8867 41.0293 79.0781 41.9316 79.0781 42.8887C79.0781 43.2533 79.0508 43.627 78.9961 44.0098C78.7865 45.3861 78.2031 46.5299 77.2461 47.4414C76.2891 48.3438 75.0039 48.8359 73.3906 48.918C73.2812 48.9271 73.1719 48.9316 73.0625 48.9316C71.5951 48.9316 70.3691 48.3939 69.3848 47.3184C68.4368 46.2884 67.9629 44.4154 67.9629 41.6992C67.9629 41.3711 67.972 41.0293 67.9902 40.6738Z" fill="white"/>
</svg>
