<svg width="44" height="44" viewBox="0 0 44 44" fill="none" xmlns="http://www.w3.org/2000/svg">
<path d="M35.0625 17.875C39.9985 17.875 44 13.8735 44 8.9375C44 4.00145 39.9985 0 35.0625 0C30.1265 0 26.125 4.00145 26.125 8.9375C26.125 13.8735 30.1265 17.875 35.0625 17.875Z" fill="#29B3FF"/>
<path d="M35.75 34.375H31.625C30.8656 34.375 30.25 34.9906 30.25 35.75C30.25 36.5094 30.8656 37.125 31.625 37.125H35.75C36.5094 37.125 37.125 36.5094 37.125 35.75C37.125 34.9906 36.5094 34.375 35.75 34.375Z" fill="#29B3FF"/>
<path d="M10.3125 0C8.27288 0 6.27907 0.604818 4.58319 1.73797C2.8873 2.87112 1.56553 4.48171 0.784997 6.36608C0.00446826 8.25044 -0.199754 10.3239 0.198156 12.3244C0.596066 14.3248 1.57824 16.1623 3.02047 17.6045C4.46269 19.0468 6.30021 20.0289 8.30063 20.4268C10.3011 20.8248 12.3746 20.6205 14.2589 19.84C16.1433 19.0595 17.7539 17.7377 18.887 16.0418C20.0202 14.3459 20.625 12.3521 20.625 10.3125C20.625 7.57746 19.5385 4.95443 17.6045 3.02046C15.6706 1.08649 13.0475 0 10.3125 0ZM10.3125 17.875C8.81678 17.875 7.35465 17.4315 6.111 16.6005C4.86736 15.7695 3.89805 14.5884 3.32567 13.2065C2.75328 11.8247 2.60352 10.3041 2.89532 8.83713C3.18712 7.37015 3.90737 6.02264 4.96501 4.965C6.02264 3.90737 7.37015 3.18711 8.83713 2.89531C10.3041 2.60351 11.8247 2.75327 13.2065 3.32566C14.5884 3.89805 15.7695 4.86735 16.6005 6.111C17.4315 7.35465 17.875 8.81678 17.875 10.3125C17.8714 12.3171 17.0734 14.2385 15.656 15.656C14.2385 17.0734 12.3171 17.8714 10.3125 17.875ZM35.75 4.125H27.5C26.406 4.125 25.3568 4.5596 24.5832 5.33318C23.8096 6.10677 23.375 7.15598 23.375 8.25V20.625H35.75C36.844 20.625 37.8932 20.1904 38.6668 19.4168C39.4404 18.6432 39.875 17.594 39.875 16.5V8.25C39.875 7.15598 39.4404 6.10677 38.6668 5.33318C37.8932 4.5596 36.844 4.125 35.75 4.125ZM37.125 16.5C37.125 16.8647 36.9801 17.2144 36.7223 17.4723C36.4644 17.7301 36.1147 17.875 35.75 17.875H26.125V8.25C26.125 7.88533 26.2699 7.53559 26.5277 7.27773C26.7856 7.01987 27.1353 6.875 27.5 6.875H35.75C36.1147 6.875 36.4644 7.01987 36.7223 7.27773C36.9801 7.53559 37.125 7.88533 37.125 8.25V16.5ZM7.6175 23.375C6.69124 23.375 5.80291 23.743 5.14793 24.3979C4.49296 25.0529 4.125 25.9412 4.125 26.8675V36.3825C4.125 37.3088 4.49296 38.1971 5.14793 38.8521C5.80291 39.507 6.69124 39.875 7.6175 39.875H17.1325C18.0588 39.875 18.9471 39.507 19.6021 38.8521C20.257 38.1971 20.625 37.3088 20.625 36.3825V23.375H7.6175ZM17.875 36.3825C17.875 36.5794 17.7968 36.7683 17.6575 36.9075C17.5183 37.0468 17.3294 37.125 17.1325 37.125H7.6175C7.42058 37.125 7.23172 37.0468 7.09248 36.9075C6.95323 36.7683 6.875 36.5794 6.875 36.3825V26.8675C6.875 26.6706 6.95323 26.4817 7.09248 26.3425C7.23172 26.2032 7.42058 26.125 7.6175 26.125H17.875V36.3825ZM39.875 23.375H23.375V39.875C23.375 40.969 23.8096 42.0182 24.5832 42.7918C25.3568 43.5654 26.406 44 27.5 44H39.875C40.969 44 42.0182 43.5654 42.7918 42.7918C43.5654 42.0182 44 40.969 44 39.875V27.5C44 26.406 43.5654 25.3568 42.7918 24.5832C42.0182 23.8096 40.969 23.375 39.875 23.375ZM41.25 39.875C41.25 40.2397 41.1051 40.5894 40.8473 40.8473C40.5894 41.1051 40.2397 41.25 39.875 41.25H27.5C27.1353 41.25 26.7856 41.1051 26.5277 40.8473C26.2699 40.5894 26.125 40.2397 26.125 39.875V26.125H39.875C40.2397 26.125 40.5894 26.2699 40.8473 26.5277C41.1051 26.7856 41.25 27.1353 41.25 27.5V39.875Z" fill="white"/>
<ellipse cx="35.0625" cy="8.9375" rx="6.1875" ry="6.1875" fill="#FFD774"/>
<ellipse cx="35.75" cy="6.875" rx="2.75" ry="2.75" fill="white"/>
</svg>
