<?xml version="1.0" encoding="UTF-8"?><svg xmlns="http://www.w3.org/2000/svg" viewBox="0 0 171.023 408.097" x="0px" y="0px" width="172px" height="409px" version="1.1" xmlns:xlink="http://www.w3.org/1999/xlink"><title>annoyed_tree</title><g id="Layer_2" data-name="Layer 2"><g id="annoyed_tree"><path d="M78.224,331.582a2.879,2.879,0,0,0-3.9-.9.1.1,0,0,0-.1.1,99.522,99.522,0,0,1-15,8.2l-3.6,57.9a9.536,9.536,0,0,0,7.6,9.9,91.039,91.039,0,0,0,17.3,1.3,91.06,91.06,0,0,0,17.3-1.3,9.356,9.356,0,0,0,7.6-9.9l-2.4-37.8C94.824,352.382,85.424,343.282,78.224,331.582Z" fill="#00acdc"/><path d="M171.023,325.282c-7.8-58.2-20.2-94.7-27.7-112.9a2.87,2.87,0,0,1,1.5-3.7,2.787,2.787,0,0,1,1.8-.1c2,.5,3.7,1,5.2,1.3a2.835,2.835,0,0,0,3.4-2.1,3.272,3.272,0,0,0,0-1.4c-16.2-60.9-29.8-98.2-37-116.2a2.871,2.871,0,0,1,1.5-3.7,2.56,2.56,0,0,1,2.1,0l.2.1a2.871,2.871,0,0,0,3.7-1.5,3.1,3.1,0,0,0,.1-1.9,275.952,275.952,0,0,0-23.5-54.1,13.969,13.969,0,0,0,2.9-.9,2.731,2.731,0,0,0,1.5-3.5l-.3-.6a153.116,153.116,0,0,0-21.3-22.8,2.271,2.271,0,0,0-1.6-.6,2.842,2.842,0,0,0-4,.3l-.2.2h0a3.057,3.057,0,0,0-2,.7c-6.9,6.6-20.9,21.2-29.8,38.3a2.654,2.654,0,0,0,1.1,3.6,2.492,2.492,0,0,0,1.7.3c1.2-.2,2.6-.5,4.2-.8a508.974,508.974,0,0,0-30.7,73.1,2.834,2.834,0,0,0,1.8,3.6,2.51,2.51,0,0,0,1.9-.1c1.2-.5,2.5-1,3.9-1.6a2.849,2.849,0,0,1,3.8,3.5c-8.4,24.3-20.4,64.6-30.9,121a2.829,2.829,0,0,0,2.2,3.3,2.2,2.2,0,0,0,1.4-.1c1.4-.5,3.2-1.1,5-1.8a2.782,2.782,0,0,1,3.6,1.7,3.219,3.219,0,0,1,.1,1.7c-6,19.6-12.1,45.4-16.6,77.7a2.893,2.893,0,0,0,2.4,3.2h.8c5.9-1,17.5-3.3,27.1-7.6a2.826,2.826,0,0,1,3.7,1.4,2.92,2.92,0,0,1,.2.9c.6,6.5,1.4,13.2,2.2,20.1a2.951,2.951,0,0,0,3.1,2.5.6.6,0,0,0,.4-.1,144.636,144.636,0,0,0,19.1-6.8,99.425,99.425,0,0,0,15-8.2,2.76,2.76,0,0,1,3.9.7.1.1,0,0,0,.1.1c7.2,11.7,16.6,20.8,24.9,27.4l2.4,1.8a2.754,2.754,0,0,0,3.9-.6c.1-.1.2-.3.3-.4,3-6.1,10-20.4,14.7-32.6a2.771,2.771,0,0,1,3.4-1.7c14.3,4.1,33.3,3.5,40.6,3a2.742,2.742,0,0,0,2.6-3C171.023,325.382,171.023,325.382,171.023,325.282Z" fill="#10294c"/><path d="M47.224,128.282a2.92,2.92,0,0,0,.2.9,2.367,2.367,0,0,0,3.2,1.1,41.716,41.716,0,0,0,4.6-2.6,41.458,41.458,0,0,0,4.3-3,16.319,16.319,0,0,0,2-1.7c.7-.6,1.3-1.2,1.9-1.8a19.682,19.682,0,0,0,3.3-4.3,1.151,1.151,0,0,0-.5-1.4,1.073,1.073,0,0,0-1.1.1h0a38.474,38.474,0,0,1-7.8,5.6c-1.4.8-2.9,1.6-4.3,2.4l-1,.5c0-2.1,0-4.2.1-6.3a20.9,20.9,0,0,1,.1-2.5c.1-.8.1-1.7.2-2.5.1-1.6.3-3.4.4-5v-.1a1.4,1.4,0,0,0-1.2-1.4,1.213,1.213,0,0,0-1.2.7,38.248,38.248,0,0,0-1.8,5.1,31.78,31.78,0,0,0-1,5.2,47.254,47.254,0,0,0-.4,5.3c0,1.8,0,3.6.1,5.3Z" fill="#00acdc"/><path d="M62.424,311.282c1.2-1.3,2.2-2.7,3.3-4.1a16.443,16.443,0,0,0,1.4-2.2c.4-.8.9-1.5,1.3-2.3a22.053,22.053,0,0,0,1.8-5.1,1.024,1.024,0,0,0-1.9-.7h0a43.317,43.317,0,0,1-5.7,7.8c-1.1,1.2-2.2,2.4-3.4,3.6l-.8.8q-1.05-3-1.8-6l-.6-2.4-.6-2.4c-.4-1.6-.7-3.3-1.1-4.9v-.1a1.326,1.326,0,0,0-1.5-1,1.409,1.409,0,0,0-1,1.1,24.387,24.387,0,0,0-.1,5.4,47.756,47.756,0,0,0,.6,5.3,43.713,43.713,0,0,0,1.2,5.2,42.434,42.434,0,0,0,1.8,5v.1a3.508,3.508,0,0,0,.5.8,2.478,2.478,0,0,0,3.4.1h0C60.224,313.882,61.324,312.682,62.424,311.282Z" fill="#00acdc"/><path d="M54.724,258.882a1.093,1.093,0,0,0-1.5.1h0a50.144,50.144,0,0,1-9.4,7.7c-1.7,1.1-3.5,2.2-5.2,3.3l-2.2,1.2a22.829,22.829,0,0,1-.1-2.6c-.1-2.1-.1-4.1-.1-6.2,0-1,0-2.1.1-3.1s.1-2.1.1-3.1c.1-2.1.3-4.2.5-6.2v-.1a1.323,1.323,0,0,0-1.3-1.3,1.39,1.39,0,0,0-1.2.7,35.823,35.823,0,0,0-1.8,6.4c-.4,2.1-.8,4.3-1,6.5a48.524,48.524,0,0,0-.2,6.6c0,2.2.2,4.4.4,6.6v.1a1.135,1.135,0,0,0,.3.8,2.356,2.356,0,0,0,3.2,1h0c2-1.1,3.8-2.2,5.6-3.4s3.6-2.5,5.2-3.8c.8-.7,1.7-1.4,2.4-2.1a24.964,24.964,0,0,0,2.3-2.3,24.971,24.971,0,0,0,3.9-5.3A1.183,1.183,0,0,0,54.724,258.882Z" fill="#00acdc"/><path d="M90.624,68.782a1.114,1.114,0,0,0-1.4-.6,1.272,1.272,0,0,0-.7.9h0a33.277,33.277,0,0,1-1.1,7.7c-.3,1.3-.6,2.6-1,3.8,0,.1,0,.1-.1.2-1.1-1-2.1-1.9-3.2-2.9-1-.9-1.9-1.9-2.9-2.8l-2.8-2.9-.1-.1a1.268,1.268,0,0,0-1.8,0,1.238,1.238,0,0,0-.3,1.4,17.9,17.9,0,0,0,2,3.9c.8,1.2,1.6,2.4,2.5,3.5s1.9,2.2,2.9,3.2,2.2,2,3.3,2.9l.1.1a2.373,2.373,0,0,0,3.3-.4,2.01,2.01,0,0,0,.4-.8c.4-1.4.7-2.8,1-4.2a30.064,30.064,0,0,0,.5-4.2,15.483,15.483,0,0,0,.1-2.2,16.2,16.2,0,0,0-.1-2.2A7.213,7.213,0,0,0,90.624,68.782Z" fill="#00acdc"/><path d="M138.023,280.982c-.2-1.4-.5-2.9-.8-4.3a34.1,34.1,0,0,0-2.9-8.3,1.15,1.15,0,0,0-1.4-.5.992.992,0,0,0-.5,1.3h0a43.607,43.607,0,0,1,1.6,8,75.5,75.5,0,0,1,.5,8.3c0,2.8,0,5.6-.1,8.3-.1,1.4-.1,2.8-.2,4.2v.5l-4.2-2.4c-2.4-1.5-4.8-3-7.1-4.6l-1.8-1.2-1.7-1.2c-1.1-.8-2.3-1.6-3.4-2.5-2.2-1.7-4.5-3.5-6.6-5.3h0a1.217,1.217,0,0,0-1.6,0,1.189,1.189,0,0,0-.2,1.8h0a52.531,52.531,0,0,0,6,6.5c2.1,2,4.4,3.9,6.7,5.7a72.452,72.452,0,0,0,7.3,5,83.507,83.507,0,0,0,7.7,4.3h.1a2.92,2.92,0,0,0,.9.2,2.443,2.443,0,0,0,2.6-2.2,108.309,108.309,0,0,0-.1-17.4A28.485,28.485,0,0,1,138.023,280.982Z" fill="#00acdc"/><path d="M105.524,65.782a19.164,19.164,0,0,0-.9-3.2,28.8,28.8,0,0,0-1.3-3.1,11.019,11.019,0,0,0-2-2.8,1.007,1.007,0,0,0-1.7,1h0v.1a22.912,22.912,0,0,1,.7,2.8,25.575,25.575,0,0,1,.4,2.9,14.917,14.917,0,0,1,.2,2.1c-.7-.3-1.4-.5-2.1-.8l-2.8-1.1c-.9-.4-1.9-.8-2.8-1.1h-.1a1.268,1.268,0,0,0-1.4,2,13.6,13.6,0,0,0,2.4,2.4,27.5,27.5,0,0,0,2.8,1.9,26.213,26.213,0,0,0,6.2,2.6h.1a2.769,2.769,0,0,0,.9.1,2.365,2.365,0,0,0,2.1-2.6C105.924,67.882,105.724,66.782,105.524,65.782Z" fill="#00acdc"/><path d="M40.224,197.182c6,0,6.6-4.9,6.7-11.2a15.457,15.457,0,0,0,2.3-.7,1.208,1.208,0,0,0,.7-.7,1.081,1.081,0,0,0-.7-1.4h0a24.6,24.6,0,0,0-4.5-1.1,34.013,34.013,0,0,0-4.5-.3,33.887,33.887,0,0,0-4.5.2,24.239,24.239,0,0,0-4.5,1,1.262,1.262,0,0,0-.8,1.7,1.085,1.085,0,0,0,.8.8,9.766,9.766,0,0,0,2.3.6C33.624,192.382,34.224,197.182,40.224,197.182Z" fill="#fff"/><path d="M69.924,208.182a14.249,14.249,0,0,0-3.5-1.1,24.632,24.632,0,0,0-7-.1,14.039,14.039,0,0,0-3.5,1,1.471,1.471,0,0,0-.7,1.9,1.208,1.208,0,0,0,.7.7,14.039,14.039,0,0,0,3.5,1,24.632,24.632,0,0,0,7-.1,14.249,14.249,0,0,0,3.5-1.1,1.079,1.079,0,0,0,.5-1.5.99.99,0,0,0-.5-.7Z" fill="#fff"/><path d="M96.124,183.282a24.6,24.6,0,0,0-4.5-1.1,40.632,40.632,0,0,0-9-.1,24.239,24.239,0,0,0-4.5,1,1.085,1.085,0,0,0-.8.8,1.261,1.261,0,0,0,.8,1.7h0a9.766,9.766,0,0,0,2.3.6c.1,6.2.7,11,6.7,11,5.9,0,6.6-4.9,6.7-11.2a15.493,15.493,0,0,0,2.3-.7,1.081,1.081,0,0,0,.7-1.4,1.344,1.344,0,0,0-.7-.6Z" fill="#fff"/><path d="M93.324,384.282a18.349,18.349,0,0,0-1.2-4.6,1.575,1.575,0,0,0-.7-.7,1.081,1.081,0,0,0-1.4.7,23.553,23.553,0,0,0-1,4.6,34.4,34.4,0,0,0-.3,4.6,35.529,35.529,0,0,0,.3,4.6,25.25,25.25,0,0,0,1,4.6,1.262,1.262,0,0,0,1.7.8,1.222,1.222,0,0,0,.8-.9,23.409,23.409,0,0,0,.9-4.6,34.942,34.942,0,0,0,.1-4.6A17,17,0,0,0,93.324,384.282Z" fill="#10294c"/><path d="M70.424,362.482a9.333,9.333,0,0,0,1.2-3.3,18.568,18.568,0,0,0,.5-3.4,19.3,19.3,0,0,0,0-3.4,14.744,14.744,0,0,0-.8-3.5,2.678,2.678,0,0,0-.5-.6,1.281,1.281,0,0,0-1.6.4h0a12,12,0,0,0-1.3,3.3,19,19,0,0,0-.6,3.3,19.329,19.329,0,0,0-.1,3.4,14.535,14.535,0,0,0,.7,3.5,1.4,1.4,0,0,0,1.8.8c.3.1.5-.2.7-.5Z" fill="#10294c"/><path d="M91.324,363.082a4.23,4.23,0,0,0-1.2,3,4.013,4.013,0,0,0,.3,1.5,3.6,3.6,0,0,0,1.1,1.4,1.983,1.983,0,0,0,2.6-.2,3.147,3.147,0,0,0,.8-1.5,3.812,3.812,0,0,0,.1-1.5,3.36,3.36,0,0,0-.5-1.4,5.263,5.263,0,0,0-1.2-1.4A1.418,1.418,0,0,0,91.324,363.082Z" fill="#10294c"/><path d="M73.024,383.882a1.664,1.664,0,0,0-2.1-.2,3.447,3.447,0,0,0-1.2,1.2,5.023,5.023,0,0,0-.5,1.3,1.95,1.95,0,0,0,.1,1.3,2.851,2.851,0,0,0,.8,1.4,1.982,1.982,0,0,0,2.5.3,3.179,3.179,0,0,0,1.1-1.2,2.768,2.768,0,0,0,.3-1.3,6.753,6.753,0,0,0-.2-1.4A2.851,2.851,0,0,0,73.024,383.882Z" fill="#10294c"/></g></g></svg>