<svg width="50" height="50" viewBox="0 0 50 50" fill="none" xmlns="http://www.w3.org/2000/svg">
<path d="M50 24.9763C50.0138 38.7825 38.83 49.9863 25.0238 50C11.2175 50.0138 0.0137627 38.83 1.26652e-05 25.0238C-0.0137373 11.2175 11.17 0.0137627 24.9763 1.26652e-05C38.7825 -0.0137373 49.9863 11.17 50 24.9763Z" fill="url(#paint0_linear)"/>
<path d="M25.5538 9.27148C14.7638 9.27148 9.03503 16.5152 9.03503 24.4002C9.03503 28.0665 10.9875 32.6315 14.11 34.0852C14.5825 34.3065 14.8375 34.2102 14.945 33.7515C15.0288 33.404 15.4488 31.7052 15.6388 30.9165C15.6988 30.664 15.67 30.4477 15.4663 30.2002C14.4325 28.9465 13.6063 26.6415 13.6063 24.494C13.6063 18.979 17.7813 13.644 24.8938 13.644C31.035 13.644 35.335 17.829 35.335 23.8152C35.335 30.5777 31.92 35.2627 27.4763 35.2627C25.0225 35.2627 23.185 33.234 23.7738 30.744C24.48 27.7727 25.845 24.5665 25.845 22.4215C25.845 20.5027 24.8163 18.9002 22.6825 18.9002C20.1738 18.9002 18.16 21.494 18.16 24.9715C18.16 27.184 18.9075 28.6815 18.9075 28.6815C18.9075 28.6815 16.43 39.159 15.9763 41.109C15.4738 43.2615 15.6688 46.2852 15.8875 48.2627C16.4513 48.484 17.015 48.7052 17.5988 48.8865C18.62 47.2265 20.1413 44.504 20.7063 42.334C21.01 41.1627 22.265 36.3902 22.265 36.3902C23.08 37.944 25.4613 39.2615 27.9938 39.2615C35.5338 39.2615 40.9663 32.3277 40.9663 23.7115C40.9663 15.4502 34.2275 9.27148 25.5538 9.27148Z" fill="white"/>
<defs>
<linearGradient id="paint0_linear" x1="13.7238" y1="3.14501" x2="36.9513" y2="48.3375" gradientUnits="userSpaceOnUse">
<stop stop-color="#F44F5A"/>
<stop offset="0.443" stop-color="#EE3D4A"/>
<stop offset="1" stop-color="#E52030"/>
</linearGradient>
</defs>
</svg>
