<svg width="194" height="310" viewBox="0 0 194 310" fill="none" xmlns="http://www.w3.org/2000/svg">
<path d="M17.9032 252.75C26.1324 252.75 30.247 260.25 30.247 275.25C30.247 290.271 25.8407 297.781 17.0282 297.781C8.21575 297.781 3.8095 290 3.8095 274.438C3.8095 259.979 8.50742 252.75 17.9032 252.75ZM12.2782 275.469C12.2574 276.031 12.247 276.573 12.247 277.094C12.247 285.323 13.9449 289.438 17.3407 289.438C20.9241 289.438 22.7157 284.781 22.7157 275.469C22.7157 266.156 21.0387 261.5 17.6845 261.5C14.3303 261.5 12.5282 266.156 12.2782 275.469ZM32.4718 267.812C32.3884 266.708 32.3468 265.677 32.3468 264.719C32.3468 261.406 32.8468 258.854 33.8468 257.062C35.1176 254.771 37.2009 253.354 40.0968 252.812C41.5134 252.542 42.8676 252.406 44.1593 252.406C45.4718 252.406 46.7218 252.552 47.9093 252.844C50.2218 253.406 52.0655 254.667 53.4405 256.625C54.8363 258.583 55.5863 261.271 55.6905 264.688V265.625C55.6905 268.583 55.2322 270.74 54.3155 272.094C53.2947 273.615 51.6176 274.76 49.2843 275.531C51.2218 275.823 52.6697 276.531 53.628 277.656C54.6072 278.76 55.2843 280.25 55.6593 282.125C55.8676 283.167 55.9718 284.312 55.9718 285.562C55.9718 286.583 55.8988 287.688 55.753 288.875C55.4405 291.479 54.378 293.729 52.5655 295.625C50.7738 297.521 48.003 298.51 44.253 298.594H43.753C40.2322 298.594 37.4197 297.677 35.3155 295.844C33.128 293.969 32.0343 289.938 32.0343 283.75V283.562L40.128 283.094C40.1072 283.448 40.0968 283.792 40.0968 284.125C40.0968 288.5 41.2426 290.76 43.5343 290.906C43.7009 290.927 43.8572 290.938 44.003 290.938C46.1697 290.938 47.4718 289.792 47.9093 287.5C48.0343 286.854 48.0968 286.24 48.0968 285.656C48.0968 284.01 47.628 282.583 46.6905 281.375C45.3988 279.75 43.2634 278.938 40.2843 278.938L39.9093 273C40.2634 273.021 40.5968 273.031 40.9093 273.031C43.5134 273.031 45.3051 272.281 46.2843 270.781C47.2009 269.385 47.6593 267.573 47.6593 265.344C47.6593 264.906 47.6384 264.458 47.5968 264C47.4093 261.333 46.2113 260 44.003 260H43.5968C41.4093 260.146 40.3155 262.333 40.3155 266.562C40.3155 267.062 40.3259 267.594 40.3468 268.156L32.4718 267.812Z" fill="#81EAFF"/>
<path d="M68.6094 263.863L72.0898 263.629C72.043 264.113 72.0195 264.551 72.0195 264.941C72.0195 266.715 72.4609 267.602 73.3438 267.602H73.3906C74.4609 267.57 74.9961 267 74.9961 265.891V265.785C74.957 264.605 73.9453 263.449 71.9609 262.316C70.0312 261.223 69.0664 259.418 69.0664 256.902C69.0664 256.824 69.0703 256.746 69.0781 256.668C69.1328 254.035 70.6094 252.695 73.5078 252.648H73.6016C76.2188 252.648 77.5273 254.316 77.5273 257.652C77.5273 257.918 77.5195 258.199 77.5039 258.496L74.4453 258.672C74.4766 258.32 74.4922 257.996 74.4922 257.699C74.4922 256.301 74.1523 255.602 73.4727 255.602C72.6523 255.602 72.2031 256.02 72.125 256.855C72.1172 256.973 72.1133 257.09 72.1133 257.207C72.1133 257.902 72.3203 258.551 72.7344 259.152C73.2109 259.848 74.0273 260.484 75.1836 261.062C76.3477 261.641 77.1602 262.434 77.6211 263.441C77.9492 264.168 78.1133 264.941 78.1133 265.762C78.1133 266.074 78.0898 266.395 78.043 266.723C77.8633 267.902 77.3633 268.883 76.543 269.664C75.7227 270.438 74.6211 270.859 73.2383 270.93C73.1445 270.938 73.0508 270.941 72.957 270.941C71.6992 270.941 70.6484 270.48 69.8047 269.559C68.9922 268.676 68.5859 267.07 68.5859 264.742C68.5859 264.461 68.5938 264.168 68.6094 263.863ZM79.3226 256.562V253.48C80.471 253.512 81.6077 253.527 82.7327 253.527C84.4827 253.527 86.1976 253.492 87.8772 253.422L87.9827 256.703H85.0296C85.0296 262.258 85.0882 266.664 85.2054 269.922L81.9007 270.086C82.0726 264.539 82.1976 260.016 82.2757 256.516L79.3226 256.562ZM88.442 269.945C89.9107 263.273 91.0982 257.617 92.0045 252.977L96.399 252.906C97.4772 257.734 98.7115 263.234 100.102 269.406L97.1022 270.016L96.1529 265.574H92.5084L91.524 270.367L88.442 269.945ZM96.0592 262.281C95.6529 260.594 94.9889 258.574 94.067 256.223C93.3561 258.199 92.7545 260.246 92.2623 262.363L96.0592 262.281ZM100.655 270.25C100.702 268.016 100.726 265.766 100.726 263.5C100.726 260.031 100.671 256.527 100.561 252.988C101.772 252.863 102.858 252.801 103.819 252.801C106.491 252.801 108.194 253.289 108.929 254.266C109.616 255.18 109.96 256.188 109.96 257.289C109.96 257.789 109.893 258.305 109.761 258.836C109.308 260.555 108.354 261.645 106.901 262.105C107.917 262.246 108.686 262.793 109.21 263.746C109.71 264.668 109.96 266.988 109.96 270.707V271.211L106.421 271.258C106.46 270.273 106.479 269.391 106.479 268.609C106.479 266.242 106.288 264.793 105.905 264.262C105.468 263.668 104.948 263.371 104.347 263.371C104.229 263.371 104.108 263.383 103.983 263.406C104.03 265.789 104.132 268.047 104.288 270.18L100.655 270.25ZM103.655 255.719L103.737 260.734C105.19 260.664 106.112 260.172 106.503 259.258C106.714 258.773 106.819 258.301 106.819 257.84C106.819 257.441 106.741 257.051 106.585 256.668C106.304 256.004 105.604 255.672 104.487 255.672C104.229 255.672 103.952 255.688 103.655 255.719ZM111.157 256.562V253.48C112.306 253.512 113.443 253.527 114.568 253.527C116.318 253.527 118.032 253.492 119.712 253.422L119.818 256.703H116.864C116.864 262.258 116.923 266.664 117.04 269.922L113.736 270.086C113.907 264.539 114.032 260.016 114.111 256.516L111.157 256.562ZM71.0234 281.246L72.0898 292.836L73.9062 282.652L78.1367 282.605L79.3438 292.754L80.3867 281.656L83.9023 282.113C83.0586 287.223 82.2617 292.387 81.5117 297.605L77.2461 297.828L75.8516 286.59L73.6953 298.051L69.6875 297.887C69.0859 292.574 68.3594 287.102 67.5078 281.469L71.0234 281.246ZM89.7171 281.141C93.0062 281.141 94.6507 283.953 94.6507 289.578C94.6507 295.211 92.889 298.027 89.3655 298.027C85.8421 298.027 84.0804 295.109 84.0804 289.273C84.0804 283.852 85.9593 281.141 89.7171 281.141ZM87.3733 289.895C87.3655 290.098 87.3616 290.293 87.3616 290.48C87.3616 293.426 88.0491 294.898 89.4241 294.898C90.8851 294.898 91.6155 293.23 91.6155 289.895C91.6155 286.559 90.9358 284.891 89.5765 284.891C88.2093 284.891 87.4749 286.559 87.3733 289.895ZM95.6842 298.25C95.7311 296.016 95.7545 293.766 95.7545 291.5C95.7545 288.031 95.6998 284.527 95.5904 280.988C96.8014 280.863 97.8873 280.801 98.8482 280.801C101.52 280.801 103.223 281.289 103.958 282.266C104.645 283.18 104.989 284.188 104.989 285.289C104.989 285.789 104.922 286.305 104.79 286.836C104.337 288.555 103.383 289.645 101.93 290.105C102.946 290.246 103.715 290.793 104.239 291.746C104.739 292.668 104.989 294.988 104.989 298.707V299.211L101.45 299.258C101.489 298.273 101.508 297.391 101.508 296.609C101.508 294.242 101.317 292.793 100.934 292.262C100.497 291.668 99.9772 291.371 99.3756 291.371C99.2584 291.371 99.1373 291.383 99.0123 291.406C99.0592 293.789 99.1607 296.047 99.317 298.18L95.6842 298.25ZM98.6842 283.719L98.7662 288.734C100.219 288.664 101.141 288.172 101.532 287.258C101.743 286.773 101.848 286.301 101.848 285.84C101.848 285.441 101.77 285.051 101.614 284.668C101.333 284.004 100.633 283.672 99.5162 283.672C99.2584 283.672 98.9811 283.688 98.6842 283.719ZM109.198 281.738L109.151 289.062C110.456 286.547 111.663 284.246 112.772 282.16L116.054 282.348C114.952 284.395 113.444 286.922 111.53 289.93C112.499 291.922 113.956 294.668 115.901 298.168L112.175 298.215C111.456 296.395 110.393 294.105 108.987 291.348V297.605L106.186 297.652C106.241 293.496 106.268 288.27 106.268 281.973L109.198 281.738ZM120.075 297.512L117.157 297.781C117.157 292.047 117.064 286.664 116.876 281.633L120.216 281.352C120.13 286.656 120.083 292.043 120.075 297.512ZM121.496 298.074C121.589 295.402 121.636 292.801 121.636 290.27C121.636 287.348 121.574 284.516 121.449 281.773L124.894 281.609L128.058 290.434C128.027 287.402 127.941 284.301 127.8 281.129L131.421 281.082C131.062 285.871 130.882 290.707 130.882 295.59C130.882 296.246 130.886 296.902 130.894 297.559L127.718 297.594L124.343 288.148C124.445 291.633 124.539 294.871 124.625 297.863L121.496 298.074ZM142.428 287.762L139.767 287.785C139.728 285.801 139.228 284.758 138.267 284.656H138.056C137.197 284.656 136.502 285.223 135.971 286.355C135.439 287.488 135.174 289.094 135.174 291.172V291.688C135.221 294.016 136.037 295.18 137.623 295.18C138.717 295.18 139.263 294.289 139.263 292.508C139.263 292.328 139.26 292.145 139.252 291.957L136.92 291.992L137.037 289.355L143.025 289.449V292.32L141.83 292.344C141.83 296.422 140.205 298.461 136.955 298.461C133.947 298.461 132.443 296.062 132.443 291.266C132.443 290.867 132.455 290.449 132.478 290.012C132.752 284.379 134.545 281.445 137.857 281.211C138.021 281.203 138.178 281.199 138.326 281.199C141.084 281.199 142.463 283.059 142.463 286.777C142.463 287.09 142.451 287.418 142.428 287.762Z" fill="white"/>
<line x1="96.5" y1="232.5" x2="96.5" y2="197" stroke="#FFD774" stroke-dasharray="3 3"/>
<line y1="-0.5" x2="7.77817" y2="-0.5" transform="matrix(0.707107 0.707107 0.707107 -0.707107 91 228.5)" stroke="#FFD774" stroke-dasharray="3 3"/>
<line x1="102.354" y1="228.854" x2="96.8536" y2="234.354" stroke="#FFD774" stroke-dasharray="3 3"/>
<path d="M17.4032 131.75C25.6324 131.75 29.747 139.25 29.747 154.25C29.747 169.271 25.3407 176.781 16.5282 176.781C7.71575 176.781 3.3095 169 3.3095 153.438C3.3095 138.979 8.00742 131.75 17.4032 131.75ZM11.7782 154.469C11.7574 155.031 11.747 155.573 11.747 156.094C11.747 164.323 13.4449 168.438 16.8407 168.438C20.4241 168.438 22.2157 163.781 22.2157 154.469C22.2157 145.156 20.5387 140.5 17.1845 140.5C13.8303 140.5 12.0282 145.156 11.7782 154.469ZM33.003 147.125C32.8988 145.875 32.8468 144.719 32.8468 143.656C32.8468 139.927 33.5238 137.24 34.878 135.594C36.6072 133.49 38.8155 132.229 41.503 131.812C42.4613 131.667 43.3988 131.594 44.3155 131.594C45.9613 131.594 47.5447 131.823 49.0655 132.281C51.4405 133.01 53.2322 134.448 54.4405 136.594C55.4197 138.385 55.9093 140.677 55.9093 143.469C55.9093 144.01 55.8988 144.583 55.878 145.188C55.628 148.771 54.5447 152.073 52.628 155.094C50.7322 158.094 47.4405 162.396 42.753 168L56.4093 168.094L56.3155 175.938C50.3363 176.208 42.628 176.344 33.1905 176.344L32.4718 167.812C38.1384 161.688 42.1801 156.979 44.5968 153.688C46.8051 150.667 47.9093 147.698 47.9093 144.781V144C47.6801 140.875 46.3676 139.312 43.9718 139.312H43.8468C41.7634 139.375 40.7218 141.271 40.7218 145C40.7218 145.708 40.753 146.469 40.8155 147.281L33.003 147.125Z" fill="#81EAFF"/>
<path d="M68.6562 149.062C68.7031 147.008 68.7266 144.906 68.7266 142.758C68.7266 139.461 68.6719 136.047 68.5625 132.516C69.8984 132.328 71.0781 132.234 72.1016 132.234C73.7109 132.234 74.9219 132.469 75.7344 132.938C76.9922 133.664 77.6211 135.152 77.6211 137.402V137.789C77.543 140.258 76.9844 141.84 75.9453 142.535C74.9062 143.223 73.625 143.59 72.1016 143.637C72.0938 143.879 72.0898 144.129 72.0898 144.387C72.0898 145.684 72.1562 147.219 72.2891 148.992L68.6562 149.062ZM71.6562 135.234L71.7383 140.965C73.1914 140.887 74.043 140.367 74.293 139.406C74.4102 138.969 74.4688 138.52 74.4688 138.059C74.4688 137.52 74.3906 136.965 74.2344 136.395C74 135.559 73.4141 135.141 72.4766 135.141C72.2266 135.141 71.9531 135.172 71.6562 135.234ZM88.5335 132.234V143.824C88.5335 147.395 86.9007 149.18 83.6351 149.18H83.3772C80.6429 148.867 79.2288 147.371 79.1351 144.691C79.1351 139.34 79.0804 135.121 78.971 132.035H82.0882C82.0101 133.801 81.971 135.875 81.971 138.258C81.971 139.93 81.9905 141.758 82.0296 143.742C82.0452 145.195 82.5687 145.922 83.5999 145.922C83.5999 145.93 83.6038 145.934 83.6116 145.934C84.6351 145.934 85.1468 145.004 85.1468 143.145L85.0882 132.34L88.5335 132.234ZM89.8482 149.25C89.8951 147.016 89.9186 144.766 89.9186 142.5C89.9186 139.031 89.8639 135.527 89.7545 131.988C90.9654 131.863 92.0514 131.801 93.0123 131.801C95.6842 131.801 97.3873 132.289 98.1217 133.266C98.8092 134.18 99.1529 135.188 99.1529 136.289C99.1529 136.789 99.0865 137.305 98.9537 137.836C98.5006 139.555 97.5475 140.645 96.0943 141.105C97.11 141.246 97.8795 141.793 98.4029 142.746C98.9029 143.668 99.1529 145.988 99.1529 149.707V150.211L95.6139 150.258C95.6529 149.273 95.6725 148.391 95.6725 147.609C95.6725 145.242 95.4811 143.793 95.0982 143.262C94.6607 142.668 94.1412 142.371 93.5397 142.371C93.4225 142.371 93.3014 142.383 93.1764 142.406C93.2232 144.789 93.3248 147.047 93.4811 149.18L89.8482 149.25ZM92.8482 134.719L92.9303 139.734C94.3834 139.664 95.3053 139.172 95.6959 138.258C95.9068 137.773 96.0123 137.301 96.0123 136.84C96.0123 136.441 95.9342 136.051 95.7779 135.668C95.4967 135.004 94.7975 134.672 93.6803 134.672C93.4225 134.672 93.1451 134.688 92.8482 134.719ZM109.351 138.539L106.749 138.551V138.234C106.749 136.398 106.233 135.48 105.202 135.48C104.101 135.48 103.55 137.176 103.55 140.566C103.55 144.387 104.128 146.297 105.284 146.297H105.296C106.452 146.289 107.03 145.352 107.03 143.484V142.324H109.936V143.203C109.936 147.094 108.339 149.129 105.143 149.309C105.05 149.316 104.956 149.32 104.862 149.32C101.854 149.32 100.351 146.43 100.351 140.648C100.351 134.992 101.897 132.164 104.991 132.164C107.905 132.164 109.362 134.055 109.362 137.836C109.362 138.062 109.358 138.297 109.351 138.539ZM120.298 132.609C120.204 137.867 120.114 143.531 120.029 149.602H117.368V142.77H114.029V149.051L110.829 149.039C110.923 146.172 110.97 143.367 110.97 140.625C110.97 137.891 110.923 135.219 110.829 132.609H113.888L113.759 139.441L117.099 139.582V132.328L120.298 132.609ZM120.746 148.945C122.214 142.273 123.402 136.617 124.308 131.977L128.703 131.906C129.781 136.734 131.015 142.234 132.406 148.406L129.406 149.016L128.457 144.574H124.812L123.828 149.367L120.746 148.945ZM128.363 141.281C127.957 139.594 127.292 137.574 126.371 135.223C125.66 137.199 125.058 139.246 124.566 141.363L128.363 141.281ZM132.912 142.863L136.392 142.629C136.346 143.113 136.322 143.551 136.322 143.941C136.322 145.715 136.763 146.602 137.646 146.602H137.693C138.763 146.57 139.299 146 139.299 144.891V144.785C139.26 143.605 138.248 142.449 136.263 141.316C134.334 140.223 133.369 138.418 133.369 135.902C133.369 135.824 133.373 135.746 133.381 135.668C133.435 133.035 134.912 131.695 137.81 131.648H137.904C140.521 131.648 141.83 133.316 141.83 136.652C141.83 136.918 141.822 137.199 141.806 137.496L138.748 137.672C138.779 137.32 138.795 136.996 138.795 136.699C138.795 135.301 138.455 134.602 137.775 134.602C136.955 134.602 136.506 135.02 136.428 135.855C136.42 135.973 136.416 136.09 136.416 136.207C136.416 136.902 136.623 137.551 137.037 138.152C137.513 138.848 138.33 139.484 139.486 140.062C140.65 140.641 141.463 141.434 141.924 142.441C142.252 143.168 142.416 143.941 142.416 144.762C142.416 145.074 142.392 145.395 142.346 145.723C142.166 146.902 141.666 147.883 140.846 148.664C140.025 149.438 138.924 149.859 137.541 149.93C137.447 149.938 137.353 149.941 137.26 149.941C136.002 149.941 134.951 149.48 134.107 148.559C133.295 147.676 132.888 146.07 132.888 143.742C132.888 143.461 132.896 143.168 132.912 142.863ZM151.067 132.539V135.844L146.438 135.656V139.5L150.598 139.383L150.703 142.559H146.988V145.535H151.852V148.863L143.742 148.746C143.828 146.551 143.871 144.34 143.871 142.113C143.871 139.027 143.789 135.914 143.625 132.773C145.391 132.703 147.871 132.625 151.067 132.539ZM157.551 135.562V132.48C158.7 132.512 159.837 132.527 160.962 132.527C162.712 132.527 164.426 132.492 166.106 132.422L166.212 135.703H163.259C163.259 141.258 163.317 145.664 163.434 148.922L160.13 149.086C160.301 143.539 160.426 139.016 160.505 135.516L157.551 135.562ZM176.913 132.609C176.819 137.867 176.73 143.531 176.644 149.602H173.983V142.77H170.644V149.051L167.444 149.039C167.538 146.172 167.585 143.367 167.585 140.625C167.585 137.891 167.538 135.219 167.444 132.609H170.503L170.374 139.441L173.714 139.582V132.328L176.913 132.609ZM185.576 132.539V135.844L180.947 135.656V139.5L185.107 139.383L185.212 142.559H181.497V145.535H186.361V148.863L178.251 148.746C178.337 146.551 178.38 144.34 178.38 142.113C178.38 139.027 178.298 135.914 178.134 132.773C179.9 132.703 182.38 132.625 185.576 132.539ZM67.7891 176.945C69.2578 170.273 70.4453 164.617 71.3516 159.977L75.7461 159.906C76.8242 164.734 78.0586 170.234 79.4492 176.406L76.4492 177.016L75.5 172.574H71.8555L70.8711 177.367L67.7891 176.945ZM75.4062 169.281C75 167.594 74.3359 165.574 73.4141 163.223C72.7031 165.199 72.1016 167.246 71.6094 169.363L75.4062 169.281ZM79.9554 170.863L83.4358 170.629C83.389 171.113 83.3655 171.551 83.3655 171.941C83.3655 173.715 83.8069 174.602 84.6897 174.602H84.7366C85.8069 174.57 86.3421 174 86.3421 172.891V172.785C86.303 171.605 85.2913 170.449 83.3069 169.316C81.3772 168.223 80.4124 166.418 80.4124 163.902C80.4124 163.824 80.4163 163.746 80.4241 163.668C80.4788 161.035 81.9554 159.695 84.8538 159.648H84.9476C87.5647 159.648 88.8733 161.316 88.8733 164.652C88.8733 164.918 88.8655 165.199 88.8499 165.496L85.7913 165.672C85.8226 165.32 85.8382 164.996 85.8382 164.699C85.8382 163.301 85.4983 162.602 84.8187 162.602C83.9983 162.602 83.5491 163.02 83.471 163.855C83.4632 163.973 83.4593 164.09 83.4593 164.207C83.4593 164.902 83.6663 165.551 84.0804 166.152C84.5569 166.848 85.3733 167.484 86.5296 168.062C87.6937 168.641 88.5062 169.434 88.9671 170.441C89.2952 171.168 89.4593 171.941 89.4593 172.762C89.4593 173.074 89.4358 173.395 89.389 173.723C89.2093 174.902 88.7093 175.883 87.889 176.664C87.0687 177.438 85.9671 177.859 84.5843 177.93C84.4905 177.938 84.3968 177.941 84.303 177.941C83.0452 177.941 81.9944 177.48 81.1507 176.559C80.3382 175.676 79.9319 174.07 79.9319 171.742C79.9319 171.461 79.9397 171.168 79.9554 170.863ZM90.7154 170.863L94.1959 170.629C94.149 171.113 94.1256 171.551 94.1256 171.941C94.1256 173.715 94.567 174.602 95.4498 174.602H95.4967C96.567 174.57 97.1022 174 97.1022 172.891V172.785C97.0631 171.605 96.0514 170.449 94.067 169.316C92.1373 168.223 91.1725 166.418 91.1725 163.902C91.1725 163.824 91.1764 163.746 91.1842 163.668C91.2389 161.035 92.7154 159.695 95.6139 159.648H95.7076C98.3248 159.648 99.6334 161.316 99.6334 164.652C99.6334 164.918 99.6256 165.199 99.61 165.496L96.5514 165.672C96.5826 165.32 96.5982 164.996 96.5982 164.699C96.5982 163.301 96.2584 162.602 95.5787 162.602C94.7584 162.602 94.3092 163.02 94.2311 163.855C94.2232 163.973 94.2193 164.09 94.2193 164.207C94.2193 164.902 94.4264 165.551 94.8404 166.152C95.317 166.848 96.1334 167.484 97.2897 168.062C98.4537 168.641 99.2662 169.434 99.7272 170.441C100.055 171.168 100.219 171.941 100.219 172.762C100.219 173.074 100.196 173.395 100.149 173.723C99.9693 174.902 99.4693 175.883 98.649 176.664C97.8287 177.438 96.7272 177.859 95.3443 177.93C95.2506 177.938 95.1568 177.941 95.0631 177.941C93.8053 177.941 92.7545 177.48 91.9107 176.559C91.0982 175.676 90.692 174.07 90.692 171.742C90.692 171.461 90.6998 171.168 90.7154 170.863ZM108.87 160.539V163.844L104.241 163.656V167.5L108.401 167.383L108.507 170.559H104.792V173.535H109.655V176.863L101.546 176.746C101.632 174.551 101.675 172.34 101.675 170.113C101.675 167.027 101.593 163.914 101.429 160.773C103.194 160.703 105.675 160.625 108.87 160.539ZM110.876 163.562V160.48C112.025 160.512 113.161 160.527 114.286 160.527C116.036 160.527 117.751 160.492 119.431 160.422L119.536 163.703H116.583C116.583 169.258 116.642 173.664 116.759 176.922L113.454 177.086C113.626 171.539 113.751 167.016 113.829 163.516L110.876 163.562Z" fill="white"/>
<line x1="96.5" y1="111.5" x2="96.5" y2="76" stroke="#FFD774" stroke-dasharray="3 3"/>
<line y1="-0.5" x2="7.77817" y2="-0.5" transform="matrix(0.707107 0.707107 0.707107 -0.707107 91 107.5)" stroke="#FFD774" stroke-dasharray="3 3"/>
<line x1="102.354" y1="107.854" x2="96.8536" y2="113.354" stroke="#FFD774" stroke-dasharray="3 3"/>
<path d="M21.3407 10.75C29.5699 10.75 33.6845 18.25 33.6845 33.25C33.6845 48.2708 29.2782 55.7812 20.4657 55.7812C11.6532 55.7812 7.247 48 7.247 32.4375C7.247 17.9792 11.9449 10.75 21.3407 10.75ZM15.7157 33.4688C15.6949 34.0312 15.6845 34.5729 15.6845 35.0938C15.6845 43.3229 17.3824 47.4375 20.7782 47.4375C24.3616 47.4375 26.1532 42.7812 26.1532 33.4688C26.1532 24.1562 24.4762 19.5 21.122 19.5C17.7678 19.5 15.9657 24.1562 15.7157 33.4688ZM52.2217 11.625C52.0759 21.4583 52.003 31.2396 52.003 40.9688C52.003 45.8438 52.0238 50.7083 52.0655 55.5625L44.3155 55.9688C44.1697 43.4479 43.9926 31.8542 43.7842 21.1875C42.0342 21.5417 39.6592 22.4167 36.6592 23.8125L35.1592 16.9688L43.8467 11.4688L52.2217 11.625Z" fill="#81EAFF"/>
<path d="M76.0039 11.293V14.5977L71.375 14.4219V18.8164L75.5352 18.7109L75.6406 21.8867H71.9258V27.6641L68.6797 27.5117C68.7656 25.3164 68.8086 23.1055 68.8086 20.8789C68.8086 17.793 68.7266 14.6797 68.5625 11.5391C70.3281 11.4609 72.8086 11.3789 76.0039 11.293ZM80.4358 27.5117L77.5179 27.7812C77.5179 22.0469 77.4241 16.6641 77.2366 11.6328L80.5765 11.3516C80.4905 16.6562 80.4437 22.043 80.4358 27.5117ZM81.8561 28.0742C81.9498 25.4023 81.9967 22.8008 81.9967 20.2695C81.9967 17.3477 81.9342 14.5156 81.8092 11.7734L85.2545 11.6094L88.4186 20.4336C88.3873 17.4023 88.3014 14.3008 88.1608 11.1289L91.7818 11.082C91.4225 15.8711 91.2428 20.707 91.2428 25.5898C91.2428 26.2461 91.2467 26.9023 91.2545 27.5586L88.0787 27.5938L84.7037 18.1484C84.8053 21.6328 84.899 24.8711 84.985 27.8633L81.8561 28.0742ZM95.9208 14.5742C95.788 17.1445 95.7216 19.6289 95.7216 22.0273C95.7216 22.9336 95.7294 23.8242 95.745 24.6992C96.0185 24.7617 96.2802 24.793 96.5302 24.793C97.2177 24.793 97.7958 24.5547 98.2646 24.0781C98.9052 23.4375 99.2255 22 99.2255 19.7656V19.7188C99.2177 17.4688 98.9052 15.9922 98.288 15.2891C97.8114 14.7578 97.245 14.4922 96.5888 14.4922C96.3778 14.4922 96.1552 14.5195 95.9208 14.5742ZM93.0146 27.9688C93.0302 25.3359 93.038 22.625 93.038 19.8359C93.038 17.0391 93.0302 14.168 93.0146 11.2227C93.913 11.1133 94.7411 11.0586 95.4989 11.0586C97.6083 11.0586 99.163 11.4805 100.163 12.3242C101.522 13.4805 102.233 15.6172 102.296 18.7344V19.5781C102.296 22.25 102.038 24.1562 101.522 25.2969C100.952 26.5547 99.9091 27.3906 98.3935 27.8047C97.5185 28.0469 96.5575 28.168 95.5107 28.168C94.7294 28.168 93.8974 28.1016 93.0146 27.9688ZM107.855 14.5625V11.4805C109.003 11.5117 110.14 11.5273 111.265 11.5273C113.015 11.5273 114.73 11.4922 116.41 11.4219L116.515 14.7031H113.562C113.562 20.2578 113.621 24.6641 113.738 27.9219L110.433 28.0859C110.605 22.5391 110.73 18.0156 110.808 14.5156L107.855 14.5625ZM127.217 11.6094C127.123 16.8672 127.033 22.5312 126.947 28.6016H124.287V21.7695H120.947V28.0508L117.748 28.0391C117.842 25.1719 117.889 22.3672 117.889 19.625C117.889 16.8906 117.842 14.2188 117.748 11.6094H120.806L120.678 18.4414L124.017 18.582V11.3281L127.217 11.6094ZM135.879 11.5391V14.8438L131.25 14.6562V18.5L135.41 18.3828L135.516 21.5586H131.801V24.5352H136.664V27.8633L128.555 27.7461C128.641 25.5508 128.684 23.3398 128.684 21.1133C128.684 18.0273 128.602 14.9141 128.438 11.7734C130.203 11.7031 132.684 11.625 135.879 11.5391ZM141.591 27.9453C143.059 21.2734 144.247 15.6172 145.153 10.9766L149.548 10.9062C150.626 15.7344 151.86 21.2344 153.251 27.4062L150.251 28.0156L149.301 23.5742H145.657L144.673 28.3672L141.591 27.9453ZM149.208 20.2812C148.801 18.5938 148.137 16.5742 147.216 14.2227C146.505 16.1992 145.903 18.2461 145.411 20.3633L149.208 20.2812ZM153.757 21.8633L157.237 21.6289C157.19 22.1133 157.167 22.5508 157.167 22.9414C157.167 24.7148 157.608 25.6016 158.491 25.6016H158.538C159.608 25.5703 160.144 25 160.144 23.8906V23.7852C160.105 22.6055 159.093 21.4492 157.108 20.3164C155.179 19.2227 154.214 17.418 154.214 14.9023C154.214 14.8242 154.218 14.7461 154.226 14.668C154.28 12.0352 155.757 10.6953 158.655 10.6484H158.749C161.366 10.6484 162.675 12.3164 162.675 15.6523C162.675 15.918 162.667 16.1992 162.651 16.4961L159.593 16.6719C159.624 16.3203 159.64 15.9961 159.64 15.6992C159.64 14.3008 159.3 13.6016 158.62 13.6016C157.8 13.6016 157.351 14.0195 157.272 14.8555C157.265 14.9727 157.261 15.0898 157.261 15.207C157.261 15.9023 157.468 16.5508 157.882 17.1523C158.358 17.8477 159.175 18.4844 160.331 19.0625C161.495 19.6406 162.308 20.4336 162.769 21.4414C163.097 22.168 163.261 22.9414 163.261 23.7617C163.261 24.0742 163.237 24.3945 163.19 24.7227C163.011 25.9023 162.511 26.8828 161.69 27.6641C160.87 28.4375 159.769 28.8594 158.386 28.9297C158.292 28.9375 158.198 28.9414 158.105 28.9414C156.847 28.9414 155.796 28.4805 154.952 27.5586C154.14 26.6758 153.733 25.0703 153.733 22.7422C153.733 22.4609 153.741 22.168 153.757 21.8633ZM164.517 21.8633L167.997 21.6289C167.951 22.1133 167.927 22.5508 167.927 22.9414C167.927 24.7148 168.368 25.6016 169.251 25.6016H169.298C170.368 25.5703 170.904 25 170.904 23.8906V23.7852C170.865 22.6055 169.853 21.4492 167.868 20.3164C165.939 19.2227 164.974 17.418 164.974 14.9023C164.974 14.8242 164.978 14.7461 164.986 14.668C165.04 12.0352 166.517 10.6953 169.415 10.6484H169.509C172.126 10.6484 173.435 12.3164 173.435 15.6523C173.435 15.918 173.427 16.1992 173.411 16.4961L170.353 16.6719C170.384 16.3203 170.4 15.9961 170.4 15.6992C170.4 14.3008 170.06 13.6016 169.38 13.6016C168.56 13.6016 168.111 14.0195 168.033 14.8555C168.025 14.9727 168.021 15.0898 168.021 15.207C168.021 15.9023 168.228 16.5508 168.642 17.1523C169.118 17.8477 169.935 18.4844 171.091 19.0625C172.255 19.6406 173.068 20.4336 173.529 21.4414C173.857 22.168 174.021 22.9414 174.021 23.7617C174.021 24.0742 173.997 24.3945 173.951 24.7227C173.771 25.9023 173.271 26.8828 172.451 27.6641C171.63 28.4375 170.529 28.8594 169.146 28.9297C169.052 28.9375 168.958 28.9414 168.865 28.9414C167.607 28.9414 166.556 28.4805 165.712 27.5586C164.9 26.6758 164.493 25.0703 164.493 22.7422C164.493 22.4609 164.501 22.168 164.517 21.8633ZM182.672 11.5391V14.8438L178.043 14.6562V18.5L182.203 18.3828L182.308 21.5586H178.593V24.5352H183.457V27.8633L175.347 27.7461C175.433 25.5508 175.476 23.3398 175.476 21.1133C175.476 18.0273 175.394 14.9141 175.23 11.7734C176.996 11.7031 179.476 11.625 182.672 11.5391ZM184.678 14.5625V11.4805C185.826 11.5117 186.963 11.5273 188.088 11.5273C189.838 11.5273 191.553 11.4922 193.232 11.4219L193.338 14.7031H190.385C190.385 20.2578 190.443 24.6641 190.561 27.9219L187.256 28.0859C187.428 22.5391 187.553 18.0156 187.631 14.5156L184.678 14.5625ZM71.5625 56.1211L71.6914 48.8555C69.9102 45.0898 68.5352 42.0273 67.5664 39.668L70.8711 39.3281L73.1094 45.8672C74.1172 42.7266 74.9258 40.3867 75.5352 38.8477H78.7344C76.8203 43.5586 75.4453 46.9688 74.6094 49.0781V55.9805L71.5625 56.1211ZM83.8343 39.1406C87.1233 39.1406 88.7679 41.9531 88.7679 47.5781C88.7679 53.2109 87.0062 56.0273 83.4827 56.0273C79.9593 56.0273 78.1976 53.1094 78.1976 47.2734C78.1976 41.8516 80.0765 39.1406 83.8343 39.1406ZM81.4905 47.8945C81.4827 48.0977 81.4788 48.293 81.4788 48.4805C81.4788 51.4258 82.1663 52.8984 83.5413 52.8984C85.0022 52.8984 85.7327 51.2305 85.7327 47.8945C85.7327 44.5586 85.053 42.8906 83.6937 42.8906C82.3265 42.8906 81.5921 44.5586 81.4905 47.8945ZM99.2701 39.2344V50.8242C99.2701 54.3945 97.6373 56.1797 94.3717 56.1797H94.1139C91.3795 55.8672 89.9654 54.3711 89.8717 51.6914C89.8717 46.3398 89.817 42.1211 89.7076 39.0352H92.8248C92.7467 40.8008 92.7076 42.875 92.7076 45.2578C92.7076 46.9297 92.7272 48.7578 92.7662 50.7422C92.7818 52.1953 93.3053 52.9219 94.3365 52.9219C94.3365 52.9297 94.3404 52.9336 94.3482 52.9336C95.3717 52.9336 95.8834 52.0039 95.8834 50.1445L95.8248 39.3398L99.2701 39.2344ZM108.497 38.7891C108.357 42.8594 108.286 46.3477 108.286 49.2539C108.286 50.4102 108.298 51.4766 108.321 52.4531L113.548 52.1953L113.63 56.0156L105.263 56.2031C105.271 55.1719 105.275 54.1445 105.275 53.1211C105.275 48.4258 105.173 43.7539 104.97 39.1055L108.497 38.7891ZM118.132 55.5117L115.214 55.7812C115.214 50.0469 115.121 44.6641 114.933 39.6328L118.273 39.3516C118.187 44.6562 118.14 50.043 118.132 55.5117ZM122.517 39.7383L122.471 47.0625C123.775 44.5469 124.982 42.2461 126.092 40.1602L129.373 40.3477C128.271 42.3945 126.764 44.9219 124.849 47.9297C125.818 49.9219 127.275 52.668 129.221 56.168L125.494 56.2148C124.775 54.3945 123.713 52.1055 122.306 49.3477V55.6055L119.506 55.6523C119.56 51.4961 119.588 46.2695 119.588 39.9727L122.517 39.7383ZM137.637 39.5391V42.8438L133.008 42.6562V46.5L137.168 46.3828L137.274 49.5586H133.559V52.5352H138.422V55.8633L130.313 55.7461C130.399 53.5508 130.442 51.3398 130.442 49.1133C130.442 46.0273 130.36 42.9141 130.195 39.7734C131.961 39.7031 134.442 39.625 137.637 39.5391Z" fill="white"/>
</svg>
