<svg width="875" height="76" viewBox="0 0 875 76" fill="none" xmlns="http://www.w3.org/2000/svg">
<path d="M708.379 8.6875C718.666 8.6875 723.809 18.0625 723.809 36.8125C723.809 55.5885 718.301 64.9766 707.285 64.9766C696.27 64.9766 690.762 55.25 690.762 35.7969C690.762 17.724 696.634 8.6875 708.379 8.6875ZM701.348 37.0859C701.322 37.7891 701.309 38.4661 701.309 39.1172C701.309 49.4036 703.431 54.5469 707.676 54.5469C712.155 54.5469 714.395 48.7266 714.395 37.0859C714.395 25.4453 712.298 19.625 708.106 19.625C703.913 19.625 701.66 25.4453 701.348 37.0859ZM726.59 27.5156C726.486 26.1354 726.433 24.8464 726.433 23.6484C726.433 19.5078 727.058 16.3177 728.308 14.0781C729.897 11.2135 732.501 9.44271 736.121 8.76562C737.892 8.42708 739.584 8.25781 741.199 8.25781C742.84 8.25781 744.402 8.4401 745.887 8.80469C748.777 9.50781 751.082 11.0833 752.801 13.5312C754.545 15.9792 755.483 19.3385 755.613 23.6094V24.7812C755.613 28.4792 755.04 31.1745 753.894 32.8672C752.618 34.7682 750.522 36.2005 747.605 37.1641C750.027 37.5286 751.837 38.4141 753.035 39.8203C754.259 41.2005 755.105 43.0625 755.574 45.4062C755.834 46.7083 755.965 48.1406 755.965 49.7031C755.965 50.9792 755.874 52.3594 755.691 53.8438C755.301 57.099 753.972 59.9115 751.707 62.2812C749.467 64.651 746.004 65.888 741.316 65.9922H740.691C736.29 65.9922 732.775 64.8464 730.144 62.5547C727.41 60.2109 726.043 55.1719 726.043 47.4375V47.2031L736.16 46.6172C736.134 47.0599 736.121 47.4896 736.121 47.9062C736.121 53.375 737.553 56.2005 740.418 56.3828C740.626 56.4089 740.821 56.4219 741.004 56.4219C743.712 56.4219 745.34 54.9896 745.887 52.125C746.043 51.3177 746.121 50.5495 746.121 49.8203C746.121 47.763 745.535 45.9792 744.363 44.4688C742.749 42.4375 740.079 41.4219 736.355 41.4219L735.887 34C736.329 34.026 736.746 34.0391 737.137 34.0391C740.392 34.0391 742.631 33.1016 743.855 31.2266C745.001 29.4818 745.574 27.2161 745.574 24.4297C745.574 23.8828 745.548 23.3229 745.496 22.75C745.262 19.4167 743.764 17.75 741.004 17.75H740.496C737.762 17.9323 736.394 20.6667 736.394 25.9531C736.394 26.5781 736.407 27.2422 736.433 27.9453L726.59 27.5156Z" fill="#81EAFF"/>
<path d="M774.812 21.4844L779.453 21.1719C779.391 21.8177 779.359 22.401 779.359 22.9219C779.359 25.2865 779.948 26.4688 781.125 26.4688H781.188C782.615 26.4271 783.328 25.6667 783.328 24.1875V24.0469C783.276 22.474 781.927 20.9323 779.281 19.4219C776.708 17.9635 775.422 15.5573 775.422 12.2031C775.422 12.099 775.427 11.9948 775.438 11.8906C775.51 8.38021 777.479 6.59375 781.344 6.53125H781.469C784.958 6.53125 786.703 8.75521 786.703 13.2031C786.703 13.5573 786.693 13.9323 786.672 14.3281L782.594 14.5625C782.635 14.0938 782.656 13.6615 782.656 13.2656C782.656 11.401 782.203 10.4688 781.297 10.4688C780.203 10.4688 779.604 11.026 779.5 12.1406C779.49 12.2969 779.484 12.4531 779.484 12.6094C779.484 13.5365 779.76 14.401 780.312 15.2031C780.948 16.1302 782.036 16.9792 783.578 17.75C785.13 18.5208 786.214 19.5781 786.828 20.9219C787.266 21.8906 787.484 22.9219 787.484 24.0156C787.484 24.4323 787.453 24.8594 787.391 25.2969C787.151 26.8698 786.484 28.1771 785.391 29.2188C784.297 30.25 782.828 30.8125 780.984 30.9062C780.859 30.9167 780.734 30.9219 780.609 30.9219C778.932 30.9219 777.531 30.3073 776.406 29.0781C775.323 27.901 774.781 25.7604 774.781 22.6562C774.781 22.2812 774.792 21.8906 774.812 21.4844ZM789.097 11.75V7.64062C790.628 7.68229 792.144 7.70312 793.644 7.70312C795.977 7.70312 798.263 7.65625 800.503 7.5625L800.644 11.9375H796.706C796.706 19.3438 796.784 25.2188 796.941 29.5625L792.534 29.7812C792.763 22.3854 792.93 16.3542 793.034 11.6875L789.097 11.75ZM801.256 29.5938C803.214 20.6979 804.798 13.1562 806.006 6.96875L811.865 6.875C813.303 13.3125 814.949 20.6458 816.803 28.875L812.803 29.6875L811.537 23.7656H806.678L805.365 30.1562L801.256 29.5938ZM811.412 19.375C810.871 17.125 809.985 14.4323 808.756 11.2969C807.808 13.9323 807.006 16.6615 806.35 19.4844L811.412 19.375ZM817.54 30C817.603 27.0208 817.634 24.0208 817.634 21C817.634 16.375 817.561 11.7031 817.415 6.98438C819.03 6.81771 820.478 6.73438 821.759 6.73438C825.321 6.73438 827.592 7.38542 828.571 8.6875C829.488 9.90625 829.946 11.25 829.946 12.7188C829.946 13.3854 829.858 14.0729 829.681 14.7812C829.077 17.0729 827.806 18.526 825.868 19.1406C827.223 19.3281 828.249 20.0573 828.946 21.3281C829.613 22.5573 829.946 25.651 829.946 30.6094V31.2812L825.228 31.3438C825.28 30.0312 825.306 28.8542 825.306 27.8125C825.306 24.6562 825.051 22.724 824.54 22.0156C823.957 21.224 823.264 20.8281 822.462 20.8281C822.306 20.8281 822.144 20.8438 821.978 20.875C822.04 24.0521 822.176 27.0625 822.384 29.9062L817.54 30ZM821.54 10.625L821.65 17.3125C823.587 17.2188 824.816 16.5625 825.337 15.3438C825.618 14.6979 825.759 14.0677 825.759 13.4531C825.759 12.9219 825.655 12.401 825.446 11.8906C825.071 11.0052 824.139 10.5625 822.65 10.5625C822.306 10.5625 821.936 10.5833 821.54 10.625ZM831.543 11.75V7.64062C833.075 7.68229 834.59 7.70312 836.09 7.70312C838.423 7.70312 840.71 7.65625 842.95 7.5625L843.09 11.9375H839.153C839.153 19.3438 839.231 25.2188 839.387 29.5625L834.981 29.7812C835.21 22.3854 835.377 16.3542 835.481 11.6875L831.543 11.75ZM778.031 45.3281L779.453 60.7812L781.875 47.2031L787.516 47.1406L789.125 60.6719L790.516 45.875L795.203 46.4844C794.078 53.2969 793.016 60.1823 792.016 67.1406L786.328 67.4375L784.469 52.4531L781.594 67.7344L776.25 67.5156C775.448 60.4323 774.479 53.1354 773.344 45.625L778.031 45.3281ZM802.956 45.1875C807.342 45.1875 809.534 48.9375 809.534 56.4375C809.534 63.9479 807.185 67.7031 802.487 67.7031C797.789 67.7031 795.441 63.8125 795.441 56.0312C795.441 48.8021 797.946 45.1875 802.956 45.1875ZM799.831 56.8594C799.821 57.1302 799.816 57.3906 799.816 57.6406C799.816 61.5677 800.732 63.5312 802.566 63.5312C804.513 63.5312 805.487 61.3073 805.487 56.8594C805.487 52.4115 804.581 50.1875 802.769 50.1875C800.946 50.1875 799.967 52.4115 799.831 56.8594ZM810.912 68C810.975 65.0208 811.006 62.0208 811.006 59C811.006 54.375 810.933 49.7031 810.787 44.9844C812.402 44.8177 813.85 44.7344 815.131 44.7344C818.694 44.7344 820.964 45.3854 821.944 46.6875C822.86 47.9062 823.319 49.25 823.319 50.7188C823.319 51.3854 823.23 52.0729 823.053 52.7812C822.449 55.0729 821.178 56.526 819.24 57.1406C820.595 57.3281 821.621 58.0573 822.319 59.3281C822.985 60.5573 823.319 63.651 823.319 68.6094V69.2812L818.6 69.3438C818.652 68.0312 818.678 66.8542 818.678 65.8125C818.678 62.6562 818.423 60.724 817.912 60.0156C817.329 59.224 816.636 58.8281 815.834 58.8281C815.678 58.8281 815.516 58.8438 815.35 58.875C815.412 62.0521 815.548 65.0625 815.756 67.9062L810.912 68ZM814.912 48.625L815.022 55.3125C816.959 55.2188 818.188 54.5625 818.709 53.3438C818.99 52.6979 819.131 52.0677 819.131 51.4531C819.131 50.9219 819.027 50.401 818.819 49.8906C818.444 49.0052 817.511 48.5625 816.022 48.5625C815.678 48.5625 815.308 48.5833 814.912 48.625ZM828.931 45.9844L828.868 55.75C830.608 52.3958 832.217 49.3281 833.696 46.5469L838.071 46.7969C836.603 49.526 834.592 52.8958 832.04 56.9062C833.332 59.5625 835.275 63.224 837.868 67.8906L832.9 67.9531C831.941 65.526 830.525 62.474 828.65 58.7969V67.1406L824.915 67.2031C824.988 61.6615 825.025 54.6927 825.025 46.2969L828.931 45.9844ZM843.434 67.0156L839.543 67.375C839.543 59.7292 839.418 52.5521 839.168 45.8438L843.621 45.4688C843.507 52.5417 843.444 59.724 843.434 67.0156ZM845.327 67.7656C845.452 64.2031 845.515 60.7344 845.515 57.3594C845.515 53.4635 845.432 49.6875 845.265 46.0312L849.859 45.8125L854.077 57.5781C854.036 53.5365 853.921 49.401 853.734 45.1719L858.562 45.1094C858.083 51.4948 857.843 57.9427 857.843 64.4531C857.843 65.3281 857.848 66.2031 857.859 67.0781L853.624 67.125L849.124 54.5312C849.26 59.1771 849.385 63.4948 849.499 67.4844L845.327 67.7656ZM873.237 54.0156L869.69 54.0469C869.638 51.401 868.971 50.0104 867.69 49.875H867.409C866.263 49.875 865.336 50.6302 864.627 52.1406C863.919 53.651 863.565 55.7917 863.565 58.5625V59.25C863.627 62.3542 864.716 63.9062 866.83 63.9062C868.289 63.9062 869.018 62.7188 869.018 60.3438C869.018 60.1042 869.013 59.8594 869.002 59.6094L865.893 59.6562L866.049 56.1406L874.034 56.2656V60.0938L872.44 60.125C872.44 65.5625 870.273 68.2812 865.94 68.2812C861.929 68.2812 859.924 65.0833 859.924 58.6875C859.924 58.1562 859.94 57.599 859.971 57.0156C860.336 49.5052 862.726 45.5938 867.143 45.2812C867.362 45.2708 867.57 45.2656 867.768 45.2656C871.445 45.2656 873.284 47.7448 873.284 52.7031C873.284 53.1198 873.268 53.5573 873.237 54.0156Z" fill="white"/>
<line x1="662" y1="37.5" x2="591" y2="37.5" stroke="#FFD774" stroke-dasharray="3 3"/>
<line y1="-0.5" x2="15.5563" y2="-0.5" transform="matrix(0.707107 -0.707107 -0.707107 -0.707107 654 49)" stroke="#FFD774" stroke-dasharray="3 3"/>
<line x1="654.354" y1="26.6464" x2="665.354" y2="37.6464" stroke="#FFD774" stroke-dasharray="3 3"/>
<path d="M384.754 8.6875C395.041 8.6875 400.184 18.0625 400.184 36.8125C400.184 55.5885 394.676 64.9766 383.66 64.9766C372.645 64.9766 367.137 55.25 367.137 35.7969C367.137 17.724 373.009 8.6875 384.754 8.6875ZM377.723 37.0859C377.697 37.7891 377.684 38.4661 377.684 39.1172C377.684 49.4036 379.806 54.5469 384.051 54.5469C388.53 54.5469 390.77 48.7266 390.77 37.0859C390.77 25.4453 388.673 19.625 384.481 19.625C380.288 19.625 378.035 25.4453 377.723 37.0859ZM404.254 27.9062C404.124 26.3438 404.058 24.8984 404.058 23.5703C404.058 18.9089 404.905 15.5495 406.597 13.4922C408.759 10.862 411.519 9.28646 414.879 8.76562C416.077 8.58333 417.249 8.49219 418.394 8.49219C420.452 8.49219 422.431 8.77865 424.332 9.35156C427.301 10.263 429.54 12.0599 431.051 14.7422C432.275 16.9818 432.887 19.8464 432.887 23.3359C432.887 24.013 432.874 24.7292 432.847 25.4844C432.535 29.9635 431.181 34.0911 428.785 37.8672C426.415 41.6172 422.301 46.9948 416.441 54L433.512 54.1172L433.394 63.9219C425.92 64.2604 416.285 64.4297 404.488 64.4297L403.59 53.7656C410.673 46.1094 415.725 40.224 418.746 36.1094C421.506 32.3333 422.887 28.6224 422.887 24.9766V24C422.6 20.0938 420.959 18.1406 417.965 18.1406H417.808C415.204 18.2188 413.902 20.5885 413.902 25.25C413.902 26.1354 413.941 27.0859 414.019 28.1016L404.254 27.9062Z" fill="#81EAFF"/>
<path d="M451.875 29.75C451.938 27.0104 451.969 24.2083 451.969 21.3438C451.969 16.9479 451.896 12.3958 451.75 7.6875C453.531 7.4375 455.104 7.3125 456.469 7.3125C458.615 7.3125 460.229 7.625 461.312 8.25C462.99 9.21875 463.828 11.2031 463.828 14.2031V14.7188C463.724 18.0104 462.979 20.1198 461.594 21.0469C460.208 21.9635 458.5 22.4531 456.469 22.5156C456.458 22.8385 456.453 23.1719 456.453 23.5156C456.453 25.2448 456.542 27.2917 456.719 29.6562L451.875 29.75ZM455.875 11.3125L455.984 18.9531C457.922 18.849 459.057 18.1562 459.391 16.875C459.547 16.2917 459.625 15.6927 459.625 15.0781C459.625 14.3594 459.521 13.6198 459.312 12.8594C459 11.7448 458.219 11.1875 456.969 11.1875C456.635 11.1875 456.271 11.2292 455.875 11.3125ZM478.378 7.3125V22.7656C478.378 27.526 476.201 29.9062 471.847 29.9062H471.503C467.857 29.4896 465.972 27.4948 465.847 23.9219C465.847 16.7865 465.774 11.1615 465.628 7.04688H469.784C469.68 9.40104 469.628 12.1667 469.628 15.3438C469.628 17.5729 469.654 20.0104 469.706 22.6562C469.727 24.5938 470.425 25.5625 471.8 25.5625C471.8 25.5729 471.805 25.5781 471.816 25.5781C473.18 25.5781 473.862 24.3385 473.862 21.8594L473.784 7.45312L478.378 7.3125ZM480.131 30C480.194 27.0208 480.225 24.0208 480.225 21C480.225 16.375 480.152 11.7031 480.006 6.98438C481.621 6.81771 483.069 6.73438 484.35 6.73438C487.912 6.73438 490.183 7.38542 491.162 8.6875C492.079 9.90625 492.537 11.25 492.537 12.7188C492.537 13.3854 492.449 14.0729 492.272 14.7812C491.667 17.0729 490.397 18.526 488.459 19.1406C489.813 19.3281 490.839 20.0573 491.537 21.3281C492.204 22.5573 492.537 25.651 492.537 30.6094V31.2812L487.819 31.3438C487.871 30.0312 487.897 28.8542 487.897 27.8125C487.897 24.6562 487.641 22.724 487.131 22.0156C486.548 21.224 485.855 20.8281 485.053 20.8281C484.897 20.8281 484.735 20.8438 484.569 20.875C484.631 24.0521 484.766 27.0625 484.975 29.9062L480.131 30ZM484.131 10.625L484.24 17.3125C486.178 17.2188 487.407 16.5625 487.928 15.3438C488.209 14.6979 488.35 14.0677 488.35 13.4531C488.35 12.9219 488.246 12.401 488.037 11.8906C487.662 11.0052 486.73 10.5625 485.24 10.5625C484.897 10.5625 484.527 10.5833 484.131 10.625ZM506.134 15.7188L502.665 15.7344V15.3125C502.665 12.8646 501.978 11.6406 500.603 11.6406C499.134 11.6406 498.4 13.901 498.4 18.4219C498.4 23.5156 499.17 26.0625 500.712 26.0625H500.728C502.269 26.0521 503.04 24.8021 503.04 22.3125V20.7656H506.915V21.9375C506.915 27.125 504.785 29.8385 500.525 30.0781C500.4 30.0885 500.275 30.0938 500.15 30.0938C496.139 30.0938 494.134 26.2396 494.134 18.5312C494.134 10.9896 496.196 7.21875 500.321 7.21875C504.207 7.21875 506.15 9.73958 506.15 14.7812C506.15 15.0833 506.144 15.3958 506.134 15.7188ZM520.731 7.8125C520.606 14.8229 520.486 22.375 520.371 30.4688H516.825V21.3594H512.371V29.7344L508.106 29.7188C508.231 25.8958 508.293 22.1562 508.293 18.5C508.293 14.8542 508.231 11.2917 508.106 7.8125H512.184L512.012 16.9219L516.465 17.1094V7.4375L520.731 7.8125ZM521.327 29.5938C523.286 20.6979 524.869 13.1562 526.077 6.96875L531.937 6.875C533.374 13.3125 535.02 20.6458 536.874 28.875L532.874 29.6875L531.609 23.7656H526.749L525.437 30.1562L521.327 29.5938ZM531.484 19.375C530.942 17.125 530.057 14.4323 528.827 11.2969C527.88 13.9323 527.077 16.6615 526.421 19.4844L531.484 19.375ZM537.549 21.4844L542.19 21.1719C542.127 21.8177 542.096 22.401 542.096 22.9219C542.096 25.2865 542.685 26.4688 543.862 26.4688H543.924C545.351 26.4271 546.065 25.6667 546.065 24.1875V24.0469C546.013 22.474 544.664 20.9323 542.018 19.4219C539.445 17.9635 538.159 15.5573 538.159 12.2031C538.159 12.099 538.164 11.9948 538.174 11.8906C538.247 8.38021 540.216 6.59375 544.08 6.53125H544.205C547.695 6.53125 549.44 8.75521 549.44 13.2031C549.44 13.5573 549.429 13.9323 549.409 14.3281L545.33 14.5625C545.372 14.0938 545.393 13.6615 545.393 13.2656C545.393 11.401 544.94 10.4688 544.034 10.4688C542.94 10.4688 542.341 11.026 542.237 12.1406C542.226 12.2969 542.221 12.4531 542.221 12.6094C542.221 13.5365 542.497 14.401 543.049 15.2031C543.685 16.1302 544.773 16.9792 546.315 17.75C547.867 18.5208 548.95 19.5781 549.565 20.9219C550.002 21.8906 550.221 22.9219 550.221 24.0156C550.221 24.4323 550.19 24.8594 550.127 25.2969C549.888 26.8698 549.221 28.1771 548.127 29.2188C547.034 30.25 545.565 30.8125 543.721 30.9062C543.596 30.9167 543.471 30.9219 543.346 30.9219C541.669 30.9219 540.268 30.3073 539.143 29.0781C538.06 27.901 537.518 25.7604 537.518 22.6562C537.518 22.2812 537.528 21.8906 537.549 21.4844ZM561.755 7.71875V12.125L555.584 11.875V17L561.13 16.8438L561.271 21.0781H556.318V25.0469H562.802V29.4844L551.99 29.3281C552.104 26.401 552.162 23.4531 552.162 20.4844C552.162 16.3698 552.052 12.2188 551.834 8.03125C554.188 7.9375 557.495 7.83333 561.755 7.71875ZM451.75 49.75V45.6406C453.281 45.6823 454.797 45.7031 456.297 45.7031C458.63 45.7031 460.917 45.6562 463.156 45.5625L463.297 49.9375H459.359C459.359 57.3438 459.438 63.2188 459.594 67.5625L455.188 67.7812C455.417 60.3854 455.583 54.3542 455.688 49.6875L451.75 49.75ZM477.566 45.8125C477.441 52.8229 477.321 60.375 477.206 68.4688H473.659V59.3594H469.206V67.7344L464.941 67.7188C465.066 63.8958 465.128 60.1562 465.128 56.5C465.128 52.8542 465.066 49.2917 464.941 45.8125H469.019L468.847 54.9219L473.3 55.1094V45.4375L477.566 45.8125ZM489.115 45.7188V50.125L482.944 49.875V55L488.49 54.8438L488.631 59.0781H483.678V63.0469H490.162V67.4844L479.35 67.3281C479.464 64.401 479.522 61.4531 479.522 58.4844C479.522 54.3698 479.412 50.2188 479.194 46.0312C481.548 45.9375 484.855 45.8333 489.115 45.7188ZM496.731 67.5938C498.689 58.6979 500.272 51.1562 501.481 44.9688L507.34 44.875C508.778 51.3125 510.423 58.6458 512.278 66.875L508.278 67.6875L507.012 61.7656H502.153L500.84 68.1562L496.731 67.5938ZM506.887 57.375C506.345 55.125 505.46 52.4323 504.231 49.2969C503.283 51.9323 502.481 54.6615 501.825 57.4844L506.887 57.375ZM512.952 59.4844L517.593 59.1719C517.531 59.8177 517.499 60.401 517.499 60.9219C517.499 63.2865 518.088 64.4688 519.265 64.4688H519.327C520.755 64.4271 521.468 63.6667 521.468 62.1875V62.0469C521.416 60.474 520.067 58.9323 517.421 57.4219C514.848 55.9635 513.562 53.5573 513.562 50.2031C513.562 50.099 513.567 49.9948 513.577 49.8906C513.65 46.3802 515.619 44.5938 519.484 44.5312H519.609C523.098 44.5312 524.843 46.7552 524.843 51.2031C524.843 51.5573 524.833 51.9323 524.812 52.3281L520.734 52.5625C520.775 52.0938 520.796 51.6615 520.796 51.2656C520.796 49.401 520.343 48.4688 519.437 48.4688C518.343 48.4688 517.744 49.026 517.64 50.1406C517.63 50.2969 517.624 50.4531 517.624 50.6094C517.624 51.5365 517.9 52.401 518.452 53.2031C519.088 54.1302 520.176 54.9792 521.718 55.75C523.27 56.5208 524.354 57.5781 524.968 58.9219C525.406 59.8906 525.624 60.9219 525.624 62.0156C525.624 62.4323 525.593 62.8594 525.531 63.2969C525.291 64.8698 524.624 66.1771 523.531 67.2188C522.437 68.25 520.968 68.8125 519.124 68.9062C518.999 68.9167 518.874 68.9219 518.749 68.9219C517.072 68.9219 515.671 68.3073 514.546 67.0781C513.463 65.901 512.921 63.7604 512.921 60.6562C512.921 60.2812 512.932 59.8906 512.952 59.4844ZM527.299 59.4844L531.94 59.1719C531.877 59.8177 531.846 60.401 531.846 60.9219C531.846 63.2865 532.435 64.4688 533.612 64.4688H533.674C535.101 64.4271 535.815 63.6667 535.815 62.1875V62.0469C535.763 60.474 534.414 58.9323 531.768 57.4219C529.195 55.9635 527.909 53.5573 527.909 50.2031C527.909 50.099 527.914 49.9948 527.924 49.8906C527.997 46.3802 529.966 44.5938 533.83 44.5312H533.955C537.445 44.5312 539.19 46.7552 539.19 51.2031C539.19 51.5573 539.179 51.9323 539.159 52.3281L535.08 52.5625C535.122 52.0938 535.143 51.6615 535.143 51.2656C535.143 49.401 534.69 48.4688 533.784 48.4688C532.69 48.4688 532.091 49.026 531.987 50.1406C531.976 50.2969 531.971 50.4531 531.971 50.6094C531.971 51.5365 532.247 52.401 532.799 53.2031C533.435 54.1302 534.523 54.9792 536.065 55.75C537.617 56.5208 538.7 57.5781 539.315 58.9219C539.752 59.8906 539.971 60.9219 539.971 62.0156C539.971 62.4323 539.94 62.8594 539.877 63.2969C539.638 64.8698 538.971 66.1771 537.877 67.2188C536.784 68.25 535.315 68.8125 533.471 68.9062C533.346 68.9167 533.221 68.9219 533.096 68.9219C531.419 68.9219 530.018 68.3073 528.893 67.0781C527.81 65.901 527.268 63.7604 527.268 60.6562C527.268 60.2812 527.278 59.8906 527.299 59.4844ZM551.505 45.7188V50.125L545.334 49.875V55L550.88 54.8438L551.021 59.0781H546.068V63.0469H552.552V67.4844L541.74 67.3281C541.854 64.401 541.912 61.4531 541.912 58.4844C541.912 54.3698 541.802 50.2188 541.584 46.0312C543.938 45.9375 547.245 45.8333 551.505 45.7188ZM554.18 49.75V45.6406C555.712 45.6823 557.227 45.7031 558.727 45.7031C561.06 45.7031 563.347 45.6562 565.587 45.5625L565.727 49.9375H561.79C561.79 57.3438 561.868 63.2188 562.024 67.5625L557.618 67.7812C557.847 60.3854 558.014 54.3542 558.118 49.6875L554.18 49.75Z" fill="white"/>
<line x1="339" y1="37.5" x2="268" y2="37.5" stroke="#FFD774" stroke-dasharray="3 3"/>
<line y1="-0.5" x2="15.5563" y2="-0.5" transform="matrix(0.707107 -0.707107 -0.707107 -0.707107 331 49)" stroke="#FFD774" stroke-dasharray="3 3"/>
<line x1="331.354" y1="26.6464" x2="342.354" y2="37.6464" stroke="#FFD774" stroke-dasharray="3 3"/>
<path d="M19.1759 7.6875C29.4624 7.6875 34.6056 17.0625 34.6056 35.8125C34.6056 54.5885 29.0978 63.9766 18.0822 63.9766C7.06656 63.9766 1.55875 54.25 1.55875 34.7969C1.55875 16.724 7.43115 7.6875 19.1759 7.6875ZM12.1447 36.0859C12.1186 36.7891 12.1056 37.4661 12.1056 38.1172C12.1056 48.4036 14.228 53.5469 18.4728 53.5469C22.952 53.5469 25.1916 47.7266 25.1916 36.0859C25.1916 24.4453 23.0952 18.625 18.9025 18.625C14.7098 18.625 12.4572 24.4453 12.1447 36.0859ZM57.7772 8.78125C57.5949 21.0729 57.5037 33.2995 57.5037 45.4609C57.5037 51.5547 57.5298 57.6354 57.5819 63.7031L47.8944 64.2109C47.7121 48.5599 47.4907 34.0677 47.2303 20.7344C45.0428 21.1771 42.0741 22.2708 38.3241 24.0156L36.4491 15.4609L47.3084 8.58594L57.7772 8.78125Z" fill="#81EAFF"/>
<path d="M86.6719 7.39062V11.7969L80.5 11.5625V17.4219L86.0469 17.2812L86.1875 21.5156H81.2344V29.2188L76.9062 29.0156C77.0208 26.0885 77.0781 23.1406 77.0781 20.1719C77.0781 16.0573 76.9688 11.9062 76.75 7.71875C79.1042 7.61458 82.4115 7.50521 86.6719 7.39062ZM92.5811 29.0156L88.6905 29.375C88.6905 21.7292 88.5655 14.5521 88.3155 7.84375L92.7686 7.46875C92.654 14.5417 92.5915 21.724 92.5811 29.0156ZM94.4748 29.7656C94.5998 26.2031 94.6623 22.7344 94.6623 19.3594C94.6623 15.4635 94.5789 11.6875 94.4123 8.03125L99.006 7.8125L103.225 19.5781C103.183 15.5365 103.069 11.401 102.881 7.17188L107.709 7.10938C107.23 13.4948 106.99 19.9427 106.99 26.4531C106.99 27.3281 106.996 28.2031 107.006 29.0781L102.772 29.125L98.2716 16.5312C98.407 21.1771 98.532 25.4948 98.6466 29.4844L94.4748 29.7656ZM113.228 11.7656C113.051 15.1927 112.962 18.5052 112.962 21.7031C112.962 22.9115 112.973 24.099 112.993 25.2656C113.358 25.349 113.707 25.3906 114.04 25.3906C114.957 25.3906 115.728 25.0729 116.353 24.4375C117.207 23.5833 117.634 21.6667 117.634 18.6875V18.625C117.624 15.625 117.207 13.6562 116.384 12.7188C115.749 12.0104 114.993 11.6562 114.118 11.6562C113.837 11.6562 113.54 11.6927 113.228 11.7656ZM109.353 29.625C109.374 26.1146 109.384 22.5 109.384 18.7812C109.384 15.0521 109.374 11.224 109.353 7.29688C110.551 7.15104 111.655 7.07812 112.665 7.07812C115.478 7.07812 117.551 7.64062 118.884 8.76562C120.696 10.3073 121.644 13.1562 121.728 17.3125V18.4375C121.728 22 121.384 24.5417 120.696 26.0625C119.936 27.7396 118.545 28.8542 116.525 29.4062C115.358 29.7292 114.077 29.8906 112.681 29.8906C111.639 29.8906 110.53 29.8021 109.353 29.625ZM129.14 11.75V7.64062C130.671 7.68229 132.187 7.70312 133.687 7.70312C136.02 7.70312 138.307 7.65625 140.546 7.5625L140.687 11.9375H136.749C136.749 19.3438 136.827 25.2188 136.984 29.5625L132.577 29.7812C132.807 22.3854 132.973 16.3542 133.077 11.6875L129.14 11.75ZM154.955 7.8125C154.83 14.8229 154.711 22.375 154.596 30.4688H151.049V21.3594H146.596V29.7344L142.33 29.7188C142.455 25.8958 142.518 22.1562 142.518 18.5C142.518 14.8542 142.455 11.2917 142.33 7.8125H146.409L146.237 16.9219L150.69 17.1094V7.4375L154.955 7.8125ZM166.505 7.71875V12.125L160.334 11.875V17L165.88 16.8438L166.021 21.0781H161.068V25.0469H167.552V29.4844L156.74 29.3281C156.854 26.401 156.912 23.4531 156.912 20.4844C156.912 16.3698 156.802 12.2188 156.584 8.03125C158.938 7.9375 162.245 7.83333 166.505 7.71875ZM174.121 29.5938C176.079 20.6979 177.662 13.1562 178.871 6.96875L184.73 6.875C186.168 13.3125 187.813 20.6458 189.668 28.875L185.668 29.6875L184.402 23.7656H179.543L178.23 30.1562L174.121 29.5938ZM184.277 19.375C183.735 17.125 182.85 14.4323 181.621 11.2969C180.673 13.9323 179.871 16.6615 179.215 19.4844L184.277 19.375ZM190.342 21.4844L194.983 21.1719C194.921 21.8177 194.889 22.401 194.889 22.9219C194.889 25.2865 195.478 26.4688 196.655 26.4688H196.717C198.145 26.4271 198.858 25.6667 198.858 24.1875V24.0469C198.806 22.474 197.457 20.9323 194.811 19.4219C192.238 17.9635 190.952 15.5573 190.952 12.2031C190.952 12.099 190.957 11.9948 190.967 11.8906C191.04 8.38021 193.009 6.59375 196.874 6.53125H196.999C200.488 6.53125 202.233 8.75521 202.233 13.2031C202.233 13.5573 202.223 13.9323 202.202 14.3281L198.124 14.5625C198.165 14.0938 198.186 13.6615 198.186 13.2656C198.186 11.401 197.733 10.4688 196.827 10.4688C195.733 10.4688 195.134 11.026 195.03 12.1406C195.02 12.2969 195.014 12.4531 195.014 12.6094C195.014 13.5365 195.29 14.401 195.842 15.2031C196.478 16.1302 197.566 16.9792 199.108 17.75C200.66 18.5208 201.744 19.5781 202.358 20.9219C202.796 21.8906 203.014 22.9219 203.014 24.0156C203.014 24.4323 202.983 24.8594 202.921 25.2969C202.681 26.8698 202.014 28.1771 200.921 29.2188C199.827 30.25 198.358 30.8125 196.514 30.9062C196.389 30.9167 196.264 30.9219 196.139 30.9219C194.462 30.9219 193.061 30.3073 191.936 29.0781C190.853 27.901 190.311 25.7604 190.311 22.6562C190.311 22.2812 190.322 21.8906 190.342 21.4844ZM204.689 21.4844L209.33 21.1719C209.267 21.8177 209.236 22.401 209.236 22.9219C209.236 25.2865 209.825 26.4688 211.002 26.4688H211.064C212.491 26.4271 213.205 25.6667 213.205 24.1875V24.0469C213.153 22.474 211.804 20.9323 209.158 19.4219C206.585 17.9635 205.299 15.5573 205.299 12.2031C205.299 12.099 205.304 11.9948 205.314 11.8906C205.387 8.38021 207.356 6.59375 211.22 6.53125H211.345C214.835 6.53125 216.58 8.75521 216.58 13.2031C216.58 13.5573 216.569 13.9323 216.549 14.3281L212.47 14.5625C212.512 14.0938 212.533 13.6615 212.533 13.2656C212.533 11.401 212.08 10.4688 211.174 10.4688C210.08 10.4688 209.481 11.026 209.377 12.1406C209.366 12.2969 209.361 12.4531 209.361 12.6094C209.361 13.5365 209.637 14.401 210.189 15.2031C210.825 16.1302 211.913 16.9792 213.455 17.75C215.007 18.5208 216.09 19.5781 216.705 20.9219C217.142 21.8906 217.361 22.9219 217.361 24.0156C217.361 24.4323 217.33 24.8594 217.267 25.2969C217.028 26.8698 216.361 28.1771 215.267 29.2188C214.174 30.25 212.705 30.8125 210.861 30.9062C210.736 30.9167 210.611 30.9219 210.486 30.9219C208.809 30.9219 207.408 30.3073 206.283 29.0781C205.2 27.901 204.658 25.7604 204.658 22.6562C204.658 22.2812 204.668 21.8906 204.689 21.4844ZM228.895 7.71875V12.125L222.723 11.875V17L228.27 16.8438L228.411 21.0781H223.458V25.0469H229.942V29.4844L219.13 29.3281C219.244 26.401 219.302 23.4531 219.302 20.4844C219.302 16.3698 219.192 12.2188 218.973 8.03125C221.328 7.9375 224.635 7.83333 228.895 7.71875ZM231.57 11.75V7.64062C233.102 7.68229 234.617 7.70312 236.117 7.70312C238.45 7.70312 240.737 7.65625 242.977 7.5625L243.117 11.9375H239.18C239.18 19.3438 239.258 25.2188 239.414 29.5625L235.008 29.7812C235.237 22.3854 235.404 16.3542 235.508 11.6875L231.57 11.75ZM80.75 67.8281L80.9219 58.1406C78.5469 53.1198 76.7135 49.0365 75.4219 45.8906L79.8281 45.4375L82.8125 54.1562C84.1562 49.9688 85.2344 46.849 86.0469 44.7969H90.3125C87.7604 51.0781 85.9271 55.625 84.8125 58.4375V67.6406L80.75 67.8281ZM97.1124 45.1875C101.498 45.1875 103.691 48.9375 103.691 56.4375C103.691 63.9479 101.342 67.7031 96.6436 67.7031C91.9457 67.7031 89.5968 63.8125 89.5968 56.0312C89.5968 48.8021 92.102 45.1875 97.1124 45.1875ZM93.9874 56.8594C93.977 57.1302 93.9718 57.3906 93.9718 57.6406C93.9718 61.5677 94.8884 63.5312 96.7218 63.5312C98.6697 63.5312 99.6436 61.3073 99.6436 56.8594C99.6436 52.4115 98.7374 50.1875 96.9249 50.1875C95.102 50.1875 94.1228 52.4115 93.9874 56.8594ZM117.694 45.3125V60.7656C117.694 65.526 115.516 67.9062 111.162 67.9062H110.819C107.173 67.4896 105.287 65.4948 105.162 61.9219C105.162 54.7865 105.089 49.1615 104.944 45.0469H109.1C108.996 47.401 108.944 50.1667 108.944 53.3438C108.944 55.5729 108.97 58.0104 109.022 60.6562C109.042 62.5938 109.74 63.5625 111.115 63.5625C111.115 63.5729 111.121 63.5781 111.131 63.5781C112.496 63.5781 113.178 62.3385 113.178 59.8594L113.1 45.4531L117.694 45.3125ZM129.996 44.7188C129.809 50.1458 129.715 54.7969 129.715 58.6719C129.715 60.2135 129.731 61.6354 129.762 62.9375L136.731 62.5938L136.84 67.6875L125.684 67.9375C125.694 66.5625 125.7 65.1927 125.7 63.8281C125.7 57.5677 125.564 51.3385 125.293 45.1406L129.996 44.7188ZM142.843 67.0156L138.952 67.375C138.952 59.7292 138.827 52.5521 138.577 45.8438L143.031 45.4688C142.916 52.5417 142.854 59.724 142.843 67.0156ZM148.69 45.9844L148.627 55.75C150.367 52.3958 151.976 49.3281 153.455 46.5469L157.83 46.7969C156.362 49.526 154.351 52.8958 151.799 56.9062C153.091 59.5625 155.034 63.224 157.627 67.8906L152.659 67.9531C151.7 65.526 150.284 62.474 148.409 58.7969V67.1406L144.674 67.2031C144.747 61.6615 144.784 54.6927 144.784 46.2969L148.69 45.9844ZM168.849 45.7188V50.125L162.677 49.875V55L168.224 54.8438L168.365 59.0781H163.412V63.0469H169.896V67.4844L159.084 67.3281C159.198 64.401 159.255 61.4531 159.255 58.4844C159.255 54.3698 159.146 50.2188 158.927 46.0312C161.281 45.9375 164.589 45.8333 168.849 45.7188Z" fill="white"/>
</svg>
